SplineFontDB: 3.2
FontName: Sorazora-Regular
FullName: Sorazora
FamilyName: Sorazora
Weight: Regular
Copyright: Copyright (c) 2023 Maxwell Kussmann
UComments: "Created for Xymyric 9. Drawn in Inkscape and compiled using FontForge."
FontLog: "Sorazora is a serif font designed for the 9th Edition of the Xymyric alphabet. It includes two styles (Roman, Italic) for one weight (Regular). The design of the serifs is inspired by Han characters and is descended from Xymyric 8. The most noticeable feature compared to V8 is the thin headline and shallow pen angle. This font can be regarded as a transitional style. The direction of the serifs is flipped to reflect the pen angle, which is opposite that of V8. The contextual substitution rules follow those outlined in the Unicode PUA, Contextual and Ligature Guidelines for Xymyric 9, included within the font source folder.+AAoACgAA-This font:+AAoA    sorazora_serif_w4.otf+AAoACgAA-Versions 0.1-0.5: Drawing phase.+AAoA-Version 1.0: FontForge project created.+AAoA    - Glyphs imported:"
Version: 001.000
DefaultBaseFilename: sorazora_serif_w4
ItalicAngle: 0
UnderlinePosition: -99
UnderlineWidth: 49
Ascent: 735
Descent: 265
InvalidEm: 0
LayerCount: 2
Layer: 0 0 "Back" 1
Layer: 1 0 "Fore" 0
XUID: [1021 177 139733406 4461]
FSType: 0
OS2Version: 0
OS2_WeightWidthSlopeOnly: 0
OS2_UseTypoMetrics: 1
CreationTime: 1673642421
ModificationTime: 1673663065
PfmFamily: 17
TTFWeight: 400
TTFWidth: 5
LineGap: 90
VLineGap: 0
OS2TypoAscent: 0
OS2TypoAOffset: 1
OS2TypoDescent: 0
OS2TypoDOffset: 1
OS2TypoLinegap: 90
OS2WinAscent: 0
OS2WinAOffset: 1
OS2WinDescent: 0
OS2WinDOffset: 1
HheadAscent: 0
HheadAOffset: 1
HheadDescent: 0
HheadDOffset: 1
OS2Vendor: 'PfEd'
MarkAttachClasses: 1
DEI: 91125
LangName: 1033
GaspTable: 3 9 10 16 5 65535 15 1
Encoding: ISO8859-1
UnicodeInterp: none
NameList: AGL For New Fonts
DisplaySize: -96
AntiAlias: 1
FitToEm: 0
WinInfo: 70 10 7
BeginPrivate: 11
BlueValues 2 []
BlueScale 8 0.039625
BlueShift 1 3
StdHW 4 [22]

StartChar: H
Encoding: 72 72 0
Width: 402
Flags: W
HStem: -235 107<0 21 381 402> -235 21<21 88 104 193 209 297 313 381> -106 96<0 21 381 402> 17 102<0 21 381 402> 135 99<0 21 381 402> 157 10<77.3648 95.524 143.141 164.856 257.262 275.236> 213 10<56.0142 62 75 97 109 123 135 165 177 191 203 216 229 242 255 277 289 308 316.76 348 348.001 350.814> 255 107<0 21 381 402> 285 11<141.114 163.315> 310 11<335 359.886> 342 10<78.0239 93.9219 127 142.956 183.008 196.922 215.622 244.809 282 297 309 322.922> 383 96<0 21 381 402> 506 101<0 21 381 402> 623 21G<0 21 381 402> 713 22<21 88 104 193 209 297 313 381>
VStem: 0 88<-235 -214 713 735> 0 21<-214 -128 -106 -10 12 113 135 234 255 362 383 479 501 601 623 713> 66 12<167.368 213 286.341 342> 94 12<167.161 213 256.124 341.837> 104 89<-235 -214 713 735> 123 12<169.729 213> 129 13<259.114 267.957> 146 13<312.011 340.534> 159 18<241.277 252.474> 165 12<158.119 161 167.538 213 223 247.954 286.341 295 298.733 342> 191 12<157.231 213> 197 12<255.054 288.266 297 337.764> 204.5 2.5<146 146.981> 209 88<-235 -214 713 735> 216 13<125.803 213 223 250> 242 13<168.258 213> 270 12<254.607 342> 277 12<168.232 213> 297 12<287.124 342> 313 89<-235 -214 713 735> 323 12<255.054 311 320 342> 381 21<-214 -123 -101 -5 17 119 140 239 261 367 389 484 506 607 628 713>
LayerCount: 2
Fore
SplineSet
0 601 m 1x301e80
 21 602 l 1
 21 501 l 1
 0 500 l 1
 0 601 l 1x301e80
0 479 m 1
 21 479 l 1
 21 383 l 1
 0 383 l 1
 0 479 l 1
0 362 m 1x311e80
 21 362 l 1
 21 255 l 1
 0 255 l 1
 0 362 l 1x311e80
0 234 m 1x381e80
 21 234 l 1
 21 135 l 1
 0 135 l 1
 0 234 l 1x381e80
0 113 m 1
 21 114 l 1
 21 12 l 1
 0 12 l 1
 0 113 l 1
0 -10 m 1
 21 -10 l 1
 21 -106 l 1
 0 -106 l 1
 0 -10 l 1
0 -128 m 1xb01e80
 21 -128 l 1xb01e80
 21 -214 l 1x701e80
 88 -214 l 1
 88 -235 l 1x701f
 0 -235 l 1xb01f
 0 -128 l 1xb01e80
0 735 m 1x301f
 88 735 l 1
 88 713 l 1x301f
 21 713 l 1
 21 623 l 1
 0 623 l 1x301e80
 -0 660.333333333 0 697.666666667 0 735 c 1x301f
104 735 m 1x301e10
 193 735 l 1
 193 713 l 1
 104 713 l 1
 104 735 l 1x301e10
209 735 m 1x301e0008
 297 735 l 1
 297 713 l 1
 209 713 l 1
 209 735 l 1x301e0008
313 735 m 1x301e000020
 402 735 l 1x301e000020
 402 628 l 1
 381 628 l 1
 381 713 l 1x301e000008
 313 713 l 1
 313 735 l 1x301e000020
402 607 m 1x301e000008
 402 506 l 1
 381 506 l 1
 381 607 l 1
 402 607 l 1x301e000008
402 484 m 1
 402 389 l 1
 381 388 l 1
 381 484 l 1
 402 484 l 1
402 367 m 1
 402 261 l 1
 381 260 l 1
 381 367 l 1
 402 367 l 1
165 350 m 2x30be0aa0
 165.999999989 350.999999989 165.999999989 350.999999989 180 358 c 1
 180 359 l 1
 182.145898011 356.854101989 182.145898011 356.854101989 184 352 c 1
 195 352 l 1
 198.000000076 353.000000025 198.000000076 353.000000025 210 356 c 1
 210 345 l 1
 218 348 226 351 233 353 c 1
 239 353 l 2
 265.411490037 353 271.742515539 311.889649517 230 294 c 0
 225.330208697 292.301894072 209.213190056 286.071063352 209 286 c 2
 209 258 l 1
 200.333333315 253.666666663 200.333333315 253.666666663 197 253 c 1
 197 342 l 1
 183 342 l 1
 183 289 l 1
 179 287 175 286 171 285 c 1
 171 295 l 1
 169 294 167 292 165 291 c 0
 159.018023693 288.009011847 152.909609986 286.969869996 147 285 c 0
 139.866666667 285 121.5 285 114 300 c 1
 114 304 l 1
 124.499999995 307 124.499999995 307 125 307 c 0
 139.611138208 307 146 317.036540872 146 327 c 0
 146 332.97660152 143.732058483 344 127 344 c 1
 127 350 l 1
 131.356525113 350 133.199030442 353 135 353 c 2
 138 353 l 2
 140.081371122 353 159 352.3040263 159 327 c 0
 159 307.666666667 143.534482759 302.511494253 133 299 c 1
 142 296 142 296 143 296 c 0
 154.812430626 293.637513875 167.591626881 301.774880642 171 312 c 1
 171 341 l 2
 170.929289322 341.070710678 165 347.878070303 165 349 c 2
 165 350 l 2x30be0aa0
60 350 m 2
 60.9999999934 350.999999993 60.9999999934 350.999999993 75 358 c 0
 75.2195208028 357.780479197 78.9677509689 352.064498062 79 352 c 2
 92 352 l 1
 95.0000000762 353.000000025 95.0000000762 353.000000025 107 356 c 1
 106 352 106 347 106 341 c 2
 106 258 l 1
 97.3333333148 253.666666663 97.3333333148 253.666666663 94 253 c 1
 94 342 l 1
 78 342 l 1
 78 289 l 1
 74 287 70 286 66 285 c 1
 66 341 l 1x30be60
 61.8449005274 347.232649209 60 347.090878838 60 349 c 2
 60 350 l 2
264 351 m 0
 268.307250536 353.584350322 277.86 357.93 278 358 c 0
 280.000000005 355.999999995 280.000000005 355.999999995 282 352 c 1
 321 352 l 1
 324.000000076 353.000000025 324.000000076 353.000000025 336 356 c 1
 336 353.000000001 335 350.000000003 335 345 c 2
 335 320 l 1
 338 320 l 2
 344.00000001 320 349.999999995 321 355 321 c 2
 361 321 l 1
 361 320 360 316 358 309 c 0
 357 309 354.999999998 310 353 310 c 0
 350.999999998 310 343.999999993 311 335 311 c 1
 335 258 l 1
 326.333333315 253.666666663 326.333333315 253.666666663 323 253 c 1
 323 342 l 1
 309 342 l 1
 309 289 l 1
 300.333333315 284.666666663 300.333333315 284.666666663 297 284 c 1
 297 342 l 1
 282 342 l 1
 282 258 l 1
 273.333333315 253.666666663 273.333333315 253.666666663 270 253 c 1
 270 341 l 1x307e000150
 264 347 264 347 264 349 c 0
 264 349.666666667 264 350.333333333 264 351 c 0
213 298 m 0
 244.35703691 303.226172818 246 326.560682347 246 327 c 0
 246.968995753 329.906987259 250.264047687 343 231 343 c 0
 224.114647695 343 211.514493559 336.514493559 209 334 c 1
 209 297 l 1x301e0020
 210 297 212 298 213 298 c 0
146 275 m 0x311e06
 147 275 147 276 148 276 c 0
 149 276 150 276 150 275 c 2
 150 272 l 2
 149.500000004 270.000000014 149.500000004 270.000000014 142 255 c 1
 142 253 l 2
 142 252 141 251 141 251 c 2
 139.5 249.5 139.5 249.5 139 250 c 0
 136.292006525 258.123980424 129 273.74 129 274 c 2
 129 275 l 2
 129 276 131 276 132 276 c 0
 132.094339811 276 133.514592311 274.242703844 140 271 c 0
 141 271 141 273 142 273 c 0
 144.580783109 273 143.419216891 275 146 275 c 0x311e06
216 241 m 2x371e0084
 215.939172375 241.060827625 211 247.387270629 211 248 c 2
 211 250 l 1
 212 250 l 1
 218 252 224 254 229 255 c 1
 229 223 l 1
 348 223 l 1
 348 223 350 224 352 224 c 0
 354 224 355 223 355 223 c 2
 355 221.995710978 353.003674054 219.012859188 351 212 c 1
 346.99954192 213.000114519 345.000076354 214 343 214 c 0
 337 215 333 215 329 214 c 0
 326.652587854 214 312 209.748891214 312 198 c 2
 312 191 l 2
 312 190.547230743 314.425244244 161.904207374 351 168 c 1
 351 161 l 1
 346.9699008 161 344.363432534 158 342 158 c 0
 337 157 333 157 329 157 c 0
 300.083870765 157 291.149491249 196.149491249 308 213 c 1
 289 213 l 1
 289 176 l 1
 284.561899482 158.247597927 262.33015148 157 262 157 c 0
 244.218109567 157 242 171.50638608 242 177 c 2
 242 213 l 1
 229 213 l 1
 229 129 l 1
 225 127 221 125 216 124 c 1
 216 213 l 1
 203 213 l 1
 203 160 l 1
 199 158 196 157 191 156 c 1
 191 213 l 1
 177 213 l 1
 177 171 l 1
 179 168 180 166 180 166 c 2
 180.999941438 164.000117121 182 162.999980484 182 162 c 2
 181 161 l 1
 181 160 l 1
 177 158 172 157 167 156 c 1
 167 157 166 158 166 159 c 2
 166 161 l 1
 161.717585335 158.858792669 149.404114667 156 143 156 c 0
 123.635992071 156 123 177.212267809 123 180 c 2
 123 213 l 1
 109 213 l 1
 109 176 l 1
 104.603374432 158.413497727 83.3220248438 157 83 157 c 0
 71.6865756192 154.737315124 62 164.635301355 62 177 c 2
 62 213 l 1
 39 213 l 2
 38.7577039597 213 36 213.968377223 36 214 c 0
 36 217.949404762 36 219.285714286 52 233 c 1
 54.0013935618 229.997909658 56.9970739294 227.003901426 60 223 c 1
 165 223 l 1
 165 241 l 1x371e08c680
 159 247 159 247 159 248 c 0x371e01
 160.183760684 250.367521368 160.555555556 251.111111111 175 254 c 0
 176 254 176 255 176 255 c 1
 177 255 l 1
 177 223 l 1
 216 223 l 1
 216 241 l 2x371e0084
402 239 m 1x301e000008
 402 140 l 1
 381 140 l 1
 381 239 l 1
 402 239 l 1x301e000008
86 167 m 0x361e
 91.9892492364 167 97 169.760915139 97 179 c 2
 97 213 l 1
 75 213 l 1
 75 202.333333333 75 191.666666667 75 181 c 0
 75 167.314333178 85.0744477518 167 86 167 c 0x361e
135 213 m 1x361e0880
 135 183 l 2
 135 180.355062793 138.779863617 170.110068191 143 168 c 0
 146 167 149 167 154 167 c 2
 158 167 l 1
 160 168 163 170 165 172 c 1
 165 213 l 1
 135 213 l 1x361e0880
266 167 m 0
 269.691736582 167 277 168.34552206 277 179 c 2
 277 213 l 1
 255 213 l 1
 255 184 l 2x361e000280
 255 179.060606061 255 167 266 167 c 0
189 147 m 2
 189 147 189 147 197 143 c 1x301e0020
 197 143 200 144 204 146 c 0
 204.5 146 204.5 146.25 204.5 146.5 c 0
 204.5 146.75 204.5 147 205 147 c 0
 206 147 207 147 207 146 c 2
 207 143 l 1x301e0010
 200.5 129.999999999 200.5 129.999999999 199 126 c 1
 199 124 l 2
 199 123 198 122 198 122 c 2
 197 121 196 121 196 122 c 0
 195.163118998 124.510643004 193.743119525 127.68585836 186 145 c 1
 186 146 l 2
 186 147 188 147 189 147 c 2
402 119 m 1x301e000008
 402 17 l 1
 381 17 l 1
 381 119 l 1
 402 119 l 1x301e000008
402 -5 m 1
 402 -101 l 1
 381 -101 l 1
 381 -5 l 1
 402 -5 l 1
402 -123 m 1
 402 -235 l 1xb01e000020
 313 -235 l 1
 313 -214 l 1x701e000020
 381 -214 l 1x701e000008
 381 -123 l 1
 402 -123 l 1
104 -214 m 1x701e10
 193 -214 l 1
 193 -235 l 1
 104 -235 l 1
 104 -214 l 1x701e10
209 -214 m 1x701e0008
 297 -214 l 1
 297 -235 l 1
 209 -235 l 1
 209 -214 l 1x701e0008
EndSplineSet
Validated: 524321
EndChar

StartChar: A
Encoding: 65 65 1
Width: 402
Flags: W
HStem: -235 107<0 21 381 402> -235 21<21 88 104 193 209 297 313 381> -106 96<0 21 381 402> 17 102<0 21 381 402> 135 99<0 21 381 402> 157 10<77.3648 95.524 143.141 164.856 257.262 275.236> 213 10<56.0142 62 75 97 109 123 135 165 177 191 203 216 229 242 255 277 289 308 316.76 348 348.001 350.814> 255 107<0 21 381 402> 285 11<141.114 163.315> 310 11<335 359.886> 342 10<78.0239 93.9219 127 142.956 183.008 196.922 215.622 244.809 282 297 309 322.922> 383 96<0 21 381 402> 506 101<0 21 381 402> 623 21G<0 21 381 402> 713 22<21 88 104 193 209 297 313 381>
VStem: 0 88<-235 -214 713 735> 0 21<-214 -128 -106 -10 12 113 135 234 255 362 383 479 501 601 623 713> 66 12<167.368 213 286.341 342> 94 12<167.161 213 256.124 341.837> 104 89<-235 -214 713 735> 123 12<169.729 213> 129 13<259.114 267.957> 146 13<312.011 340.534> 159 18<241.277 252.474> 165 12<158.119 161 167.538 213 223 247.954 286.341 295 298.733 342> 191 12<157.231 213> 197 12<255.054 288.266 297 337.764> 204.5 2.5<146 146.981> 209 88<-235 -214 713 735> 216 13<125.803 213 223 250> 242 13<168.258 213> 270 12<254.607 342> 277 12<168.232 213> 297 12<287.124 342> 313 89<-235 -214 713 735> 323 12<255.054 311 320 342> 381 21<-214 -123 -101 -5 17 119 140 239 261 367 389 484 506 607 628 713>
LayerCount: 2
Fore
SplineSet
0 601 m 1x301e80
 21 602 l 1
 21 501 l 1
 0 500 l 1
 0 601 l 1x301e80
0 479 m 1
 21 479 l 1
 21 383 l 1
 0 383 l 1
 0 479 l 1
0 362 m 1x311e80
 21 362 l 1
 21 255 l 1
 0 255 l 1
 0 362 l 1x311e80
0 234 m 1x381e80
 21 234 l 1
 21 135 l 1
 0 135 l 1
 0 234 l 1x381e80
0 113 m 1
 21 114 l 1
 21 12 l 1
 0 12 l 1
 0 113 l 1
0 -10 m 1
 21 -10 l 1
 21 -106 l 1
 0 -106 l 1
 0 -10 l 1
0 -128 m 1xb01e80
 21 -128 l 1xb01e80
 21 -214 l 1x701e80
 88 -214 l 1
 88 -235 l 1x701f
 0 -235 l 1xb01f
 0 -128 l 1xb01e80
0 735 m 1x301f
 88 735 l 1
 88 713 l 1x301f
 21 713 l 1
 21 623 l 1
 0 623 l 1x301e80
 -0 660.333333333 0 697.666666667 0 735 c 1x301f
104 735 m 1x301e10
 193 735 l 1
 193 713 l 1
 104 713 l 1
 104 735 l 1x301e10
209 735 m 1x301e0008
 297 735 l 1
 297 713 l 1
 209 713 l 1
 209 735 l 1x301e0008
313 735 m 1x301e000020
 402 735 l 1x301e000020
 402 628 l 1
 381 628 l 1
 381 713 l 1x301e000008
 313 713 l 1
 313 735 l 1x301e000020
402 607 m 1x301e000008
 402 506 l 1
 381 506 l 1
 381 607 l 1
 402 607 l 1x301e000008
402 484 m 1
 402 389 l 1
 381 388 l 1
 381 484 l 1
 402 484 l 1
402 367 m 1
 402 261 l 1
 381 260 l 1
 381 367 l 1
 402 367 l 1
165 350 m 2x30be0aa0
 165.999999989 350.999999989 165.999999989 350.999999989 180 358 c 1
 180 359 l 1
 182.145898011 356.854101989 182.145898011 356.854101989 184 352 c 1
 195 352 l 1
 198.000000076 353.000000025 198.000000076 353.000000025 210 356 c 1
 210 345 l 1
 218 348 226 351 233 353 c 1
 239 353 l 2
 265.411490037 353 271.742515539 311.889649517 230 294 c 0
 225.330208697 292.301894072 209.213190056 286.071063352 209 286 c 2
 209 258 l 1
 200.333333315 253.666666663 200.333333315 253.666666663 197 253 c 1
 197 342 l 1
 183 342 l 1
 183 289 l 1
 179 287 175 286 171 285 c 1
 171 295 l 1
 169 294 167 292 165 291 c 0
 159.018023693 288.009011847 152.909609986 286.969869996 147 285 c 0
 139.866666667 285 121.5 285 114 300 c 1
 114 304 l 1
 124.499999995 307 124.499999995 307 125 307 c 0
 139.611138208 307 146 317.036540872 146 327 c 0
 146 332.97660152 143.732058483 344 127 344 c 1
 127 350 l 1
 131.356525113 350 133.199030442 353 135 353 c 2
 138 353 l 2
 140.081371122 353 159 352.3040263 159 327 c 0
 159 307.666666667 143.534482759 302.511494253 133 299 c 1
 142 296 142 296 143 296 c 0
 154.812430626 293.637513875 167.591626881 301.774880642 171 312 c 1
 171 341 l 2
 170.929289322 341.070710678 165 347.878070303 165 349 c 2
 165 350 l 2x30be0aa0
60 350 m 2
 60.9999999934 350.999999993 60.9999999934 350.999999993 75 358 c 0
 75.2195208028 357.780479197 78.9677509689 352.064498062 79 352 c 2
 92 352 l 1
 95.0000000762 353.000000025 95.0000000762 353.000000025 107 356 c 1
 106 352 106 347 106 341 c 2
 106 258 l 1
 97.3333333148 253.666666663 97.3333333148 253.666666663 94 253 c 1
 94 342 l 1
 78 342 l 1
 78 289 l 1
 74 287 70 286 66 285 c 1
 66 341 l 1x30be60
 61.8449005274 347.232649209 60 347.090878838 60 349 c 2
 60 350 l 2
264 351 m 0
 268.307250536 353.584350322 277.86 357.93 278 358 c 0
 280.000000005 355.999999995 280.000000005 355.999999995 282 352 c 1
 321 352 l 1
 324.000000076 353.000000025 324.000000076 353.000000025 336 356 c 1
 336 353.000000001 335 350.000000003 335 345 c 2
 335 320 l 1
 338 320 l 2
 344.00000001 320 349.999999995 321 355 321 c 2
 361 321 l 1
 361 320 360 316 358 309 c 0
 357 309 354.999999998 310 353 310 c 0
 350.999999998 310 343.999999993 311 335 311 c 1
 335 258 l 1
 326.333333315 253.666666663 326.333333315 253.666666663 323 253 c 1
 323 342 l 1
 309 342 l 1
 309 289 l 1
 300.333333315 284.666666663 300.333333315 284.666666663 297 284 c 1
 297 342 l 1
 282 342 l 1
 282 258 l 1
 273.333333315 253.666666663 273.333333315 253.666666663 270 253 c 1
 270 341 l 1x307e000150
 264 347 264 347 264 349 c 0
 264 349.666666667 264 350.333333333 264 351 c 0
213 298 m 0
 244.35703691 303.226172818 246 326.560682347 246 327 c 0
 246.968995753 329.906987259 250.264047687 343 231 343 c 0
 224.114647695 343 211.514493559 336.514493559 209 334 c 1
 209 297 l 1x301e0020
 210 297 212 298 213 298 c 0
146 275 m 0x311e06
 147 275 147 276 148 276 c 0
 149 276 150 276 150 275 c 2
 150 272 l 2
 149.500000004 270.000000014 149.500000004 270.000000014 142 255 c 1
 142 253 l 2
 142 252 141 251 141 251 c 2
 139.5 249.5 139.5 249.5 139 250 c 0
 136.292006525 258.123980424 129 273.74 129 274 c 2
 129 275 l 2
 129 276 131 276 132 276 c 0
 132.094339811 276 133.514592311 274.242703844 140 271 c 0
 141 271 141 273 142 273 c 0
 144.580783109 273 143.419216891 275 146 275 c 0x311e06
216 241 m 2x371e0084
 215.939172375 241.060827625 211 247.387270629 211 248 c 2
 211 250 l 1
 212 250 l 1
 218 252 224 254 229 255 c 1
 229 223 l 1
 348 223 l 1
 348 223 350 224 352 224 c 0
 354 224 355 223 355 223 c 2
 355 221.995710978 353.003674054 219.012859188 351 212 c 1
 346.99954192 213.000114519 345.000076354 214 343 214 c 0
 337 215 333 215 329 214 c 0
 326.652587854 214 312 209.748891214 312 198 c 2
 312 191 l 2
 312 190.547230743 314.425244244 161.904207374 351 168 c 1
 351 161 l 1
 346.9699008 161 344.363432534 158 342 158 c 0
 337 157 333 157 329 157 c 0
 300.083870765 157 291.149491249 196.149491249 308 213 c 1
 289 213 l 1
 289 176 l 1
 284.561899482 158.247597927 262.33015148 157 262 157 c 0
 244.218109567 157 242 171.50638608 242 177 c 2
 242 213 l 1
 229 213 l 1
 229 129 l 1
 225 127 221 125 216 124 c 1
 216 213 l 1
 203 213 l 1
 203 160 l 1
 199 158 196 157 191 156 c 1
 191 213 l 1
 177 213 l 1
 177 171 l 1
 179 168 180 166 180 166 c 2
 180.999941438 164.000117121 182 162.999980484 182 162 c 2
 181 161 l 1
 181 160 l 1
 177 158 172 157 167 156 c 1
 167 157 166 158 166 159 c 2
 166 161 l 1
 161.717585335 158.858792669 149.404114667 156 143 156 c 0
 123.635992071 156 123 177.212267809 123 180 c 2
 123 213 l 1
 109 213 l 1
 109 176 l 1
 104.603374432 158.413497727 83.3220248438 157 83 157 c 0
 71.6865756192 154.737315124 62 164.635301355 62 177 c 2
 62 213 l 1
 39 213 l 2
 38.7577039597 213 36 213.968377223 36 214 c 0
 36 217.949404762 36 219.285714286 52 233 c 1
 54.0013935618 229.997909658 56.9970739294 227.003901426 60 223 c 1
 165 223 l 1
 165 241 l 1x371e08c680
 159 247 159 247 159 248 c 0x371e01
 160.183760684 250.367521368 160.555555556 251.111111111 175 254 c 0
 176 254 176 255 176 255 c 1
 177 255 l 1
 177 223 l 1
 216 223 l 1
 216 241 l 2x371e0084
402 239 m 1x301e000008
 402 140 l 1
 381 140 l 1
 381 239 l 1
 402 239 l 1x301e000008
86 167 m 0x361e
 91.9892492364 167 97 169.760915139 97 179 c 2
 97 213 l 1
 75 213 l 1
 75 202.333333333 75 191.666666667 75 181 c 0
 75 167.314333178 85.0744477518 167 86 167 c 0x361e
135 213 m 1x361e0880
 135 183 l 2
 135 180.355062793 138.779863617 170.110068191 143 168 c 0
 146 167 149 167 154 167 c 2
 158 167 l 1
 160 168 163 170 165 172 c 1
 165 213 l 1
 135 213 l 1x361e0880
266 167 m 0
 269.691736582 167 277 168.34552206 277 179 c 2
 277 213 l 1
 255 213 l 1
 255 184 l 2x361e000280
 255 179.060606061 255 167 266 167 c 0
189 147 m 2
 189 147 189 147 197 143 c 1x301e0020
 197 143 200 144 204 146 c 0
 204.5 146 204.5 146.25 204.5 146.5 c 0
 204.5 146.75 204.5 147 205 147 c 0
 206 147 207 147 207 146 c 2
 207 143 l 1x301e0010
 200.5 129.999999999 200.5 129.999999999 199 126 c 1
 199 124 l 2
 199 123 198 122 198 122 c 2
 197 121 196 121 196 122 c 0
 195.163118998 124.510643004 193.743119525 127.68585836 186 145 c 1
 186 146 l 2
 186 147 188 147 189 147 c 2
402 119 m 1x301e000008
 402 17 l 1
 381 17 l 1
 381 119 l 1
 402 119 l 1x301e000008
402 -5 m 1
 402 -101 l 1
 381 -101 l 1
 381 -5 l 1
 402 -5 l 1
402 -123 m 1
 402 -235 l 1xb01e000020
 313 -235 l 1
 313 -214 l 1x701e000020
 381 -214 l 1x701e000008
 381 -123 l 1
 402 -123 l 1
104 -214 m 1x701e10
 193 -214 l 1
 193 -235 l 1
 104 -235 l 1
 104 -214 l 1x701e10
209 -214 m 1x701e0008
 297 -214 l 1
 297 -235 l 1
 209 -235 l 1
 209 -214 l 1x701e0008
EndSplineSet
Validated: 524321
EndChar

StartChar: B
Encoding: 66 66 2
Width: 402
Flags: W
HStem: -235 107<0 21 381 402> -235 21<21 88 104 193 209 297 313 381> -106 96<0 21 381 402> 17 102<0 21 381 402> 135 99<0 21 381 402> 157 10<77.3648 95.524 143.141 164.856 257.262 275.236> 213 10<56.0142 62 75 97 109 123 135 165 177 191 203 216 229 242 255 277 289 308 316.76 348 348.001 350.814> 255 107<0 21 381 402> 285 11<141.114 163.315> 310 11<335 359.886> 342 10<78.0239 93.9219 127 142.956 183.008 196.922 215.622 244.809 282 297 309 322.922> 383 96<0 21 381 402> 506 101<0 21 381 402> 623 21G<0 21 381 402> 713 22<21 88 104 193 209 297 313 381>
VStem: 0 88<-235 -214 713 735> 0 21<-214 -128 -106 -10 12 113 135 234 255 362 383 479 501 601 623 713> 66 12<167.368 213 286.341 342> 94 12<167.161 213 256.124 341.837> 104 89<-235 -214 713 735> 123 12<169.729 213> 129 13<259.114 267.957> 146 13<312.011 340.534> 159 18<241.277 252.474> 165 12<158.119 161 167.538 213 223 247.954 286.341 295 298.733 342> 191 12<157.231 213> 197 12<255.054 288.266 297 337.764> 204.5 2.5<146 146.981> 209 88<-235 -214 713 735> 216 13<125.803 213 223 250> 242 13<168.258 213> 270 12<254.607 342> 277 12<168.232 213> 297 12<287.124 342> 313 89<-235 -214 713 735> 323 12<255.054 311 320 342> 381 21<-214 -123 -101 -5 17 119 140 239 261 367 389 484 506 607 628 713>
LayerCount: 2
Fore
SplineSet
0 601 m 1x301e80
 21 602 l 1
 21 501 l 1
 0 500 l 1
 0 601 l 1x301e80
0 479 m 1
 21 479 l 1
 21 383 l 1
 0 383 l 1
 0 479 l 1
0 362 m 1x311e80
 21 362 l 1
 21 255 l 1
 0 255 l 1
 0 362 l 1x311e80
0 234 m 1x381e80
 21 234 l 1
 21 135 l 1
 0 135 l 1
 0 234 l 1x381e80
0 113 m 1
 21 114 l 1
 21 12 l 1
 0 12 l 1
 0 113 l 1
0 -10 m 1
 21 -10 l 1
 21 -106 l 1
 0 -106 l 1
 0 -10 l 1
0 -128 m 1xb01e80
 21 -128 l 1xb01e80
 21 -214 l 1x701e80
 88 -214 l 1
 88 -235 l 1x701f
 0 -235 l 1xb01f
 0 -128 l 1xb01e80
0 735 m 1x301f
 88 735 l 1
 88 713 l 1x301f
 21 713 l 1
 21 623 l 1
 0 623 l 1x301e80
 -0 660.333333333 0 697.666666667 0 735 c 1x301f
104 735 m 1x301e10
 193 735 l 1
 193 713 l 1
 104 713 l 1
 104 735 l 1x301e10
209 735 m 1x301e0008
 297 735 l 1
 297 713 l 1
 209 713 l 1
 209 735 l 1x301e0008
313 735 m 1x301e000020
 402 735 l 1x301e000020
 402 628 l 1
 381 628 l 1
 381 713 l 1x301e000008
 313 713 l 1
 313 735 l 1x301e000020
402 607 m 1x301e000008
 402 506 l 1
 381 506 l 1
 381 607 l 1
 402 607 l 1x301e000008
402 484 m 1
 402 389 l 1
 381 388 l 1
 381 484 l 1
 402 484 l 1
402 367 m 1
 402 261 l 1
 381 260 l 1
 381 367 l 1
 402 367 l 1
165 350 m 2x30be0aa0
 165.999999989 350.999999989 165.999999989 350.999999989 180 358 c 1
 180 359 l 1
 182.145898011 356.854101989 182.145898011 356.854101989 184 352 c 1
 195 352 l 1
 198.000000076 353.000000025 198.000000076 353.000000025 210 356 c 1
 210 345 l 1
 218 348 226 351 233 353 c 1
 239 353 l 2
 265.411490037 353 271.742515539 311.889649517 230 294 c 0
 225.330208697 292.301894072 209.213190056 286.071063352 209 286 c 2
 209 258 l 1
 200.333333315 253.666666663 200.333333315 253.666666663 197 253 c 1
 197 342 l 1
 183 342 l 1
 183 289 l 1
 179 287 175 286 171 285 c 1
 171 295 l 1
 169 294 167 292 165 291 c 0
 159.018023693 288.009011847 152.909609986 286.969869996 147 285 c 0
 139.866666667 285 121.5 285 114 300 c 1
 114 304 l 1
 124.499999995 307 124.499999995 307 125 307 c 0
 139.611138208 307 146 317.036540872 146 327 c 0
 146 332.97660152 143.732058483 344 127 344 c 1
 127 350 l 1
 131.356525113 350 133.199030442 353 135 353 c 2
 138 353 l 2
 140.081371122 353 159 352.3040263 159 327 c 0
 159 307.666666667 143.534482759 302.511494253 133 299 c 1
 142 296 142 296 143 296 c 0
 154.812430626 293.637513875 167.591626881 301.774880642 171 312 c 1
 171 341 l 2
 170.929289322 341.070710678 165 347.878070303 165 349 c 2
 165 350 l 2x30be0aa0
60 350 m 2
 60.9999999934 350.999999993 60.9999999934 350.999999993 75 358 c 0
 75.2195208028 357.780479197 78.9677509689 352.064498062 79 352 c 2
 92 352 l 1
 95.0000000762 353.000000025 95.0000000762 353.000000025 107 356 c 1
 106 352 106 347 106 341 c 2
 106 258 l 1
 97.3333333148 253.666666663 97.3333333148 253.666666663 94 253 c 1
 94 342 l 1
 78 342 l 1
 78 289 l 1
 74 287 70 286 66 285 c 1
 66 341 l 1x30be60
 61.8449005274 347.232649209 60 347.090878838 60 349 c 2
 60 350 l 2
264 351 m 0
 268.307250536 353.584350322 277.86 357.93 278 358 c 0
 280.000000005 355.999999995 280.000000005 355.999999995 282 352 c 1
 321 352 l 1
 324.000000076 353.000000025 324.000000076 353.000000025 336 356 c 1
 336 353.000000001 335 350.000000003 335 345 c 2
 335 320 l 1
 338 320 l 2
 344.00000001 320 349.999999995 321 355 321 c 2
 361 321 l 1
 361 320 360 316 358 309 c 0
 357 309 354.999999998 310 353 310 c 0
 350.999999998 310 343.999999993 311 335 311 c 1
 335 258 l 1
 326.333333315 253.666666663 326.333333315 253.666666663 323 253 c 1
 323 342 l 1
 309 342 l 1
 309 289 l 1
 300.333333315 284.666666663 300.333333315 284.666666663 297 284 c 1
 297 342 l 1
 282 342 l 1
 282 258 l 1
 273.333333315 253.666666663 273.333333315 253.666666663 270 253 c 1
 270 341 l 1x307e000150
 264 347 264 347 264 349 c 0
 264 349.666666667 264 350.333333333 264 351 c 0
213 298 m 0
 244.35703691 303.226172818 246 326.560682347 246 327 c 0
 246.968995753 329.906987259 250.264047687 343 231 343 c 0
 224.114647695 343 211.514493559 336.514493559 209 334 c 1
 209 297 l 1x301e0020
 210 297 212 298 213 298 c 0
146 275 m 0x311e06
 147 275 147 276 148 276 c 0
 149 276 150 276 150 275 c 2
 150 272 l 2
 149.500000004 270.000000014 149.500000004 270.000000014 142 255 c 1
 142 253 l 2
 142 252 141 251 141 251 c 2
 139.5 249.5 139.5 249.5 139 250 c 0
 136.292006525 258.123980424 129 273.74 129 274 c 2
 129 275 l 2
 129 276 131 276 132 276 c 0
 132.094339811 276 133.514592311 274.242703844 140 271 c 0
 141 271 141 273 142 273 c 0
 144.580783109 273 143.419216891 275 146 275 c 0x311e06
216 241 m 2x371e0084
 215.939172375 241.060827625 211 247.387270629 211 248 c 2
 211 250 l 1
 212 250 l 1
 218 252 224 254 229 255 c 1
 229 223 l 1
 348 223 l 1
 348 223 350 224 352 224 c 0
 354 224 355 223 355 223 c 2
 355 221.995710978 353.003674054 219.012859188 351 212 c 1
 346.99954192 213.000114519 345.000076354 214 343 214 c 0
 337 215 333 215 329 214 c 0
 326.652587854 214 312 209.748891214 312 198 c 2
 312 191 l 2
 312 190.547230743 314.425244244 161.904207374 351 168 c 1
 351 161 l 1
 346.9699008 161 344.363432534 158 342 158 c 0
 337 157 333 157 329 157 c 0
 300.083870765 157 291.149491249 196.149491249 308 213 c 1
 289 213 l 1
 289 176 l 1
 284.561899482 158.247597927 262.33015148 157 262 157 c 0
 244.218109567 157 242 171.50638608 242 177 c 2
 242 213 l 1
 229 213 l 1
 229 129 l 1
 225 127 221 125 216 124 c 1
 216 213 l 1
 203 213 l 1
 203 160 l 1
 199 158 196 157 191 156 c 1
 191 213 l 1
 177 213 l 1
 177 171 l 1
 179 168 180 166 180 166 c 2
 180.999941438 164.000117121 182 162.999980484 182 162 c 2
 181 161 l 1
 181 160 l 1
 177 158 172 157 167 156 c 1
 167 157 166 158 166 159 c 2
 166 161 l 1
 161.717585335 158.858792669 149.404114667 156 143 156 c 0
 123.635992071 156 123 177.212267809 123 180 c 2
 123 213 l 1
 109 213 l 1
 109 176 l 1
 104.603374432 158.413497727 83.3220248438 157 83 157 c 0
 71.6865756192 154.737315124 62 164.635301355 62 177 c 2
 62 213 l 1
 39 213 l 2
 38.7577039597 213 36 213.968377223 36 214 c 0
 36 217.949404762 36 219.285714286 52 233 c 1
 54.0013935618 229.997909658 56.9970739294 227.003901426 60 223 c 1
 165 223 l 1
 165 241 l 1x371e08c680
 159 247 159 247 159 248 c 0x371e01
 160.183760684 250.367521368 160.555555556 251.111111111 175 254 c 0
 176 254 176 255 176 255 c 1
 177 255 l 1
 177 223 l 1
 216 223 l 1
 216 241 l 2x371e0084
402 239 m 1x301e000008
 402 140 l 1
 381 140 l 1
 381 239 l 1
 402 239 l 1x301e000008
86 167 m 0x361e
 91.9892492364 167 97 169.760915139 97 179 c 2
 97 213 l 1
 75 213 l 1
 75 202.333333333 75 191.666666667 75 181 c 0
 75 167.314333178 85.0744477518 167 86 167 c 0x361e
135 213 m 1x361e0880
 135 183 l 2
 135 180.355062793 138.779863617 170.110068191 143 168 c 0
 146 167 149 167 154 167 c 2
 158 167 l 1
 160 168 163 170 165 172 c 1
 165 213 l 1
 135 213 l 1x361e0880
266 167 m 0
 269.691736582 167 277 168.34552206 277 179 c 2
 277 213 l 1
 255 213 l 1
 255 184 l 2x361e000280
 255 179.060606061 255 167 266 167 c 0
189 147 m 2
 189 147 189 147 197 143 c 1x301e0020
 197 143 200 144 204 146 c 0
 204.5 146 204.5 146.25 204.5 146.5 c 0
 204.5 146.75 204.5 147 205 147 c 0
 206 147 207 147 207 146 c 2
 207 143 l 1x301e0010
 200.5 129.999999999 200.5 129.999999999 199 126 c 1
 199 124 l 2
 199 123 198 122 198 122 c 2
 197 121 196 121 196 122 c 0
 195.163118998 124.510643004 193.743119525 127.68585836 186 145 c 1
 186 146 l 2
 186 147 188 147 189 147 c 2
402 119 m 1x301e000008
 402 17 l 1
 381 17 l 1
 381 119 l 1
 402 119 l 1x301e000008
402 -5 m 1
 402 -101 l 1
 381 -101 l 1
 381 -5 l 1
 402 -5 l 1
402 -123 m 1
 402 -235 l 1xb01e000020
 313 -235 l 1
 313 -214 l 1x701e000020
 381 -214 l 1x701e000008
 381 -123 l 1
 402 -123 l 1
104 -214 m 1x701e10
 193 -214 l 1
 193 -235 l 1
 104 -235 l 1
 104 -214 l 1x701e10
209 -214 m 1x701e0008
 297 -214 l 1
 297 -235 l 1
 209 -235 l 1
 209 -214 l 1x701e0008
EndSplineSet
Validated: 524321
EndChar

StartChar: C
Encoding: 67 67 3
Width: 402
Flags: W
HStem: -235 107<0 21 381 402> -235 21<21 88 104 193 209 297 313 381> -106 96<0 21 381 402> 17 102<0 21 381 402> 135 99<0 21 381 402> 157 10<77.3648 95.524 143.141 164.856 257.262 275.236> 213 10<56.0142 62 75 97 109 123 135 165 177 191 203 216 229 242 255 277 289 308 316.76 348 348.001 350.814> 255 107<0 21 381 402> 285 11<141.114 163.315> 310 11<335 359.886> 342 10<78.0239 93.9219 127 142.956 183.008 196.922 215.622 244.809 282 297 309 322.922> 383 96<0 21 381 402> 506 101<0 21 381 402> 623 21G<0 21 381 402> 713 22<21 88 104 193 209 297 313 381>
VStem: 0 88<-235 -214 713 735> 0 21<-214 -128 -106 -10 12 113 135 234 255 362 383 479 501 601 623 713> 66 12<167.368 213 286.341 342> 94 12<167.161 213 256.124 341.837> 104 89<-235 -214 713 735> 123 12<169.729 213> 129 13<259.114 267.957> 146 13<312.011 340.534> 159 18<241.277 252.474> 165 12<158.119 161 167.538 213 223 247.954 286.341 295 298.733 342> 191 12<157.231 213> 197 12<255.054 288.266 297 337.764> 204.5 2.5<146 146.981> 209 88<-235 -214 713 735> 216 13<125.803 213 223 250> 242 13<168.258 213> 270 12<254.607 342> 277 12<168.232 213> 297 12<287.124 342> 313 89<-235 -214 713 735> 323 12<255.054 311 320 342> 381 21<-214 -123 -101 -5 17 119 140 239 261 367 389 484 506 607 628 713>
LayerCount: 2
Fore
SplineSet
0 601 m 1x301e80
 21 602 l 1
 21 501 l 1
 0 500 l 1
 0 601 l 1x301e80
0 479 m 1
 21 479 l 1
 21 383 l 1
 0 383 l 1
 0 479 l 1
0 362 m 1x311e80
 21 362 l 1
 21 255 l 1
 0 255 l 1
 0 362 l 1x311e80
0 234 m 1x381e80
 21 234 l 1
 21 135 l 1
 0 135 l 1
 0 234 l 1x381e80
0 113 m 1
 21 114 l 1
 21 12 l 1
 0 12 l 1
 0 113 l 1
0 -10 m 1
 21 -10 l 1
 21 -106 l 1
 0 -106 l 1
 0 -10 l 1
0 -128 m 1xb01e80
 21 -128 l 1xb01e80
 21 -214 l 1x701e80
 88 -214 l 1
 88 -235 l 1x701f
 0 -235 l 1xb01f
 0 -128 l 1xb01e80
0 735 m 1x301f
 88 735 l 1
 88 713 l 1x301f
 21 713 l 1
 21 623 l 1
 0 623 l 1x301e80
 -0 660.333333333 0 697.666666667 0 735 c 1x301f
104 735 m 1x301e10
 193 735 l 1
 193 713 l 1
 104 713 l 1
 104 735 l 1x301e10
209 735 m 1x301e0008
 297 735 l 1
 297 713 l 1
 209 713 l 1
 209 735 l 1x301e0008
313 735 m 1x301e000020
 402 735 l 1x301e000020
 402 628 l 1
 381 628 l 1
 381 713 l 1x301e000008
 313 713 l 1
 313 735 l 1x301e000020
402 607 m 1x301e000008
 402 506 l 1
 381 506 l 1
 381 607 l 1
 402 607 l 1x301e000008
402 484 m 1
 402 389 l 1
 381 388 l 1
 381 484 l 1
 402 484 l 1
402 367 m 1
 402 261 l 1
 381 260 l 1
 381 367 l 1
 402 367 l 1
165 350 m 2x30be0aa0
 165.999999989 350.999999989 165.999999989 350.999999989 180 358 c 1
 180 359 l 1
 182.145898011 356.854101989 182.145898011 356.854101989 184 352 c 1
 195 352 l 1
 198.000000076 353.000000025 198.000000076 353.000000025 210 356 c 1
 210 345 l 1
 218 348 226 351 233 353 c 1
 239 353 l 2
 265.411490037 353 271.742515539 311.889649517 230 294 c 0
 225.330208697 292.301894072 209.213190056 286.071063352 209 286 c 2
 209 258 l 1
 200.333333315 253.666666663 200.333333315 253.666666663 197 253 c 1
 197 342 l 1
 183 342 l 1
 183 289 l 1
 179 287 175 286 171 285 c 1
 171 295 l 1
 169 294 167 292 165 291 c 0
 159.018023693 288.009011847 152.909609986 286.969869996 147 285 c 0
 139.866666667 285 121.5 285 114 300 c 1
 114 304 l 1
 124.499999995 307 124.499999995 307 125 307 c 0
 139.611138208 307 146 317.036540872 146 327 c 0
 146 332.97660152 143.732058483 344 127 344 c 1
 127 350 l 1
 131.356525113 350 133.199030442 353 135 353 c 2
 138 353 l 2
 140.081371122 353 159 352.3040263 159 327 c 0
 159 307.666666667 143.534482759 302.511494253 133 299 c 1
 142 296 142 296 143 296 c 0
 154.812430626 293.637513875 167.591626881 301.774880642 171 312 c 1
 171 341 l 2
 170.929289322 341.070710678 165 347.878070303 165 349 c 2
 165 350 l 2x30be0aa0
60 350 m 2
 60.9999999934 350.999999993 60.9999999934 350.999999993 75 358 c 0
 75.2195208028 357.780479197 78.9677509689 352.064498062 79 352 c 2
 92 352 l 1
 95.0000000762 353.000000025 95.0000000762 353.000000025 107 356 c 1
 106 352 106 347 106 341 c 2
 106 258 l 1
 97.3333333148 253.666666663 97.3333333148 253.666666663 94 253 c 1
 94 342 l 1
 78 342 l 1
 78 289 l 1
 74 287 70 286 66 285 c 1
 66 341 l 1x30be60
 61.8449005274 347.232649209 60 347.090878838 60 349 c 2
 60 350 l 2
264 351 m 0
 268.307250536 353.584350322 277.86 357.93 278 358 c 0
 280.000000005 355.999999995 280.000000005 355.999999995 282 352 c 1
 321 352 l 1
 324.000000076 353.000000025 324.000000076 353.000000025 336 356 c 1
 336 353.000000001 335 350.000000003 335 345 c 2
 335 320 l 1
 338 320 l 2
 344.00000001 320 349.999999995 321 355 321 c 2
 361 321 l 1
 361 320 360 316 358 309 c 0
 357 309 354.999999998 310 353 310 c 0
 350.999999998 310 343.999999993 311 335 311 c 1
 335 258 l 1
 326.333333315 253.666666663 326.333333315 253.666666663 323 253 c 1
 323 342 l 1
 309 342 l 1
 309 289 l 1
 300.333333315 284.666666663 300.333333315 284.666666663 297 284 c 1
 297 342 l 1
 282 342 l 1
 282 258 l 1
 273.333333315 253.666666663 273.333333315 253.666666663 270 253 c 1
 270 341 l 1x307e000150
 264 347 264 347 264 349 c 0
 264 349.666666667 264 350.333333333 264 351 c 0
213 298 m 0
 244.35703691 303.226172818 246 326.560682347 246 327 c 0
 246.968995753 329.906987259 250.264047687 343 231 343 c 0
 224.114647695 343 211.514493559 336.514493559 209 334 c 1
 209 297 l 1x301e0020
 210 297 212 298 213 298 c 0
146 275 m 0x311e06
 147 275 147 276 148 276 c 0
 149 276 150 276 150 275 c 2
 150 272 l 2
 149.500000004 270.000000014 149.500000004 270.000000014 142 255 c 1
 142 253 l 2
 142 252 141 251 141 251 c 2
 139.5 249.5 139.5 249.5 139 250 c 0
 136.292006525 258.123980424 129 273.74 129 274 c 2
 129 275 l 2
 129 276 131 276 132 276 c 0
 132.094339811 276 133.514592311 274.242703844 140 271 c 0
 141 271 141 273 142 273 c 0
 144.580783109 273 143.419216891 275 146 275 c 0x311e06
216 241 m 2x371e0084
 215.939172375 241.060827625 211 247.387270629 211 248 c 2
 211 250 l 1
 212 250 l 1
 218 252 224 254 229 255 c 1
 229 223 l 1
 348 223 l 1
 348 223 350 224 352 224 c 0
 354 224 355 223 355 223 c 2
 355 221.995710978 353.003674054 219.012859188 351 212 c 1
 346.99954192 213.000114519 345.000076354 214 343 214 c 0
 337 215 333 215 329 214 c 0
 326.652587854 214 312 209.748891214 312 198 c 2
 312 191 l 2
 312 190.547230743 314.425244244 161.904207374 351 168 c 1
 351 161 l 1
 346.9699008 161 344.363432534 158 342 158 c 0
 337 157 333 157 329 157 c 0
 300.083870765 157 291.149491249 196.149491249 308 213 c 1
 289 213 l 1
 289 176 l 1
 284.561899482 158.247597927 262.33015148 157 262 157 c 0
 244.218109567 157 242 171.50638608 242 177 c 2
 242 213 l 1
 229 213 l 1
 229 129 l 1
 225 127 221 125 216 124 c 1
 216 213 l 1
 203 213 l 1
 203 160 l 1
 199 158 196 157 191 156 c 1
 191 213 l 1
 177 213 l 1
 177 171 l 1
 179 168 180 166 180 166 c 2
 180.999941438 164.000117121 182 162.999980484 182 162 c 2
 181 161 l 1
 181 160 l 1
 177 158 172 157 167 156 c 1
 167 157 166 158 166 159 c 2
 166 161 l 1
 161.717585335 158.858792669 149.404114667 156 143 156 c 0
 123.635992071 156 123 177.212267809 123 180 c 2
 123 213 l 1
 109 213 l 1
 109 176 l 1
 104.603374432 158.413497727 83.3220248438 157 83 157 c 0
 71.6865756192 154.737315124 62 164.635301355 62 177 c 2
 62 213 l 1
 39 213 l 2
 38.7577039597 213 36 213.968377223 36 214 c 0
 36 217.949404762 36 219.285714286 52 233 c 1
 54.0013935618 229.997909658 56.9970739294 227.003901426 60 223 c 1
 165 223 l 1
 165 241 l 1x371e08c680
 159 247 159 247 159 248 c 0x371e01
 160.183760684 250.367521368 160.555555556 251.111111111 175 254 c 0
 176 254 176 255 176 255 c 1
 177 255 l 1
 177 223 l 1
 216 223 l 1
 216 241 l 2x371e0084
402 239 m 1x301e000008
 402 140 l 1
 381 140 l 1
 381 239 l 1
 402 239 l 1x301e000008
86 167 m 0x361e
 91.9892492364 167 97 169.760915139 97 179 c 2
 97 213 l 1
 75 213 l 1
 75 202.333333333 75 191.666666667 75 181 c 0
 75 167.314333178 85.0744477518 167 86 167 c 0x361e
135 213 m 1x361e0880
 135 183 l 2
 135 180.355062793 138.779863617 170.110068191 143 168 c 0
 146 167 149 167 154 167 c 2
 158 167 l 1
 160 168 163 170 165 172 c 1
 165 213 l 1
 135 213 l 1x361e0880
266 167 m 0
 269.691736582 167 277 168.34552206 277 179 c 2
 277 213 l 1
 255 213 l 1
 255 184 l 2x361e000280
 255 179.060606061 255 167 266 167 c 0
189 147 m 2
 189 147 189 147 197 143 c 1x301e0020
 197 143 200 144 204 146 c 0
 204.5 146 204.5 146.25 204.5 146.5 c 0
 204.5 146.75 204.5 147 205 147 c 0
 206 147 207 147 207 146 c 2
 207 143 l 1x301e0010
 200.5 129.999999999 200.5 129.999999999 199 126 c 1
 199 124 l 2
 199 123 198 122 198 122 c 2
 197 121 196 121 196 122 c 0
 195.163118998 124.510643004 193.743119525 127.68585836 186 145 c 1
 186 146 l 2
 186 147 188 147 189 147 c 2
402 119 m 1x301e000008
 402 17 l 1
 381 17 l 1
 381 119 l 1
 402 119 l 1x301e000008
402 -5 m 1
 402 -101 l 1
 381 -101 l 1
 381 -5 l 1
 402 -5 l 1
402 -123 m 1
 402 -235 l 1xb01e000020
 313 -235 l 1
 313 -214 l 1x701e000020
 381 -214 l 1x701e000008
 381 -123 l 1
 402 -123 l 1
104 -214 m 1x701e10
 193 -214 l 1
 193 -235 l 1
 104 -235 l 1
 104 -214 l 1x701e10
209 -214 m 1x701e0008
 297 -214 l 1
 297 -235 l 1
 209 -235 l 1
 209 -214 l 1x701e0008
EndSplineSet
Validated: 524321
EndChar

StartChar: D
Encoding: 68 68 4
Width: 402
Flags: W
HStem: -235 107<0 21 381 402> -235 21<21 88 104 193 209 297 313 381> -106 96<0 21 381 402> 17 102<0 21 381 402> 135 99<0 21 381 402> 157 10<77.3648 95.524 143.141 164.856 257.262 275.236> 213 10<56.0142 62 75 97 109 123 135 165 177 191 203 216 229 242 255 277 289 308 316.76 348 348.001 350.814> 255 107<0 21 381 402> 285 11<141.114 163.315> 310 11<335 359.886> 342 10<78.0239 93.9219 127 142.956 183.008 196.922 215.622 244.809 282 297 309 322.922> 383 96<0 21 381 402> 506 101<0 21 381 402> 623 21G<0 21 381 402> 713 22<21 88 104 193 209 297 313 381>
VStem: 0 88<-235 -214 713 735> 0 21<-214 -128 -106 -10 12 113 135 234 255 362 383 479 501 601 623 713> 66 12<167.368 213 286.341 342> 94 12<167.161 213 256.124 341.837> 104 89<-235 -214 713 735> 123 12<169.729 213> 129 13<259.114 267.957> 146 13<312.011 340.534> 159 18<241.277 252.474> 165 12<158.119 161 167.538 213 223 247.954 286.341 295 298.733 342> 191 12<157.231 213> 197 12<255.054 288.266 297 337.764> 204.5 2.5<146 146.981> 209 88<-235 -214 713 735> 216 13<125.803 213 223 250> 242 13<168.258 213> 270 12<254.607 342> 277 12<168.232 213> 297 12<287.124 342> 313 89<-235 -214 713 735> 323 12<255.054 311 320 342> 381 21<-214 -123 -101 -5 17 119 140 239 261 367 389 484 506 607 628 713>
LayerCount: 2
Fore
SplineSet
0 601 m 1x301e80
 21 602 l 1
 21 501 l 1
 0 500 l 1
 0 601 l 1x301e80
0 479 m 1
 21 479 l 1
 21 383 l 1
 0 383 l 1
 0 479 l 1
0 362 m 1x311e80
 21 362 l 1
 21 255 l 1
 0 255 l 1
 0 362 l 1x311e80
0 234 m 1x381e80
 21 234 l 1
 21 135 l 1
 0 135 l 1
 0 234 l 1x381e80
0 113 m 1
 21 114 l 1
 21 12 l 1
 0 12 l 1
 0 113 l 1
0 -10 m 1
 21 -10 l 1
 21 -106 l 1
 0 -106 l 1
 0 -10 l 1
0 -128 m 1xb01e80
 21 -128 l 1xb01e80
 21 -214 l 1x701e80
 88 -214 l 1
 88 -235 l 1x701f
 0 -235 l 1xb01f
 0 -128 l 1xb01e80
0 735 m 1x301f
 88 735 l 1
 88 713 l 1x301f
 21 713 l 1
 21 623 l 1
 0 623 l 1x301e80
 -0 660.333333333 0 697.666666667 0 735 c 1x301f
104 735 m 1x301e10
 193 735 l 1
 193 713 l 1
 104 713 l 1
 104 735 l 1x301e10
209 735 m 1x301e0008
 297 735 l 1
 297 713 l 1
 209 713 l 1
 209 735 l 1x301e0008
313 735 m 1x301e000020
 402 735 l 1x301e000020
 402 628 l 1
 381 628 l 1
 381 713 l 1x301e000008
 313 713 l 1
 313 735 l 1x301e000020
402 607 m 1x301e000008
 402 506 l 1
 381 506 l 1
 381 607 l 1
 402 607 l 1x301e000008
402 484 m 1
 402 389 l 1
 381 388 l 1
 381 484 l 1
 402 484 l 1
402 367 m 1
 402 261 l 1
 381 260 l 1
 381 367 l 1
 402 367 l 1
165 350 m 2x30be0aa0
 165.999999989 350.999999989 165.999999989 350.999999989 180 358 c 1
 180 359 l 1
 182.145898011 356.854101989 182.145898011 356.854101989 184 352 c 1
 195 352 l 1
 198.000000076 353.000000025 198.000000076 353.000000025 210 356 c 1
 210 345 l 1
 218 348 226 351 233 353 c 1
 239 353 l 2
 265.411490037 353 271.742515539 311.889649517 230 294 c 0
 225.330208697 292.301894072 209.213190056 286.071063352 209 286 c 2
 209 258 l 1
 200.333333315 253.666666663 200.333333315 253.666666663 197 253 c 1
 197 342 l 1
 183 342 l 1
 183 289 l 1
 179 287 175 286 171 285 c 1
 171 295 l 1
 169 294 167 292 165 291 c 0
 159.018023693 288.009011847 152.909609986 286.969869996 147 285 c 0
 139.866666667 285 121.5 285 114 300 c 1
 114 304 l 1
 124.499999995 307 124.499999995 307 125 307 c 0
 139.611138208 307 146 317.036540872 146 327 c 0
 146 332.97660152 143.732058483 344 127 344 c 1
 127 350 l 1
 131.356525113 350 133.199030442 353 135 353 c 2
 138 353 l 2
 140.081371122 353 159 352.3040263 159 327 c 0
 159 307.666666667 143.534482759 302.511494253 133 299 c 1
 142 296 142 296 143 296 c 0
 154.812430626 293.637513875 167.591626881 301.774880642 171 312 c 1
 171 341 l 2
 170.929289322 341.070710678 165 347.878070303 165 349 c 2
 165 350 l 2x30be0aa0
60 350 m 2
 60.9999999934 350.999999993 60.9999999934 350.999999993 75 358 c 0
 75.2195208028 357.780479197 78.9677509689 352.064498062 79 352 c 2
 92 352 l 1
 95.0000000762 353.000000025 95.0000000762 353.000000025 107 356 c 1
 106 352 106 347 106 341 c 2
 106 258 l 1
 97.3333333148 253.666666663 97.3333333148 253.666666663 94 253 c 1
 94 342 l 1
 78 342 l 1
 78 289 l 1
 74 287 70 286 66 285 c 1
 66 341 l 1x30be60
 61.8449005274 347.232649209 60 347.090878838 60 349 c 2
 60 350 l 2
264 351 m 0
 268.307250536 353.584350322 277.86 357.93 278 358 c 0
 280.000000005 355.999999995 280.000000005 355.999999995 282 352 c 1
 321 352 l 1
 324.000000076 353.000000025 324.000000076 353.000000025 336 356 c 1
 336 353.000000001 335 350.000000003 335 345 c 2
 335 320 l 1
 338 320 l 2
 344.00000001 320 349.999999995 321 355 321 c 2
 361 321 l 1
 361 320 360 316 358 309 c 0
 357 309 354.999999998 310 353 310 c 0
 350.999999998 310 343.999999993 311 335 311 c 1
 335 258 l 1
 326.333333315 253.666666663 326.333333315 253.666666663 323 253 c 1
 323 342 l 1
 309 342 l 1
 309 289 l 1
 300.333333315 284.666666663 300.333333315 284.666666663 297 284 c 1
 297 342 l 1
 282 342 l 1
 282 258 l 1
 273.333333315 253.666666663 273.333333315 253.666666663 270 253 c 1
 270 341 l 1x307e000150
 264 347 264 347 264 349 c 0
 264 349.666666667 264 350.333333333 264 351 c 0
213 298 m 0
 244.35703691 303.226172818 246 326.560682347 246 327 c 0
 246.968995753 329.906987259 250.264047687 343 231 343 c 0
 224.114647695 343 211.514493559 336.514493559 209 334 c 1
 209 297 l 1x301e0020
 210 297 212 298 213 298 c 0
146 275 m 0x311e06
 147 275 147 276 148 276 c 0
 149 276 150 276 150 275 c 2
 150 272 l 2
 149.500000004 270.000000014 149.500000004 270.000000014 142 255 c 1
 142 253 l 2
 142 252 141 251 141 251 c 2
 139.5 249.5 139.5 249.5 139 250 c 0
 136.292006525 258.123980424 129 273.74 129 274 c 2
 129 275 l 2
 129 276 131 276 132 276 c 0
 132.094339811 276 133.514592311 274.242703844 140 271 c 0
 141 271 141 273 142 273 c 0
 144.580783109 273 143.419216891 275 146 275 c 0x311e06
216 241 m 2x371e0084
 215.939172375 241.060827625 211 247.387270629 211 248 c 2
 211 250 l 1
 212 250 l 1
 218 252 224 254 229 255 c 1
 229 223 l 1
 348 223 l 1
 348 223 350 224 352 224 c 0
 354 224 355 223 355 223 c 2
 355 221.995710978 353.003674054 219.012859188 351 212 c 1
 346.99954192 213.000114519 345.000076354 214 343 214 c 0
 337 215 333 215 329 214 c 0
 326.652587854 214 312 209.748891214 312 198 c 2
 312 191 l 2
 312 190.547230743 314.425244244 161.904207374 351 168 c 1
 351 161 l 1
 346.9699008 161 344.363432534 158 342 158 c 0
 337 157 333 157 329 157 c 0
 300.083870765 157 291.149491249 196.149491249 308 213 c 1
 289 213 l 1
 289 176 l 1
 284.561899482 158.247597927 262.33015148 157 262 157 c 0
 244.218109567 157 242 171.50638608 242 177 c 2
 242 213 l 1
 229 213 l 1
 229 129 l 1
 225 127 221 125 216 124 c 1
 216 213 l 1
 203 213 l 1
 203 160 l 1
 199 158 196 157 191 156 c 1
 191 213 l 1
 177 213 l 1
 177 171 l 1
 179 168 180 166 180 166 c 2
 180.999941438 164.000117121 182 162.999980484 182 162 c 2
 181 161 l 1
 181 160 l 1
 177 158 172 157 167 156 c 1
 167 157 166 158 166 159 c 2
 166 161 l 1
 161.717585335 158.858792669 149.404114667 156 143 156 c 0
 123.635992071 156 123 177.212267809 123 180 c 2
 123 213 l 1
 109 213 l 1
 109 176 l 1
 104.603374432 158.413497727 83.3220248438 157 83 157 c 0
 71.6865756192 154.737315124 62 164.635301355 62 177 c 2
 62 213 l 1
 39 213 l 2
 38.7577039597 213 36 213.968377223 36 214 c 0
 36 217.949404762 36 219.285714286 52 233 c 1
 54.0013935618 229.997909658 56.9970739294 227.003901426 60 223 c 1
 165 223 l 1
 165 241 l 1x371e08c680
 159 247 159 247 159 248 c 0x371e01
 160.183760684 250.367521368 160.555555556 251.111111111 175 254 c 0
 176 254 176 255 176 255 c 1
 177 255 l 1
 177 223 l 1
 216 223 l 1
 216 241 l 2x371e0084
402 239 m 1x301e000008
 402 140 l 1
 381 140 l 1
 381 239 l 1
 402 239 l 1x301e000008
86 167 m 0x361e
 91.9892492364 167 97 169.760915139 97 179 c 2
 97 213 l 1
 75 213 l 1
 75 202.333333333 75 191.666666667 75 181 c 0
 75 167.314333178 85.0744477518 167 86 167 c 0x361e
135 213 m 1x361e0880
 135 183 l 2
 135 180.355062793 138.779863617 170.110068191 143 168 c 0
 146 167 149 167 154 167 c 2
 158 167 l 1
 160 168 163 170 165 172 c 1
 165 213 l 1
 135 213 l 1x361e0880
266 167 m 0
 269.691736582 167 277 168.34552206 277 179 c 2
 277 213 l 1
 255 213 l 1
 255 184 l 2x361e000280
 255 179.060606061 255 167 266 167 c 0
189 147 m 2
 189 147 189 147 197 143 c 1x301e0020
 197 143 200 144 204 146 c 0
 204.5 146 204.5 146.25 204.5 146.5 c 0
 204.5 146.75 204.5 147 205 147 c 0
 206 147 207 147 207 146 c 2
 207 143 l 1x301e0010
 200.5 129.999999999 200.5 129.999999999 199 126 c 1
 199 124 l 2
 199 123 198 122 198 122 c 2
 197 121 196 121 196 122 c 0
 195.163118998 124.510643004 193.743119525 127.68585836 186 145 c 1
 186 146 l 2
 186 147 188 147 189 147 c 2
402 119 m 1x301e000008
 402 17 l 1
 381 17 l 1
 381 119 l 1
 402 119 l 1x301e000008
402 -5 m 1
 402 -101 l 1
 381 -101 l 1
 381 -5 l 1
 402 -5 l 1
402 -123 m 1
 402 -235 l 1xb01e000020
 313 -235 l 1
 313 -214 l 1x701e000020
 381 -214 l 1x701e000008
 381 -123 l 1
 402 -123 l 1
104 -214 m 1x701e10
 193 -214 l 1
 193 -235 l 1
 104 -235 l 1
 104 -214 l 1x701e10
209 -214 m 1x701e0008
 297 -214 l 1
 297 -235 l 1
 209 -235 l 1
 209 -214 l 1x701e0008
EndSplineSet
Validated: 524321
EndChar

StartChar: E
Encoding: 69 69 5
Width: 402
Flags: W
HStem: -235 107<0 21 381 402> -235 21<21 88 104 193 209 297 313 381> -106 96<0 21 381 402> 17 102<0 21 381 402> 135 99<0 21 381 402> 157 10<77.3648 95.524 143.141 164.856 257.262 275.236> 213 10<56.0142 62 75 97 109 123 135 165 177 191 203 216 229 242 255 277 289 308 316.76 348 348.001 350.814> 255 107<0 21 381 402> 285 11<141.114 163.315> 310 11<335 359.886> 342 10<78.0239 93.9219 127 142.956 183.008 196.922 215.622 244.809 282 297 309 322.922> 383 96<0 21 381 402> 506 101<0 21 381 402> 623 21G<0 21 381 402> 713 22<21 88 104 193 209 297 313 381>
VStem: 0 88<-235 -214 713 735> 0 21<-214 -128 -106 -10 12 113 135 234 255 362 383 479 501 601 623 713> 66 12<167.368 213 286.341 342> 94 12<167.161 213 256.124 341.837> 104 89<-235 -214 713 735> 123 12<169.729 213> 129 13<259.114 267.957> 146 13<312.011 340.534> 159 18<241.277 252.474> 165 12<158.119 161 167.538 213 223 247.954 286.341 295 298.733 342> 191 12<157.231 213> 197 12<255.054 288.266 297 337.764> 204.5 2.5<146 146.981> 209 88<-235 -214 713 735> 216 13<125.803 213 223 250> 242 13<168.258 213> 270 12<254.607 342> 277 12<168.232 213> 297 12<287.124 342> 313 89<-235 -214 713 735> 323 12<255.054 311 320 342> 381 21<-214 -123 -101 -5 17 119 140 239 261 367 389 484 506 607 628 713>
LayerCount: 2
Fore
SplineSet
0 601 m 1x301e80
 21 602 l 1
 21 501 l 1
 0 500 l 1
 0 601 l 1x301e80
0 479 m 1
 21 479 l 1
 21 383 l 1
 0 383 l 1
 0 479 l 1
0 362 m 1x311e80
 21 362 l 1
 21 255 l 1
 0 255 l 1
 0 362 l 1x311e80
0 234 m 1x381e80
 21 234 l 1
 21 135 l 1
 0 135 l 1
 0 234 l 1x381e80
0 113 m 1
 21 114 l 1
 21 12 l 1
 0 12 l 1
 0 113 l 1
0 -10 m 1
 21 -10 l 1
 21 -106 l 1
 0 -106 l 1
 0 -10 l 1
0 -128 m 1xb01e80
 21 -128 l 1xb01e80
 21 -214 l 1x701e80
 88 -214 l 1
 88 -235 l 1x701f
 0 -235 l 1xb01f
 0 -128 l 1xb01e80
0 735 m 1x301f
 88 735 l 1
 88 713 l 1x301f
 21 713 l 1
 21 623 l 1
 0 623 l 1x301e80
 -0 660.333333333 0 697.666666667 0 735 c 1x301f
104 735 m 1x301e10
 193 735 l 1
 193 713 l 1
 104 713 l 1
 104 735 l 1x301e10
209 735 m 1x301e0008
 297 735 l 1
 297 713 l 1
 209 713 l 1
 209 735 l 1x301e0008
313 735 m 1x301e000020
 402 735 l 1x301e000020
 402 628 l 1
 381 628 l 1
 381 713 l 1x301e000008
 313 713 l 1
 313 735 l 1x301e000020
402 607 m 1x301e000008
 402 506 l 1
 381 506 l 1
 381 607 l 1
 402 607 l 1x301e000008
402 484 m 1
 402 389 l 1
 381 388 l 1
 381 484 l 1
 402 484 l 1
402 367 m 1
 402 261 l 1
 381 260 l 1
 381 367 l 1
 402 367 l 1
165 350 m 2x30be0aa0
 165.999999989 350.999999989 165.999999989 350.999999989 180 358 c 1
 180 359 l 1
 182.145898011 356.854101989 182.145898011 356.854101989 184 352 c 1
 195 352 l 1
 198.000000076 353.000000025 198.000000076 353.000000025 210 356 c 1
 210 345 l 1
 218 348 226 351 233 353 c 1
 239 353 l 2
 265.411490037 353 271.742515539 311.889649517 230 294 c 0
 225.330208697 292.301894072 209.213190056 286.071063352 209 286 c 2
 209 258 l 1
 200.333333315 253.666666663 200.333333315 253.666666663 197 253 c 1
 197 342 l 1
 183 342 l 1
 183 289 l 1
 179 287 175 286 171 285 c 1
 171 295 l 1
 169 294 167 292 165 291 c 0
 159.018023693 288.009011847 152.909609986 286.969869996 147 285 c 0
 139.866666667 285 121.5 285 114 300 c 1
 114 304 l 1
 124.499999995 307 124.499999995 307 125 307 c 0
 139.611138208 307 146 317.036540872 146 327 c 0
 146 332.97660152 143.732058483 344 127 344 c 1
 127 350 l 1
 131.356525113 350 133.199030442 353 135 353 c 2
 138 353 l 2
 140.081371122 353 159 352.3040263 159 327 c 0
 159 307.666666667 143.534482759 302.511494253 133 299 c 1
 142 296 142 296 143 296 c 0
 154.812430626 293.637513875 167.591626881 301.774880642 171 312 c 1
 171 341 l 2
 170.929289322 341.070710678 165 347.878070303 165 349 c 2
 165 350 l 2x30be0aa0
60 350 m 2
 60.9999999934 350.999999993 60.9999999934 350.999999993 75 358 c 0
 75.2195208028 357.780479197 78.9677509689 352.064498062 79 352 c 2
 92 352 l 1
 95.0000000762 353.000000025 95.0000000762 353.000000025 107 356 c 1
 106 352 106 347 106 341 c 2
 106 258 l 1
 97.3333333148 253.666666663 97.3333333148 253.666666663 94 253 c 1
 94 342 l 1
 78 342 l 1
 78 289 l 1
 74 287 70 286 66 285 c 1
 66 341 l 1x30be60
 61.8449005274 347.232649209 60 347.090878838 60 349 c 2
 60 350 l 2
264 351 m 0
 268.307250536 353.584350322 277.86 357.93 278 358 c 0
 280.000000005 355.999999995 280.000000005 355.999999995 282 352 c 1
 321 352 l 1
 324.000000076 353.000000025 324.000000076 353.000000025 336 356 c 1
 336 353.000000001 335 350.000000003 335 345 c 2
 335 320 l 1
 338 320 l 2
 344.00000001 320 349.999999995 321 355 321 c 2
 361 321 l 1
 361 320 360 316 358 309 c 0
 357 309 354.999999998 310 353 310 c 0
 350.999999998 310 343.999999993 311 335 311 c 1
 335 258 l 1
 326.333333315 253.666666663 326.333333315 253.666666663 323 253 c 1
 323 342 l 1
 309 342 l 1
 309 289 l 1
 300.333333315 284.666666663 300.333333315 284.666666663 297 284 c 1
 297 342 l 1
 282 342 l 1
 282 258 l 1
 273.333333315 253.666666663 273.333333315 253.666666663 270 253 c 1
 270 341 l 1x307e000150
 264 347 264 347 264 349 c 0
 264 349.666666667 264 350.333333333 264 351 c 0
213 298 m 0
 244.35703691 303.226172818 246 326.560682347 246 327 c 0
 246.968995753 329.906987259 250.264047687 343 231 343 c 0
 224.114647695 343 211.514493559 336.514493559 209 334 c 1
 209 297 l 1x301e0020
 210 297 212 298 213 298 c 0
146 275 m 0x311e06
 147 275 147 276 148 276 c 0
 149 276 150 276 150 275 c 2
 150 272 l 2
 149.500000004 270.000000014 149.500000004 270.000000014 142 255 c 1
 142 253 l 2
 142 252 141 251 141 251 c 2
 139.5 249.5 139.5 249.5 139 250 c 0
 136.292006525 258.123980424 129 273.74 129 274 c 2
 129 275 l 2
 129 276 131 276 132 276 c 0
 132.094339811 276 133.514592311 274.242703844 140 271 c 0
 141 271 141 273 142 273 c 0
 144.580783109 273 143.419216891 275 146 275 c 0x311e06
216 241 m 2x371e0084
 215.939172375 241.060827625 211 247.387270629 211 248 c 2
 211 250 l 1
 212 250 l 1
 218 252 224 254 229 255 c 1
 229 223 l 1
 348 223 l 1
 348 223 350 224 352 224 c 0
 354 224 355 223 355 223 c 2
 355 221.995710978 353.003674054 219.012859188 351 212 c 1
 346.99954192 213.000114519 345.000076354 214 343 214 c 0
 337 215 333 215 329 214 c 0
 326.652587854 214 312 209.748891214 312 198 c 2
 312 191 l 2
 312 190.547230743 314.425244244 161.904207374 351 168 c 1
 351 161 l 1
 346.9699008 161 344.363432534 158 342 158 c 0
 337 157 333 157 329 157 c 0
 300.083870765 157 291.149491249 196.149491249 308 213 c 1
 289 213 l 1
 289 176 l 1
 284.561899482 158.247597927 262.33015148 157 262 157 c 0
 244.218109567 157 242 171.50638608 242 177 c 2
 242 213 l 1
 229 213 l 1
 229 129 l 1
 225 127 221 125 216 124 c 1
 216 213 l 1
 203 213 l 1
 203 160 l 1
 199 158 196 157 191 156 c 1
 191 213 l 1
 177 213 l 1
 177 171 l 1
 179 168 180 166 180 166 c 2
 180.999941438 164.000117121 182 162.999980484 182 162 c 2
 181 161 l 1
 181 160 l 1
 177 158 172 157 167 156 c 1
 167 157 166 158 166 159 c 2
 166 161 l 1
 161.717585335 158.858792669 149.404114667 156 143 156 c 0
 123.635992071 156 123 177.212267809 123 180 c 2
 123 213 l 1
 109 213 l 1
 109 176 l 1
 104.603374432 158.413497727 83.3220248438 157 83 157 c 0
 71.6865756192 154.737315124 62 164.635301355 62 177 c 2
 62 213 l 1
 39 213 l 2
 38.7577039597 213 36 213.968377223 36 214 c 0
 36 217.949404762 36 219.285714286 52 233 c 1
 54.0013935618 229.997909658 56.9970739294 227.003901426 60 223 c 1
 165 223 l 1
 165 241 l 1x371e08c680
 159 247 159 247 159 248 c 0x371e01
 160.183760684 250.367521368 160.555555556 251.111111111 175 254 c 0
 176 254 176 255 176 255 c 1
 177 255 l 1
 177 223 l 1
 216 223 l 1
 216 241 l 2x371e0084
402 239 m 1x301e000008
 402 140 l 1
 381 140 l 1
 381 239 l 1
 402 239 l 1x301e000008
86 167 m 0x361e
 91.9892492364 167 97 169.760915139 97 179 c 2
 97 213 l 1
 75 213 l 1
 75 202.333333333 75 191.666666667 75 181 c 0
 75 167.314333178 85.0744477518 167 86 167 c 0x361e
135 213 m 1x361e0880
 135 183 l 2
 135 180.355062793 138.779863617 170.110068191 143 168 c 0
 146 167 149 167 154 167 c 2
 158 167 l 1
 160 168 163 170 165 172 c 1
 165 213 l 1
 135 213 l 1x361e0880
266 167 m 0
 269.691736582 167 277 168.34552206 277 179 c 2
 277 213 l 1
 255 213 l 1
 255 184 l 2x361e000280
 255 179.060606061 255 167 266 167 c 0
189 147 m 2
 189 147 189 147 197 143 c 1x301e0020
 197 143 200 144 204 146 c 0
 204.5 146 204.5 146.25 204.5 146.5 c 0
 204.5 146.75 204.5 147 205 147 c 0
 206 147 207 147 207 146 c 2
 207 143 l 1x301e0010
 200.5 129.999999999 200.5 129.999999999 199 126 c 1
 199 124 l 2
 199 123 198 122 198 122 c 2
 197 121 196 121 196 122 c 0
 195.163118998 124.510643004 193.743119525 127.68585836 186 145 c 1
 186 146 l 2
 186 147 188 147 189 147 c 2
402 119 m 1x301e000008
 402 17 l 1
 381 17 l 1
 381 119 l 1
 402 119 l 1x301e000008
402 -5 m 1
 402 -101 l 1
 381 -101 l 1
 381 -5 l 1
 402 -5 l 1
402 -123 m 1
 402 -235 l 1xb01e000020
 313 -235 l 1
 313 -214 l 1x701e000020
 381 -214 l 1x701e000008
 381 -123 l 1
 402 -123 l 1
104 -214 m 1x701e10
 193 -214 l 1
 193 -235 l 1
 104 -235 l 1
 104 -214 l 1x701e10
209 -214 m 1x701e0008
 297 -214 l 1
 297 -235 l 1
 209 -235 l 1
 209 -214 l 1x701e0008
EndSplineSet
Validated: 524321
EndChar

StartChar: F
Encoding: 70 70 6
Width: 402
Flags: W
HStem: -235 107<0 21 381 402> -235 21<21 88 104 193 209 297 313 381> -106 96<0 21 381 402> 17 102<0 21 381 402> 135 99<0 21 381 402> 157 10<77.3648 95.524 143.141 164.856 257.262 275.236> 213 10<56.0142 62 75 97 109 123 135 165 177 191 203 216 229 242 255 277 289 308 316.76 348 348.001 350.814> 255 107<0 21 381 402> 285 11<141.114 163.315> 310 11<335 359.886> 342 10<78.0239 93.9219 127 142.956 183.008 196.922 215.622 244.809 282 297 309 322.922> 383 96<0 21 381 402> 506 101<0 21 381 402> 623 21G<0 21 381 402> 713 22<21 88 104 193 209 297 313 381>
VStem: 0 88<-235 -214 713 735> 0 21<-214 -128 -106 -10 12 113 135 234 255 362 383 479 501 601 623 713> 66 12<167.368 213 286.341 342> 94 12<167.161 213 256.124 341.837> 104 89<-235 -214 713 735> 123 12<169.729 213> 129 13<259.114 267.957> 146 13<312.011 340.534> 159 18<241.277 252.474> 165 12<158.119 161 167.538 213 223 247.954 286.341 295 298.733 342> 191 12<157.231 213> 197 12<255.054 288.266 297 337.764> 204.5 2.5<146 146.981> 209 88<-235 -214 713 735> 216 13<125.803 213 223 250> 242 13<168.258 213> 270 12<254.607 342> 277 12<168.232 213> 297 12<287.124 342> 313 89<-235 -214 713 735> 323 12<255.054 311 320 342> 381 21<-214 -123 -101 -5 17 119 140 239 261 367 389 484 506 607 628 713>
LayerCount: 2
Fore
SplineSet
0 601 m 1x301e80
 21 602 l 1
 21 501 l 1
 0 500 l 1
 0 601 l 1x301e80
0 479 m 1
 21 479 l 1
 21 383 l 1
 0 383 l 1
 0 479 l 1
0 362 m 1x311e80
 21 362 l 1
 21 255 l 1
 0 255 l 1
 0 362 l 1x311e80
0 234 m 1x381e80
 21 234 l 1
 21 135 l 1
 0 135 l 1
 0 234 l 1x381e80
0 113 m 1
 21 114 l 1
 21 12 l 1
 0 12 l 1
 0 113 l 1
0 -10 m 1
 21 -10 l 1
 21 -106 l 1
 0 -106 l 1
 0 -10 l 1
0 -128 m 1xb01e80
 21 -128 l 1xb01e80
 21 -214 l 1x701e80
 88 -214 l 1
 88 -235 l 1x701f
 0 -235 l 1xb01f
 0 -128 l 1xb01e80
0 735 m 1x301f
 88 735 l 1
 88 713 l 1x301f
 21 713 l 1
 21 623 l 1
 0 623 l 1x301e80
 -0 660.333333333 0 697.666666667 0 735 c 1x301f
104 735 m 1x301e10
 193 735 l 1
 193 713 l 1
 104 713 l 1
 104 735 l 1x301e10
209 735 m 1x301e0008
 297 735 l 1
 297 713 l 1
 209 713 l 1
 209 735 l 1x301e0008
313 735 m 1x301e000020
 402 735 l 1x301e000020
 402 628 l 1
 381 628 l 1
 381 713 l 1x301e000008
 313 713 l 1
 313 735 l 1x301e000020
402 607 m 1x301e000008
 402 506 l 1
 381 506 l 1
 381 607 l 1
 402 607 l 1x301e000008
402 484 m 1
 402 389 l 1
 381 388 l 1
 381 484 l 1
 402 484 l 1
402 367 m 1
 402 261 l 1
 381 260 l 1
 381 367 l 1
 402 367 l 1
165 350 m 2x30be0aa0
 165.999999989 350.999999989 165.999999989 350.999999989 180 358 c 1
 180 359 l 1
 182.145898011 356.854101989 182.145898011 356.854101989 184 352 c 1
 195 352 l 1
 198.000000076 353.000000025 198.000000076 353.000000025 210 356 c 1
 210 345 l 1
 218 348 226 351 233 353 c 1
 239 353 l 2
 265.411490037 353 271.742515539 311.889649517 230 294 c 0
 225.330208697 292.301894072 209.213190056 286.071063352 209 286 c 2
 209 258 l 1
 200.333333315 253.666666663 200.333333315 253.666666663 197 253 c 1
 197 342 l 1
 183 342 l 1
 183 289 l 1
 179 287 175 286 171 285 c 1
 171 295 l 1
 169 294 167 292 165 291 c 0
 159.018023693 288.009011847 152.909609986 286.969869996 147 285 c 0
 139.866666667 285 121.5 285 114 300 c 1
 114 304 l 1
 124.499999995 307 124.499999995 307 125 307 c 0
 139.611138208 307 146 317.036540872 146 327 c 0
 146 332.97660152 143.732058483 344 127 344 c 1
 127 350 l 1
 131.356525113 350 133.199030442 353 135 353 c 2
 138 353 l 2
 140.081371122 353 159 352.3040263 159 327 c 0
 159 307.666666667 143.534482759 302.511494253 133 299 c 1
 142 296 142 296 143 296 c 0
 154.812430626 293.637513875 167.591626881 301.774880642 171 312 c 1
 171 341 l 2
 170.929289322 341.070710678 165 347.878070303 165 349 c 2
 165 350 l 2x30be0aa0
60 350 m 2
 60.9999999934 350.999999993 60.9999999934 350.999999993 75 358 c 0
 75.2195208028 357.780479197 78.9677509689 352.064498062 79 352 c 2
 92 352 l 1
 95.0000000762 353.000000025 95.0000000762 353.000000025 107 356 c 1
 106 352 106 347 106 341 c 2
 106 258 l 1
 97.3333333148 253.666666663 97.3333333148 253.666666663 94 253 c 1
 94 342 l 1
 78 342 l 1
 78 289 l 1
 74 287 70 286 66 285 c 1
 66 341 l 1x30be60
 61.8449005274 347.232649209 60 347.090878838 60 349 c 2
 60 350 l 2
264 351 m 0
 268.307250536 353.584350322 277.86 357.93 278 358 c 0
 280.000000005 355.999999995 280.000000005 355.999999995 282 352 c 1
 321 352 l 1
 324.000000076 353.000000025 324.000000076 353.000000025 336 356 c 1
 336 353.000000001 335 350.000000003 335 345 c 2
 335 320 l 1
 338 320 l 2
 344.00000001 320 349.999999995 321 355 321 c 2
 361 321 l 1
 361 320 360 316 358 309 c 0
 357 309 354.999999998 310 353 310 c 0
 350.999999998 310 343.999999993 311 335 311 c 1
 335 258 l 1
 326.333333315 253.666666663 326.333333315 253.666666663 323 253 c 1
 323 342 l 1
 309 342 l 1
 309 289 l 1
 300.333333315 284.666666663 300.333333315 284.666666663 297 284 c 1
 297 342 l 1
 282 342 l 1
 282 258 l 1
 273.333333315 253.666666663 273.333333315 253.666666663 270 253 c 1
 270 341 l 1x307e000150
 264 347 264 347 264 349 c 0
 264 349.666666667 264 350.333333333 264 351 c 0
213 298 m 0
 244.35703691 303.226172818 246 326.560682347 246 327 c 0
 246.968995753 329.906987259 250.264047687 343 231 343 c 0
 224.114647695 343 211.514493559 336.514493559 209 334 c 1
 209 297 l 1x301e0020
 210 297 212 298 213 298 c 0
146 275 m 0x311e06
 147 275 147 276 148 276 c 0
 149 276 150 276 150 275 c 2
 150 272 l 2
 149.500000004 270.000000014 149.500000004 270.000000014 142 255 c 1
 142 253 l 2
 142 252 141 251 141 251 c 2
 139.5 249.5 139.5 249.5 139 250 c 0
 136.292006525 258.123980424 129 273.74 129 274 c 2
 129 275 l 2
 129 276 131 276 132 276 c 0
 132.094339811 276 133.514592311 274.242703844 140 271 c 0
 141 271 141 273 142 273 c 0
 144.580783109 273 143.419216891 275 146 275 c 0x311e06
216 241 m 2x371e0084
 215.939172375 241.060827625 211 247.387270629 211 248 c 2
 211 250 l 1
 212 250 l 1
 218 252 224 254 229 255 c 1
 229 223 l 1
 348 223 l 1
 348 223 350 224 352 224 c 0
 354 224 355 223 355 223 c 2
 355 221.995710978 353.003674054 219.012859188 351 212 c 1
 346.99954192 213.000114519 345.000076354 214 343 214 c 0
 337 215 333 215 329 214 c 0
 326.652587854 214 312 209.748891214 312 198 c 2
 312 191 l 2
 312 190.547230743 314.425244244 161.904207374 351 168 c 1
 351 161 l 1
 346.9699008 161 344.363432534 158 342 158 c 0
 337 157 333 157 329 157 c 0
 300.083870765 157 291.149491249 196.149491249 308 213 c 1
 289 213 l 1
 289 176 l 1
 284.561899482 158.247597927 262.33015148 157 262 157 c 0
 244.218109567 157 242 171.50638608 242 177 c 2
 242 213 l 1
 229 213 l 1
 229 129 l 1
 225 127 221 125 216 124 c 1
 216 213 l 1
 203 213 l 1
 203 160 l 1
 199 158 196 157 191 156 c 1
 191 213 l 1
 177 213 l 1
 177 171 l 1
 179 168 180 166 180 166 c 2
 180.999941438 164.000117121 182 162.999980484 182 162 c 2
 181 161 l 1
 181 160 l 1
 177 158 172 157 167 156 c 1
 167 157 166 158 166 159 c 2
 166 161 l 1
 161.717585335 158.858792669 149.404114667 156 143 156 c 0
 123.635992071 156 123 177.212267809 123 180 c 2
 123 213 l 1
 109 213 l 1
 109 176 l 1
 104.603374432 158.413497727 83.3220248438 157 83 157 c 0
 71.6865756192 154.737315124 62 164.635301355 62 177 c 2
 62 213 l 1
 39 213 l 2
 38.7577039597 213 36 213.968377223 36 214 c 0
 36 217.949404762 36 219.285714286 52 233 c 1
 54.0013935618 229.997909658 56.9970739294 227.003901426 60 223 c 1
 165 223 l 1
 165 241 l 1x371e08c680
 159 247 159 247 159 248 c 0x371e01
 160.183760684 250.367521368 160.555555556 251.111111111 175 254 c 0
 176 254 176 255 176 255 c 1
 177 255 l 1
 177 223 l 1
 216 223 l 1
 216 241 l 2x371e0084
402 239 m 1x301e000008
 402 140 l 1
 381 140 l 1
 381 239 l 1
 402 239 l 1x301e000008
86 167 m 0x361e
 91.9892492364 167 97 169.760915139 97 179 c 2
 97 213 l 1
 75 213 l 1
 75 202.333333333 75 191.666666667 75 181 c 0
 75 167.314333178 85.0744477518 167 86 167 c 0x361e
135 213 m 1x361e0880
 135 183 l 2
 135 180.355062793 138.779863617 170.110068191 143 168 c 0
 146 167 149 167 154 167 c 2
 158 167 l 1
 160 168 163 170 165 172 c 1
 165 213 l 1
 135 213 l 1x361e0880
266 167 m 0
 269.691736582 167 277 168.34552206 277 179 c 2
 277 213 l 1
 255 213 l 1
 255 184 l 2x361e000280
 255 179.060606061 255 167 266 167 c 0
189 147 m 2
 189 147 189 147 197 143 c 1x301e0020
 197 143 200 144 204 146 c 0
 204.5 146 204.5 146.25 204.5 146.5 c 0
 204.5 146.75 204.5 147 205 147 c 0
 206 147 207 147 207 146 c 2
 207 143 l 1x301e0010
 200.5 129.999999999 200.5 129.999999999 199 126 c 1
 199 124 l 2
 199 123 198 122 198 122 c 2
 197 121 196 121 196 122 c 0
 195.163118998 124.510643004 193.743119525 127.68585836 186 145 c 1
 186 146 l 2
 186 147 188 147 189 147 c 2
402 119 m 1x301e000008
 402 17 l 1
 381 17 l 1
 381 119 l 1
 402 119 l 1x301e000008
402 -5 m 1
 402 -101 l 1
 381 -101 l 1
 381 -5 l 1
 402 -5 l 1
402 -123 m 1
 402 -235 l 1xb01e000020
 313 -235 l 1
 313 -214 l 1x701e000020
 381 -214 l 1x701e000008
 381 -123 l 1
 402 -123 l 1
104 -214 m 1x701e10
 193 -214 l 1
 193 -235 l 1
 104 -235 l 1
 104 -214 l 1x701e10
209 -214 m 1x701e0008
 297 -214 l 1
 297 -235 l 1
 209 -235 l 1
 209 -214 l 1x701e0008
EndSplineSet
Validated: 524321
EndChar

StartChar: G
Encoding: 71 71 7
Width: 402
Flags: W
HStem: -235 107<0 21 381 402> -235 21<21 88 104 193 209 297 313 381> -106 96<0 21 381 402> 17 102<0 21 381 402> 135 99<0 21 381 402> 157 10<77.3648 95.524 143.141 164.856 257.262 275.236> 213 10<56.0142 62 75 97 109 123 135 165 177 191 203 216 229 242 255 277 289 308 316.76 348 348.001 350.814> 255 107<0 21 381 402> 285 11<141.114 163.315> 310 11<335 359.886> 342 10<78.0239 93.9219 127 142.956 183.008 196.922 215.622 244.809 282 297 309 322.922> 383 96<0 21 381 402> 506 101<0 21 381 402> 623 21G<0 21 381 402> 713 22<21 88 104 193 209 297 313 381>
VStem: 0 88<-235 -214 713 735> 0 21<-214 -128 -106 -10 12 113 135 234 255 362 383 479 501 601 623 713> 66 12<167.368 213 286.341 342> 94 12<167.161 213 256.124 341.837> 104 89<-235 -214 713 735> 123 12<169.729 213> 129 13<259.114 267.957> 146 13<312.011 340.534> 159 18<241.277 252.474> 165 12<158.119 161 167.538 213 223 247.954 286.341 295 298.733 342> 191 12<157.231 213> 197 12<255.054 288.266 297 337.764> 204.5 2.5<146 146.981> 209 88<-235 -214 713 735> 216 13<125.803 213 223 250> 242 13<168.258 213> 270 12<254.607 342> 277 12<168.232 213> 297 12<287.124 342> 313 89<-235 -214 713 735> 323 12<255.054 311 320 342> 381 21<-214 -123 -101 -5 17 119 140 239 261 367 389 484 506 607 628 713>
LayerCount: 2
Fore
SplineSet
0 601 m 1x301e80
 21 602 l 1
 21 501 l 1
 0 500 l 1
 0 601 l 1x301e80
0 479 m 1
 21 479 l 1
 21 383 l 1
 0 383 l 1
 0 479 l 1
0 362 m 1x311e80
 21 362 l 1
 21 255 l 1
 0 255 l 1
 0 362 l 1x311e80
0 234 m 1x381e80
 21 234 l 1
 21 135 l 1
 0 135 l 1
 0 234 l 1x381e80
0 113 m 1
 21 114 l 1
 21 12 l 1
 0 12 l 1
 0 113 l 1
0 -10 m 1
 21 -10 l 1
 21 -106 l 1
 0 -106 l 1
 0 -10 l 1
0 -128 m 1xb01e80
 21 -128 l 1xb01e80
 21 -214 l 1x701e80
 88 -214 l 1
 88 -235 l 1x701f
 0 -235 l 1xb01f
 0 -128 l 1xb01e80
0 735 m 1x301f
 88 735 l 1
 88 713 l 1x301f
 21 713 l 1
 21 623 l 1
 0 623 l 1x301e80
 -0 660.333333333 0 697.666666667 0 735 c 1x301f
104 735 m 1x301e10
 193 735 l 1
 193 713 l 1
 104 713 l 1
 104 735 l 1x301e10
209 735 m 1x301e0008
 297 735 l 1
 297 713 l 1
 209 713 l 1
 209 735 l 1x301e0008
313 735 m 1x301e000020
 402 735 l 1x301e000020
 402 628 l 1
 381 628 l 1
 381 713 l 1x301e000008
 313 713 l 1
 313 735 l 1x301e000020
402 607 m 1x301e000008
 402 506 l 1
 381 506 l 1
 381 607 l 1
 402 607 l 1x301e000008
402 484 m 1
 402 389 l 1
 381 388 l 1
 381 484 l 1
 402 484 l 1
402 367 m 1
 402 261 l 1
 381 260 l 1
 381 367 l 1
 402 367 l 1
165 350 m 2x30be0aa0
 165.999999989 350.999999989 165.999999989 350.999999989 180 358 c 1
 180 359 l 1
 182.145898011 356.854101989 182.145898011 356.854101989 184 352 c 1
 195 352 l 1
 198.000000076 353.000000025 198.000000076 353.000000025 210 356 c 1
 210 345 l 1
 218 348 226 351 233 353 c 1
 239 353 l 2
 265.411490037 353 271.742515539 311.889649517 230 294 c 0
 225.330208697 292.301894072 209.213190056 286.071063352 209 286 c 2
 209 258 l 1
 200.333333315 253.666666663 200.333333315 253.666666663 197 253 c 1
 197 342 l 1
 183 342 l 1
 183 289 l 1
 179 287 175 286 171 285 c 1
 171 295 l 1
 169 294 167 292 165 291 c 0
 159.018023693 288.009011847 152.909609986 286.969869996 147 285 c 0
 139.866666667 285 121.5 285 114 300 c 1
 114 304 l 1
 124.499999995 307 124.499999995 307 125 307 c 0
 139.611138208 307 146 317.036540872 146 327 c 0
 146 332.97660152 143.732058483 344 127 344 c 1
 127 350 l 1
 131.356525113 350 133.199030442 353 135 353 c 2
 138 353 l 2
 140.081371122 353 159 352.3040263 159 327 c 0
 159 307.666666667 143.534482759 302.511494253 133 299 c 1
 142 296 142 296 143 296 c 0
 154.812430626 293.637513875 167.591626881 301.774880642 171 312 c 1
 171 341 l 2
 170.929289322 341.070710678 165 347.878070303 165 349 c 2
 165 350 l 2x30be0aa0
60 350 m 2
 60.9999999934 350.999999993 60.9999999934 350.999999993 75 358 c 0
 75.2195208028 357.780479197 78.9677509689 352.064498062 79 352 c 2
 92 352 l 1
 95.0000000762 353.000000025 95.0000000762 353.000000025 107 356 c 1
 106 352 106 347 106 341 c 2
 106 258 l 1
 97.3333333148 253.666666663 97.3333333148 253.666666663 94 253 c 1
 94 342 l 1
 78 342 l 1
 78 289 l 1
 74 287 70 286 66 285 c 1
 66 341 l 1x30be60
 61.8449005274 347.232649209 60 347.090878838 60 349 c 2
 60 350 l 2
264 351 m 0
 268.307250536 353.584350322 277.86 357.93 278 358 c 0
 280.000000005 355.999999995 280.000000005 355.999999995 282 352 c 1
 321 352 l 1
 324.000000076 353.000000025 324.000000076 353.000000025 336 356 c 1
 336 353.000000001 335 350.000000003 335 345 c 2
 335 320 l 1
 338 320 l 2
 344.00000001 320 349.999999995 321 355 321 c 2
 361 321 l 1
 361 320 360 316 358 309 c 0
 357 309 354.999999998 310 353 310 c 0
 350.999999998 310 343.999999993 311 335 311 c 1
 335 258 l 1
 326.333333315 253.666666663 326.333333315 253.666666663 323 253 c 1
 323 342 l 1
 309 342 l 1
 309 289 l 1
 300.333333315 284.666666663 300.333333315 284.666666663 297 284 c 1
 297 342 l 1
 282 342 l 1
 282 258 l 1
 273.333333315 253.666666663 273.333333315 253.666666663 270 253 c 1
 270 341 l 1x307e000150
 264 347 264 347 264 349 c 0
 264 349.666666667 264 350.333333333 264 351 c 0
213 298 m 0
 244.35703691 303.226172818 246 326.560682347 246 327 c 0
 246.968995753 329.906987259 250.264047687 343 231 343 c 0
 224.114647695 343 211.514493559 336.514493559 209 334 c 1
 209 297 l 1x301e0020
 210 297 212 298 213 298 c 0
146 275 m 0x311e06
 147 275 147 276 148 276 c 0
 149 276 150 276 150 275 c 2
 150 272 l 2
 149.500000004 270.000000014 149.500000004 270.000000014 142 255 c 1
 142 253 l 2
 142 252 141 251 141 251 c 2
 139.5 249.5 139.5 249.5 139 250 c 0
 136.292006525 258.123980424 129 273.74 129 274 c 2
 129 275 l 2
 129 276 131 276 132 276 c 0
 132.094339811 276 133.514592311 274.242703844 140 271 c 0
 141 271 141 273 142 273 c 0
 144.580783109 273 143.419216891 275 146 275 c 0x311e06
216 241 m 2x371e0084
 215.939172375 241.060827625 211 247.387270629 211 248 c 2
 211 250 l 1
 212 250 l 1
 218 252 224 254 229 255 c 1
 229 223 l 1
 348 223 l 1
 348 223 350 224 352 224 c 0
 354 224 355 223 355 223 c 2
 355 221.995710978 353.003674054 219.012859188 351 212 c 1
 346.99954192 213.000114519 345.000076354 214 343 214 c 0
 337 215 333 215 329 214 c 0
 326.652587854 214 312 209.748891214 312 198 c 2
 312 191 l 2
 312 190.547230743 314.425244244 161.904207374 351 168 c 1
 351 161 l 1
 346.9699008 161 344.363432534 158 342 158 c 0
 337 157 333 157 329 157 c 0
 300.083870765 157 291.149491249 196.149491249 308 213 c 1
 289 213 l 1
 289 176 l 1
 284.561899482 158.247597927 262.33015148 157 262 157 c 0
 244.218109567 157 242 171.50638608 242 177 c 2
 242 213 l 1
 229 213 l 1
 229 129 l 1
 225 127 221 125 216 124 c 1
 216 213 l 1
 203 213 l 1
 203 160 l 1
 199 158 196 157 191 156 c 1
 191 213 l 1
 177 213 l 1
 177 171 l 1
 179 168 180 166 180 166 c 2
 180.999941438 164.000117121 182 162.999980484 182 162 c 2
 181 161 l 1
 181 160 l 1
 177 158 172 157 167 156 c 1
 167 157 166 158 166 159 c 2
 166 161 l 1
 161.717585335 158.858792669 149.404114667 156 143 156 c 0
 123.635992071 156 123 177.212267809 123 180 c 2
 123 213 l 1
 109 213 l 1
 109 176 l 1
 104.603374432 158.413497727 83.3220248438 157 83 157 c 0
 71.6865756192 154.737315124 62 164.635301355 62 177 c 2
 62 213 l 1
 39 213 l 2
 38.7577039597 213 36 213.968377223 36 214 c 0
 36 217.949404762 36 219.285714286 52 233 c 1
 54.0013935618 229.997909658 56.9970739294 227.003901426 60 223 c 1
 165 223 l 1
 165 241 l 1x371e08c680
 159 247 159 247 159 248 c 0x371e01
 160.183760684 250.367521368 160.555555556 251.111111111 175 254 c 0
 176 254 176 255 176 255 c 1
 177 255 l 1
 177 223 l 1
 216 223 l 1
 216 241 l 2x371e0084
402 239 m 1x301e000008
 402 140 l 1
 381 140 l 1
 381 239 l 1
 402 239 l 1x301e000008
86 167 m 0x361e
 91.9892492364 167 97 169.760915139 97 179 c 2
 97 213 l 1
 75 213 l 1
 75 202.333333333 75 191.666666667 75 181 c 0
 75 167.314333178 85.0744477518 167 86 167 c 0x361e
135 213 m 1x361e0880
 135 183 l 2
 135 180.355062793 138.779863617 170.110068191 143 168 c 0
 146 167 149 167 154 167 c 2
 158 167 l 1
 160 168 163 170 165 172 c 1
 165 213 l 1
 135 213 l 1x361e0880
266 167 m 0
 269.691736582 167 277 168.34552206 277 179 c 2
 277 213 l 1
 255 213 l 1
 255 184 l 2x361e000280
 255 179.060606061 255 167 266 167 c 0
189 147 m 2
 189 147 189 147 197 143 c 1x301e0020
 197 143 200 144 204 146 c 0
 204.5 146 204.5 146.25 204.5 146.5 c 0
 204.5 146.75 204.5 147 205 147 c 0
 206 147 207 147 207 146 c 2
 207 143 l 1x301e0010
 200.5 129.999999999 200.5 129.999999999 199 126 c 1
 199 124 l 2
 199 123 198 122 198 122 c 2
 197 121 196 121 196 122 c 0
 195.163118998 124.510643004 193.743119525 127.68585836 186 145 c 1
 186 146 l 2
 186 147 188 147 189 147 c 2
402 119 m 1x301e000008
 402 17 l 1
 381 17 l 1
 381 119 l 1
 402 119 l 1x301e000008
402 -5 m 1
 402 -101 l 1
 381 -101 l 1
 381 -5 l 1
 402 -5 l 1
402 -123 m 1
 402 -235 l 1xb01e000020
 313 -235 l 1
 313 -214 l 1x701e000020
 381 -214 l 1x701e000008
 381 -123 l 1
 402 -123 l 1
104 -214 m 1x701e10
 193 -214 l 1
 193 -235 l 1
 104 -235 l 1
 104 -214 l 1x701e10
209 -214 m 1x701e0008
 297 -214 l 1
 297 -235 l 1
 209 -235 l 1
 209 -214 l 1x701e0008
EndSplineSet
Validated: 524321
EndChar

StartChar: I
Encoding: 73 73 8
Width: 402
Flags: W
HStem: -235 107<0 21 381 402> -235 21<21 88 104 193 209 297 313 381> -106 96<0 21 381 402> 17 102<0 21 381 402> 135 99<0 21 381 402> 157 10<77.3648 95.524 143.141 164.856 257.262 275.236> 213 10<56.0142 62 75 97 109 123 135 165 177 191 203 216 229 242 255 277 289 308 316.76 348 348.001 350.814> 255 107<0 21 381 402> 285 11<141.114 163.315> 310 11<335 359.886> 342 10<78.0239 93.9219 127 142.956 183.008 196.922 215.622 244.809 282 297 309 322.922> 383 96<0 21 381 402> 506 101<0 21 381 402> 623 21G<0 21 381 402> 713 22<21 88 104 193 209 297 313 381>
VStem: 0 88<-235 -214 713 735> 0 21<-214 -128 -106 -10 12 113 135 234 255 362 383 479 501 601 623 713> 66 12<167.368 213 286.341 342> 94 12<167.161 213 256.124 341.837> 104 89<-235 -214 713 735> 123 12<169.729 213> 129 13<259.114 267.957> 146 13<312.011 340.534> 159 18<241.277 252.474> 165 12<158.119 161 167.538 213 223 247.954 286.341 295 298.733 342> 191 12<157.231 213> 197 12<255.054 288.266 297 337.764> 204.5 2.5<146 146.981> 209 88<-235 -214 713 735> 216 13<125.803 213 223 250> 242 13<168.258 213> 270 12<254.607 342> 277 12<168.232 213> 297 12<287.124 342> 313 89<-235 -214 713 735> 323 12<255.054 311 320 342> 381 21<-214 -123 -101 -5 17 119 140 239 261 367 389 484 506 607 628 713>
LayerCount: 2
Fore
SplineSet
0 601 m 1x301e80
 21 602 l 1
 21 501 l 1
 0 500 l 1
 0 601 l 1x301e80
0 479 m 1
 21 479 l 1
 21 383 l 1
 0 383 l 1
 0 479 l 1
0 362 m 1x311e80
 21 362 l 1
 21 255 l 1
 0 255 l 1
 0 362 l 1x311e80
0 234 m 1x381e80
 21 234 l 1
 21 135 l 1
 0 135 l 1
 0 234 l 1x381e80
0 113 m 1
 21 114 l 1
 21 12 l 1
 0 12 l 1
 0 113 l 1
0 -10 m 1
 21 -10 l 1
 21 -106 l 1
 0 -106 l 1
 0 -10 l 1
0 -128 m 1xb01e80
 21 -128 l 1xb01e80
 21 -214 l 1x701e80
 88 -214 l 1
 88 -235 l 1x701f
 0 -235 l 1xb01f
 0 -128 l 1xb01e80
0 735 m 1x301f
 88 735 l 1
 88 713 l 1x301f
 21 713 l 1
 21 623 l 1
 0 623 l 1x301e80
 -0 660.333333333 0 697.666666667 0 735 c 1x301f
104 735 m 1x301e10
 193 735 l 1
 193 713 l 1
 104 713 l 1
 104 735 l 1x301e10
209 735 m 1x301e0008
 297 735 l 1
 297 713 l 1
 209 713 l 1
 209 735 l 1x301e0008
313 735 m 1x301e000020
 402 735 l 1x301e000020
 402 628 l 1
 381 628 l 1
 381 713 l 1x301e000008
 313 713 l 1
 313 735 l 1x301e000020
402 607 m 1x301e000008
 402 506 l 1
 381 506 l 1
 381 607 l 1
 402 607 l 1x301e000008
402 484 m 1
 402 389 l 1
 381 388 l 1
 381 484 l 1
 402 484 l 1
402 367 m 1
 402 261 l 1
 381 260 l 1
 381 367 l 1
 402 367 l 1
165 350 m 2x30be0aa0
 165.999999989 350.999999989 165.999999989 350.999999989 180 358 c 1
 180 359 l 1
 182.145898011 356.854101989 182.145898011 356.854101989 184 352 c 1
 195 352 l 1
 198.000000076 353.000000025 198.000000076 353.000000025 210 356 c 1
 210 345 l 1
 218 348 226 351 233 353 c 1
 239 353 l 2
 265.411490037 353 271.742515539 311.889649517 230 294 c 0
 225.330208697 292.301894072 209.213190056 286.071063352 209 286 c 2
 209 258 l 1
 200.333333315 253.666666663 200.333333315 253.666666663 197 253 c 1
 197 342 l 1
 183 342 l 1
 183 289 l 1
 179 287 175 286 171 285 c 1
 171 295 l 1
 169 294 167 292 165 291 c 0
 159.018023693 288.009011847 152.909609986 286.969869996 147 285 c 0
 139.866666667 285 121.5 285 114 300 c 1
 114 304 l 1
 124.499999995 307 124.499999995 307 125 307 c 0
 139.611138208 307 146 317.036540872 146 327 c 0
 146 332.97660152 143.732058483 344 127 344 c 1
 127 350 l 1
 131.356525113 350 133.199030442 353 135 353 c 2
 138 353 l 2
 140.081371122 353 159 352.3040263 159 327 c 0
 159 307.666666667 143.534482759 302.511494253 133 299 c 1
 142 296 142 296 143 296 c 0
 154.812430626 293.637513875 167.591626881 301.774880642 171 312 c 1
 171 341 l 2
 170.929289322 341.070710678 165 347.878070303 165 349 c 2
 165 350 l 2x30be0aa0
60 350 m 2
 60.9999999934 350.999999993 60.9999999934 350.999999993 75 358 c 0
 75.2195208028 357.780479197 78.9677509689 352.064498062 79 352 c 2
 92 352 l 1
 95.0000000762 353.000000025 95.0000000762 353.000000025 107 356 c 1
 106 352 106 347 106 341 c 2
 106 258 l 1
 97.3333333148 253.666666663 97.3333333148 253.666666663 94 253 c 1
 94 342 l 1
 78 342 l 1
 78 289 l 1
 74 287 70 286 66 285 c 1
 66 341 l 1x30be60
 61.8449005274 347.232649209 60 347.090878838 60 349 c 2
 60 350 l 2
264 351 m 0
 268.307250536 353.584350322 277.86 357.93 278 358 c 0
 280.000000005 355.999999995 280.000000005 355.999999995 282 352 c 1
 321 352 l 1
 324.000000076 353.000000025 324.000000076 353.000000025 336 356 c 1
 336 353.000000001 335 350.000000003 335 345 c 2
 335 320 l 1
 338 320 l 2
 344.00000001 320 349.999999995 321 355 321 c 2
 361 321 l 1
 361 320 360 316 358 309 c 0
 357 309 354.999999998 310 353 310 c 0
 350.999999998 310 343.999999993 311 335 311 c 1
 335 258 l 1
 326.333333315 253.666666663 326.333333315 253.666666663 323 253 c 1
 323 342 l 1
 309 342 l 1
 309 289 l 1
 300.333333315 284.666666663 300.333333315 284.666666663 297 284 c 1
 297 342 l 1
 282 342 l 1
 282 258 l 1
 273.333333315 253.666666663 273.333333315 253.666666663 270 253 c 1
 270 341 l 1x307e000150
 264 347 264 347 264 349 c 0
 264 349.666666667 264 350.333333333 264 351 c 0
213 298 m 0
 244.35703691 303.226172818 246 326.560682347 246 327 c 0
 246.968995753 329.906987259 250.264047687 343 231 343 c 0
 224.114647695 343 211.514493559 336.514493559 209 334 c 1
 209 297 l 1x301e0020
 210 297 212 298 213 298 c 0
146 275 m 0x311e06
 147 275 147 276 148 276 c 0
 149 276 150 276 150 275 c 2
 150 272 l 2
 149.500000004 270.000000014 149.500000004 270.000000014 142 255 c 1
 142 253 l 2
 142 252 141 251 141 251 c 2
 139.5 249.5 139.5 249.5 139 250 c 0
 136.292006525 258.123980424 129 273.74 129 274 c 2
 129 275 l 2
 129 276 131 276 132 276 c 0
 132.094339811 276 133.514592311 274.242703844 140 271 c 0
 141 271 141 273 142 273 c 0
 144.580783109 273 143.419216891 275 146 275 c 0x311e06
216 241 m 2x371e0084
 215.939172375 241.060827625 211 247.387270629 211 248 c 2
 211 250 l 1
 212 250 l 1
 218 252 224 254 229 255 c 1
 229 223 l 1
 348 223 l 1
 348 223 350 224 352 224 c 0
 354 224 355 223 355 223 c 2
 355 221.995710978 353.003674054 219.012859188 351 212 c 1
 346.99954192 213.000114519 345.000076354 214 343 214 c 0
 337 215 333 215 329 214 c 0
 326.652587854 214 312 209.748891214 312 198 c 2
 312 191 l 2
 312 190.547230743 314.425244244 161.904207374 351 168 c 1
 351 161 l 1
 346.9699008 161 344.363432534 158 342 158 c 0
 337 157 333 157 329 157 c 0
 300.083870765 157 291.149491249 196.149491249 308 213 c 1
 289 213 l 1
 289 176 l 1
 284.561899482 158.247597927 262.33015148 157 262 157 c 0
 244.218109567 157 242 171.50638608 242 177 c 2
 242 213 l 1
 229 213 l 1
 229 129 l 1
 225 127 221 125 216 124 c 1
 216 213 l 1
 203 213 l 1
 203 160 l 1
 199 158 196 157 191 156 c 1
 191 213 l 1
 177 213 l 1
 177 171 l 1
 179 168 180 166 180 166 c 2
 180.999941438 164.000117121 182 162.999980484 182 162 c 2
 181 161 l 1
 181 160 l 1
 177 158 172 157 167 156 c 1
 167 157 166 158 166 159 c 2
 166 161 l 1
 161.717585335 158.858792669 149.404114667 156 143 156 c 0
 123.635992071 156 123 177.212267809 123 180 c 2
 123 213 l 1
 109 213 l 1
 109 176 l 1
 104.603374432 158.413497727 83.3220248438 157 83 157 c 0
 71.6865756192 154.737315124 62 164.635301355 62 177 c 2
 62 213 l 1
 39 213 l 2
 38.7577039597 213 36 213.968377223 36 214 c 0
 36 217.949404762 36 219.285714286 52 233 c 1
 54.0013935618 229.997909658 56.9970739294 227.003901426 60 223 c 1
 165 223 l 1
 165 241 l 1x371e08c680
 159 247 159 247 159 248 c 0x371e01
 160.183760684 250.367521368 160.555555556 251.111111111 175 254 c 0
 176 254 176 255 176 255 c 1
 177 255 l 1
 177 223 l 1
 216 223 l 1
 216 241 l 2x371e0084
402 239 m 1x301e000008
 402 140 l 1
 381 140 l 1
 381 239 l 1
 402 239 l 1x301e000008
86 167 m 0x361e
 91.9892492364 167 97 169.760915139 97 179 c 2
 97 213 l 1
 75 213 l 1
 75 202.333333333 75 191.666666667 75 181 c 0
 75 167.314333178 85.0744477518 167 86 167 c 0x361e
135 213 m 1x361e0880
 135 183 l 2
 135 180.355062793 138.779863617 170.110068191 143 168 c 0
 146 167 149 167 154 167 c 2
 158 167 l 1
 160 168 163 170 165 172 c 1
 165 213 l 1
 135 213 l 1x361e0880
266 167 m 0
 269.691736582 167 277 168.34552206 277 179 c 2
 277 213 l 1
 255 213 l 1
 255 184 l 2x361e000280
 255 179.060606061 255 167 266 167 c 0
189 147 m 2
 189 147 189 147 197 143 c 1x301e0020
 197 143 200 144 204 146 c 0
 204.5 146 204.5 146.25 204.5 146.5 c 0
 204.5 146.75 204.5 147 205 147 c 0
 206 147 207 147 207 146 c 2
 207 143 l 1x301e0010
 200.5 129.999999999 200.5 129.999999999 199 126 c 1
 199 124 l 2
 199 123 198 122 198 122 c 2
 197 121 196 121 196 122 c 0
 195.163118998 124.510643004 193.743119525 127.68585836 186 145 c 1
 186 146 l 2
 186 147 188 147 189 147 c 2
402 119 m 1x301e000008
 402 17 l 1
 381 17 l 1
 381 119 l 1
 402 119 l 1x301e000008
402 -5 m 1
 402 -101 l 1
 381 -101 l 1
 381 -5 l 1
 402 -5 l 1
402 -123 m 1
 402 -235 l 1xb01e000020
 313 -235 l 1
 313 -214 l 1x701e000020
 381 -214 l 1x701e000008
 381 -123 l 1
 402 -123 l 1
104 -214 m 1x701e10
 193 -214 l 1
 193 -235 l 1
 104 -235 l 1
 104 -214 l 1x701e10
209 -214 m 1x701e0008
 297 -214 l 1
 297 -235 l 1
 209 -235 l 1
 209 -214 l 1x701e0008
EndSplineSet
Validated: 524321
EndChar

StartChar: J
Encoding: 74 74 9
Width: 402
Flags: W
HStem: -235 107<0 21 381 402> -235 21<21 88 104 193 209 297 313 381> -106 96<0 21 381 402> 17 102<0 21 381 402> 135 99<0 21 381 402> 157 10<77.3648 95.524 143.141 164.856 257.262 275.236> 213 10<56.0142 62 75 97 109 123 135 165 177 191 203 216 229 242 255 277 289 308 316.76 348 348.001 350.814> 255 107<0 21 381 402> 285 11<141.114 163.315> 310 11<335 359.886> 342 10<78.0239 93.9219 127 142.956 183.008 196.922 215.622 244.809 282 297 309 322.922> 383 96<0 21 381 402> 506 101<0 21 381 402> 623 21G<0 21 381 402> 713 22<21 88 104 193 209 297 313 381>
VStem: 0 88<-235 -214 713 735> 0 21<-214 -128 -106 -10 12 113 135 234 255 362 383 479 501 601 623 713> 66 12<167.368 213 286.341 342> 94 12<167.161 213 256.124 341.837> 104 89<-235 -214 713 735> 123 12<169.729 213> 129 13<259.114 267.957> 146 13<312.011 340.534> 159 18<241.277 252.474> 165 12<158.119 161 167.538 213 223 247.954 286.341 295 298.733 342> 191 12<157.231 213> 197 12<255.054 288.266 297 337.764> 204.5 2.5<146 146.981> 209 88<-235 -214 713 735> 216 13<125.803 213 223 250> 242 13<168.258 213> 270 12<254.607 342> 277 12<168.232 213> 297 12<287.124 342> 313 89<-235 -214 713 735> 323 12<255.054 311 320 342> 381 21<-214 -123 -101 -5 17 119 140 239 261 367 389 484 506 607 628 713>
LayerCount: 2
Fore
SplineSet
0 601 m 1x301e80
 21 602 l 1
 21 501 l 1
 0 500 l 1
 0 601 l 1x301e80
0 479 m 1
 21 479 l 1
 21 383 l 1
 0 383 l 1
 0 479 l 1
0 362 m 1x311e80
 21 362 l 1
 21 255 l 1
 0 255 l 1
 0 362 l 1x311e80
0 234 m 1x381e80
 21 234 l 1
 21 135 l 1
 0 135 l 1
 0 234 l 1x381e80
0 113 m 1
 21 114 l 1
 21 12 l 1
 0 12 l 1
 0 113 l 1
0 -10 m 1
 21 -10 l 1
 21 -106 l 1
 0 -106 l 1
 0 -10 l 1
0 -128 m 1xb01e80
 21 -128 l 1xb01e80
 21 -214 l 1x701e80
 88 -214 l 1
 88 -235 l 1x701f
 0 -235 l 1xb01f
 0 -128 l 1xb01e80
0 735 m 1x301f
 88 735 l 1
 88 713 l 1x301f
 21 713 l 1
 21 623 l 1
 0 623 l 1x301e80
 -0 660.333333333 0 697.666666667 0 735 c 1x301f
104 735 m 1x301e10
 193 735 l 1
 193 713 l 1
 104 713 l 1
 104 735 l 1x301e10
209 735 m 1x301e0008
 297 735 l 1
 297 713 l 1
 209 713 l 1
 209 735 l 1x301e0008
313 735 m 1x301e000020
 402 735 l 1x301e000020
 402 628 l 1
 381 628 l 1
 381 713 l 1x301e000008
 313 713 l 1
 313 735 l 1x301e000020
402 607 m 1x301e000008
 402 506 l 1
 381 506 l 1
 381 607 l 1
 402 607 l 1x301e000008
402 484 m 1
 402 389 l 1
 381 388 l 1
 381 484 l 1
 402 484 l 1
402 367 m 1
 402 261 l 1
 381 260 l 1
 381 367 l 1
 402 367 l 1
165 350 m 2x30be0aa0
 165.999999989 350.999999989 165.999999989 350.999999989 180 358 c 1
 180 359 l 1
 182.145898011 356.854101989 182.145898011 356.854101989 184 352 c 1
 195 352 l 1
 198.000000076 353.000000025 198.000000076 353.000000025 210 356 c 1
 210 345 l 1
 218 348 226 351 233 353 c 1
 239 353 l 2
 265.411490037 353 271.742515539 311.889649517 230 294 c 0
 225.330208697 292.301894072 209.213190056 286.071063352 209 286 c 2
 209 258 l 1
 200.333333315 253.666666663 200.333333315 253.666666663 197 253 c 1
 197 342 l 1
 183 342 l 1
 183 289 l 1
 179 287 175 286 171 285 c 1
 171 295 l 1
 169 294 167 292 165 291 c 0
 159.018023693 288.009011847 152.909609986 286.969869996 147 285 c 0
 139.866666667 285 121.5 285 114 300 c 1
 114 304 l 1
 124.499999995 307 124.499999995 307 125 307 c 0
 139.611138208 307 146 317.036540872 146 327 c 0
 146 332.97660152 143.732058483 344 127 344 c 1
 127 350 l 1
 131.356525113 350 133.199030442 353 135 353 c 2
 138 353 l 2
 140.081371122 353 159 352.3040263 159 327 c 0
 159 307.666666667 143.534482759 302.511494253 133 299 c 1
 142 296 142 296 143 296 c 0
 154.812430626 293.637513875 167.591626881 301.774880642 171 312 c 1
 171 341 l 2
 170.929289322 341.070710678 165 347.878070303 165 349 c 2
 165 350 l 2x30be0aa0
60 350 m 2
 60.9999999934 350.999999993 60.9999999934 350.999999993 75 358 c 0
 75.2195208028 357.780479197 78.9677509689 352.064498062 79 352 c 2
 92 352 l 1
 95.0000000762 353.000000025 95.0000000762 353.000000025 107 356 c 1
 106 352 106 347 106 341 c 2
 106 258 l 1
 97.3333333148 253.666666663 97.3333333148 253.666666663 94 253 c 1
 94 342 l 1
 78 342 l 1
 78 289 l 1
 74 287 70 286 66 285 c 1
 66 341 l 1x30be60
 61.8449005274 347.232649209 60 347.090878838 60 349 c 2
 60 350 l 2
264 351 m 0
 268.307250536 353.584350322 277.86 357.93 278 358 c 0
 280.000000005 355.999999995 280.000000005 355.999999995 282 352 c 1
 321 352 l 1
 324.000000076 353.000000025 324.000000076 353.000000025 336 356 c 1
 336 353.000000001 335 350.000000003 335 345 c 2
 335 320 l 1
 338 320 l 2
 344.00000001 320 349.999999995 321 355 321 c 2
 361 321 l 1
 361 320 360 316 358 309 c 0
 357 309 354.999999998 310 353 310 c 0
 350.999999998 310 343.999999993 311 335 311 c 1
 335 258 l 1
 326.333333315 253.666666663 326.333333315 253.666666663 323 253 c 1
 323 342 l 1
 309 342 l 1
 309 289 l 1
 300.333333315 284.666666663 300.333333315 284.666666663 297 284 c 1
 297 342 l 1
 282 342 l 1
 282 258 l 1
 273.333333315 253.666666663 273.333333315 253.666666663 270 253 c 1
 270 341 l 1x307e000150
 264 347 264 347 264 349 c 0
 264 349.666666667 264 350.333333333 264 351 c 0
213 298 m 0
 244.35703691 303.226172818 246 326.560682347 246 327 c 0
 246.968995753 329.906987259 250.264047687 343 231 343 c 0
 224.114647695 343 211.514493559 336.514493559 209 334 c 1
 209 297 l 1x301e0020
 210 297 212 298 213 298 c 0
146 275 m 0x311e06
 147 275 147 276 148 276 c 0
 149 276 150 276 150 275 c 2
 150 272 l 2
 149.500000004 270.000000014 149.500000004 270.000000014 142 255 c 1
 142 253 l 2
 142 252 141 251 141 251 c 2
 139.5 249.5 139.5 249.5 139 250 c 0
 136.292006525 258.123980424 129 273.74 129 274 c 2
 129 275 l 2
 129 276 131 276 132 276 c 0
 132.094339811 276 133.514592311 274.242703844 140 271 c 0
 141 271 141 273 142 273 c 0
 144.580783109 273 143.419216891 275 146 275 c 0x311e06
216 241 m 2x371e0084
 215.939172375 241.060827625 211 247.387270629 211 248 c 2
 211 250 l 1
 212 250 l 1
 218 252 224 254 229 255 c 1
 229 223 l 1
 348 223 l 1
 348 223 350 224 352 224 c 0
 354 224 355 223 355 223 c 2
 355 221.995710978 353.003674054 219.012859188 351 212 c 1
 346.99954192 213.000114519 345.000076354 214 343 214 c 0
 337 215 333 215 329 214 c 0
 326.652587854 214 312 209.748891214 312 198 c 2
 312 191 l 2
 312 190.547230743 314.425244244 161.904207374 351 168 c 1
 351 161 l 1
 346.9699008 161 344.363432534 158 342 158 c 0
 337 157 333 157 329 157 c 0
 300.083870765 157 291.149491249 196.149491249 308 213 c 1
 289 213 l 1
 289 176 l 1
 284.561899482 158.247597927 262.33015148 157 262 157 c 0
 244.218109567 157 242 171.50638608 242 177 c 2
 242 213 l 1
 229 213 l 1
 229 129 l 1
 225 127 221 125 216 124 c 1
 216 213 l 1
 203 213 l 1
 203 160 l 1
 199 158 196 157 191 156 c 1
 191 213 l 1
 177 213 l 1
 177 171 l 1
 179 168 180 166 180 166 c 2
 180.999941438 164.000117121 182 162.999980484 182 162 c 2
 181 161 l 1
 181 160 l 1
 177 158 172 157 167 156 c 1
 167 157 166 158 166 159 c 2
 166 161 l 1
 161.717585335 158.858792669 149.404114667 156 143 156 c 0
 123.635992071 156 123 177.212267809 123 180 c 2
 123 213 l 1
 109 213 l 1
 109 176 l 1
 104.603374432 158.413497727 83.3220248438 157 83 157 c 0
 71.6865756192 154.737315124 62 164.635301355 62 177 c 2
 62 213 l 1
 39 213 l 2
 38.7577039597 213 36 213.968377223 36 214 c 0
 36 217.949404762 36 219.285714286 52 233 c 1
 54.0013935618 229.997909658 56.9970739294 227.003901426 60 223 c 1
 165 223 l 1
 165 241 l 1x371e08c680
 159 247 159 247 159 248 c 0x371e01
 160.183760684 250.367521368 160.555555556 251.111111111 175 254 c 0
 176 254 176 255 176 255 c 1
 177 255 l 1
 177 223 l 1
 216 223 l 1
 216 241 l 2x371e0084
402 239 m 1x301e000008
 402 140 l 1
 381 140 l 1
 381 239 l 1
 402 239 l 1x301e000008
86 167 m 0x361e
 91.9892492364 167 97 169.760915139 97 179 c 2
 97 213 l 1
 75 213 l 1
 75 202.333333333 75 191.666666667 75 181 c 0
 75 167.314333178 85.0744477518 167 86 167 c 0x361e
135 213 m 1x361e0880
 135 183 l 2
 135 180.355062793 138.779863617 170.110068191 143 168 c 0
 146 167 149 167 154 167 c 2
 158 167 l 1
 160 168 163 170 165 172 c 1
 165 213 l 1
 135 213 l 1x361e0880
266 167 m 0
 269.691736582 167 277 168.34552206 277 179 c 2
 277 213 l 1
 255 213 l 1
 255 184 l 2x361e000280
 255 179.060606061 255 167 266 167 c 0
189 147 m 2
 189 147 189 147 197 143 c 1x301e0020
 197 143 200 144 204 146 c 0
 204.5 146 204.5 146.25 204.5 146.5 c 0
 204.5 146.75 204.5 147 205 147 c 0
 206 147 207 147 207 146 c 2
 207 143 l 1x301e0010
 200.5 129.999999999 200.5 129.999999999 199 126 c 1
 199 124 l 2
 199 123 198 122 198 122 c 2
 197 121 196 121 196 122 c 0
 195.163118998 124.510643004 193.743119525 127.68585836 186 145 c 1
 186 146 l 2
 186 147 188 147 189 147 c 2
402 119 m 1x301e000008
 402 17 l 1
 381 17 l 1
 381 119 l 1
 402 119 l 1x301e000008
402 -5 m 1
 402 -101 l 1
 381 -101 l 1
 381 -5 l 1
 402 -5 l 1
402 -123 m 1
 402 -235 l 1xb01e000020
 313 -235 l 1
 313 -214 l 1x701e000020
 381 -214 l 1x701e000008
 381 -123 l 1
 402 -123 l 1
104 -214 m 1x701e10
 193 -214 l 1
 193 -235 l 1
 104 -235 l 1
 104 -214 l 1x701e10
209 -214 m 1x701e0008
 297 -214 l 1
 297 -235 l 1
 209 -235 l 1
 209 -214 l 1x701e0008
EndSplineSet
Validated: 524321
EndChar

StartChar: K
Encoding: 75 75 10
Width: 402
Flags: W
HStem: -235 107<0 21 381 402> -235 21<21 88 104 193 209 297 313 381> -106 96<0 21 381 402> 17 102<0 21 381 402> 135 99<0 21 381 402> 157 10<77.3648 95.524 143.141 164.856 257.262 275.236> 213 10<56.0142 62 75 97 109 123 135 165 177 191 203 216 229 242 255 277 289 308 316.76 348 348.001 350.814> 255 107<0 21 381 402> 285 11<141.114 163.315> 310 11<335 359.886> 342 10<78.0239 93.9219 127 142.956 183.008 196.922 215.622 244.809 282 297 309 322.922> 383 96<0 21 381 402> 506 101<0 21 381 402> 623 21G<0 21 381 402> 713 22<21 88 104 193 209 297 313 381>
VStem: 0 88<-235 -214 713 735> 0 21<-214 -128 -106 -10 12 113 135 234 255 362 383 479 501 601 623 713> 66 12<167.368 213 286.341 342> 94 12<167.161 213 256.124 341.837> 104 89<-235 -214 713 735> 123 12<169.729 213> 129 13<259.114 267.957> 146 13<312.011 340.534> 159 18<241.277 252.474> 165 12<158.119 161 167.538 213 223 247.954 286.341 295 298.733 342> 191 12<157.231 213> 197 12<255.054 288.266 297 337.764> 204.5 2.5<146 146.981> 209 88<-235 -214 713 735> 216 13<125.803 213 223 250> 242 13<168.258 213> 270 12<254.607 342> 277 12<168.232 213> 297 12<287.124 342> 313 89<-235 -214 713 735> 323 12<255.054 311 320 342> 381 21<-214 -123 -101 -5 17 119 140 239 261 367 389 484 506 607 628 713>
LayerCount: 2
Fore
SplineSet
0 601 m 1x301e80
 21 602 l 1
 21 501 l 1
 0 500 l 1
 0 601 l 1x301e80
0 479 m 1
 21 479 l 1
 21 383 l 1
 0 383 l 1
 0 479 l 1
0 362 m 1x311e80
 21 362 l 1
 21 255 l 1
 0 255 l 1
 0 362 l 1x311e80
0 234 m 1x381e80
 21 234 l 1
 21 135 l 1
 0 135 l 1
 0 234 l 1x381e80
0 113 m 1
 21 114 l 1
 21 12 l 1
 0 12 l 1
 0 113 l 1
0 -10 m 1
 21 -10 l 1
 21 -106 l 1
 0 -106 l 1
 0 -10 l 1
0 -128 m 1xb01e80
 21 -128 l 1xb01e80
 21 -214 l 1x701e80
 88 -214 l 1
 88 -235 l 1x701f
 0 -235 l 1xb01f
 0 -128 l 1xb01e80
0 735 m 1x301f
 88 735 l 1
 88 713 l 1x301f
 21 713 l 1
 21 623 l 1
 0 623 l 1x301e80
 -0 660.333333333 0 697.666666667 0 735 c 1x301f
104 735 m 1x301e10
 193 735 l 1
 193 713 l 1
 104 713 l 1
 104 735 l 1x301e10
209 735 m 1x301e0008
 297 735 l 1
 297 713 l 1
 209 713 l 1
 209 735 l 1x301e0008
313 735 m 1x301e000020
 402 735 l 1x301e000020
 402 628 l 1
 381 628 l 1
 381 713 l 1x301e000008
 313 713 l 1
 313 735 l 1x301e000020
402 607 m 1x301e000008
 402 506 l 1
 381 506 l 1
 381 607 l 1
 402 607 l 1x301e000008
402 484 m 1
 402 389 l 1
 381 388 l 1
 381 484 l 1
 402 484 l 1
402 367 m 1
 402 261 l 1
 381 260 l 1
 381 367 l 1
 402 367 l 1
165 350 m 2x30be0aa0
 165.999999989 350.999999989 165.999999989 350.999999989 180 358 c 1
 180 359 l 1
 182.145898011 356.854101989 182.145898011 356.854101989 184 352 c 1
 195 352 l 1
 198.000000076 353.000000025 198.000000076 353.000000025 210 356 c 1
 210 345 l 1
 218 348 226 351 233 353 c 1
 239 353 l 2
 265.411490037 353 271.742515539 311.889649517 230 294 c 0
 225.330208697 292.301894072 209.213190056 286.071063352 209 286 c 2
 209 258 l 1
 200.333333315 253.666666663 200.333333315 253.666666663 197 253 c 1
 197 342 l 1
 183 342 l 1
 183 289 l 1
 179 287 175 286 171 285 c 1
 171 295 l 1
 169 294 167 292 165 291 c 0
 159.018023693 288.009011847 152.909609986 286.969869996 147 285 c 0
 139.866666667 285 121.5 285 114 300 c 1
 114 304 l 1
 124.499999995 307 124.499999995 307 125 307 c 0
 139.611138208 307 146 317.036540872 146 327 c 0
 146 332.97660152 143.732058483 344 127 344 c 1
 127 350 l 1
 131.356525113 350 133.199030442 353 135 353 c 2
 138 353 l 2
 140.081371122 353 159 352.3040263 159 327 c 0
 159 307.666666667 143.534482759 302.511494253 133 299 c 1
 142 296 142 296 143 296 c 0
 154.812430626 293.637513875 167.591626881 301.774880642 171 312 c 1
 171 341 l 2
 170.929289322 341.070710678 165 347.878070303 165 349 c 2
 165 350 l 2x30be0aa0
60 350 m 2
 60.9999999934 350.999999993 60.9999999934 350.999999993 75 358 c 0
 75.2195208028 357.780479197 78.9677509689 352.064498062 79 352 c 2
 92 352 l 1
 95.0000000762 353.000000025 95.0000000762 353.000000025 107 356 c 1
 106 352 106 347 106 341 c 2
 106 258 l 1
 97.3333333148 253.666666663 97.3333333148 253.666666663 94 253 c 1
 94 342 l 1
 78 342 l 1
 78 289 l 1
 74 287 70 286 66 285 c 1
 66 341 l 1x30be60
 61.8449005274 347.232649209 60 347.090878838 60 349 c 2
 60 350 l 2
264 351 m 0
 268.307250536 353.584350322 277.86 357.93 278 358 c 0
 280.000000005 355.999999995 280.000000005 355.999999995 282 352 c 1
 321 352 l 1
 324.000000076 353.000000025 324.000000076 353.000000025 336 356 c 1
 336 353.000000001 335 350.000000003 335 345 c 2
 335 320 l 1
 338 320 l 2
 344.00000001 320 349.999999995 321 355 321 c 2
 361 321 l 1
 361 320 360 316 358 309 c 0
 357 309 354.999999998 310 353 310 c 0
 350.999999998 310 343.999999993 311 335 311 c 1
 335 258 l 1
 326.333333315 253.666666663 326.333333315 253.666666663 323 253 c 1
 323 342 l 1
 309 342 l 1
 309 289 l 1
 300.333333315 284.666666663 300.333333315 284.666666663 297 284 c 1
 297 342 l 1
 282 342 l 1
 282 258 l 1
 273.333333315 253.666666663 273.333333315 253.666666663 270 253 c 1
 270 341 l 1x307e000150
 264 347 264 347 264 349 c 0
 264 349.666666667 264 350.333333333 264 351 c 0
213 298 m 0
 244.35703691 303.226172818 246 326.560682347 246 327 c 0
 246.968995753 329.906987259 250.264047687 343 231 343 c 0
 224.114647695 343 211.514493559 336.514493559 209 334 c 1
 209 297 l 1x301e0020
 210 297 212 298 213 298 c 0
146 275 m 0x311e06
 147 275 147 276 148 276 c 0
 149 276 150 276 150 275 c 2
 150 272 l 2
 149.500000004 270.000000014 149.500000004 270.000000014 142 255 c 1
 142 253 l 2
 142 252 141 251 141 251 c 2
 139.5 249.5 139.5 249.5 139 250 c 0
 136.292006525 258.123980424 129 273.74 129 274 c 2
 129 275 l 2
 129 276 131 276 132 276 c 0
 132.094339811 276 133.514592311 274.242703844 140 271 c 0
 141 271 141 273 142 273 c 0
 144.580783109 273 143.419216891 275 146 275 c 0x311e06
216 241 m 2x371e0084
 215.939172375 241.060827625 211 247.387270629 211 248 c 2
 211 250 l 1
 212 250 l 1
 218 252 224 254 229 255 c 1
 229 223 l 1
 348 223 l 1
 348 223 350 224 352 224 c 0
 354 224 355 223 355 223 c 2
 355 221.995710978 353.003674054 219.012859188 351 212 c 1
 346.99954192 213.000114519 345.000076354 214 343 214 c 0
 337 215 333 215 329 214 c 0
 326.652587854 214 312 209.748891214 312 198 c 2
 312 191 l 2
 312 190.547230743 314.425244244 161.904207374 351 168 c 1
 351 161 l 1
 346.9699008 161 344.363432534 158 342 158 c 0
 337 157 333 157 329 157 c 0
 300.083870765 157 291.149491249 196.149491249 308 213 c 1
 289 213 l 1
 289 176 l 1
 284.561899482 158.247597927 262.33015148 157 262 157 c 0
 244.218109567 157 242 171.50638608 242 177 c 2
 242 213 l 1
 229 213 l 1
 229 129 l 1
 225 127 221 125 216 124 c 1
 216 213 l 1
 203 213 l 1
 203 160 l 1
 199 158 196 157 191 156 c 1
 191 213 l 1
 177 213 l 1
 177 171 l 1
 179 168 180 166 180 166 c 2
 180.999941438 164.000117121 182 162.999980484 182 162 c 2
 181 161 l 1
 181 160 l 1
 177 158 172 157 167 156 c 1
 167 157 166 158 166 159 c 2
 166 161 l 1
 161.717585335 158.858792669 149.404114667 156 143 156 c 0
 123.635992071 156 123 177.212267809 123 180 c 2
 123 213 l 1
 109 213 l 1
 109 176 l 1
 104.603374432 158.413497727 83.3220248438 157 83 157 c 0
 71.6865756192 154.737315124 62 164.635301355 62 177 c 2
 62 213 l 1
 39 213 l 2
 38.7577039597 213 36 213.968377223 36 214 c 0
 36 217.949404762 36 219.285714286 52 233 c 1
 54.0013935618 229.997909658 56.9970739294 227.003901426 60 223 c 1
 165 223 l 1
 165 241 l 1x371e08c680
 159 247 159 247 159 248 c 0x371e01
 160.183760684 250.367521368 160.555555556 251.111111111 175 254 c 0
 176 254 176 255 176 255 c 1
 177 255 l 1
 177 223 l 1
 216 223 l 1
 216 241 l 2x371e0084
402 239 m 1x301e000008
 402 140 l 1
 381 140 l 1
 381 239 l 1
 402 239 l 1x301e000008
86 167 m 0x361e
 91.9892492364 167 97 169.760915139 97 179 c 2
 97 213 l 1
 75 213 l 1
 75 202.333333333 75 191.666666667 75 181 c 0
 75 167.314333178 85.0744477518 167 86 167 c 0x361e
135 213 m 1x361e0880
 135 183 l 2
 135 180.355062793 138.779863617 170.110068191 143 168 c 0
 146 167 149 167 154 167 c 2
 158 167 l 1
 160 168 163 170 165 172 c 1
 165 213 l 1
 135 213 l 1x361e0880
266 167 m 0
 269.691736582 167 277 168.34552206 277 179 c 2
 277 213 l 1
 255 213 l 1
 255 184 l 2x361e000280
 255 179.060606061 255 167 266 167 c 0
189 147 m 2
 189 147 189 147 197 143 c 1x301e0020
 197 143 200 144 204 146 c 0
 204.5 146 204.5 146.25 204.5 146.5 c 0
 204.5 146.75 204.5 147 205 147 c 0
 206 147 207 147 207 146 c 2
 207 143 l 1x301e0010
 200.5 129.999999999 200.5 129.999999999 199 126 c 1
 199 124 l 2
 199 123 198 122 198 122 c 2
 197 121 196 121 196 122 c 0
 195.163118998 124.510643004 193.743119525 127.68585836 186 145 c 1
 186 146 l 2
 186 147 188 147 189 147 c 2
402 119 m 1x301e000008
 402 17 l 1
 381 17 l 1
 381 119 l 1
 402 119 l 1x301e000008
402 -5 m 1
 402 -101 l 1
 381 -101 l 1
 381 -5 l 1
 402 -5 l 1
402 -123 m 1
 402 -235 l 1xb01e000020
 313 -235 l 1
 313 -214 l 1x701e000020
 381 -214 l 1x701e000008
 381 -123 l 1
 402 -123 l 1
104 -214 m 1x701e10
 193 -214 l 1
 193 -235 l 1
 104 -235 l 1
 104 -214 l 1x701e10
209 -214 m 1x701e0008
 297 -214 l 1
 297 -235 l 1
 209 -235 l 1
 209 -214 l 1x701e0008
EndSplineSet
Validated: 524321
EndChar

StartChar: L
Encoding: 76 76 11
Width: 402
Flags: W
HStem: -235 107<0 21 381 402> -235 21<21 88 104 193 209 297 313 381> -106 96<0 21 381 402> 17 102<0 21 381 402> 135 99<0 21 381 402> 157 10<77.3648 95.524 143.141 164.856 257.262 275.236> 213 10<56.0142 62 75 97 109 123 135 165 177 191 203 216 229 242 255 277 289 308 316.76 348 348.001 350.814> 255 107<0 21 381 402> 285 11<141.114 163.315> 310 11<335 359.886> 342 10<78.0239 93.9219 127 142.956 183.008 196.922 215.622 244.809 282 297 309 322.922> 383 96<0 21 381 402> 506 101<0 21 381 402> 623 21G<0 21 381 402> 713 22<21 88 104 193 209 297 313 381>
VStem: 0 88<-235 -214 713 735> 0 21<-214 -128 -106 -10 12 113 135 234 255 362 383 479 501 601 623 713> 66 12<167.368 213 286.341 342> 94 12<167.161 213 256.124 341.837> 104 89<-235 -214 713 735> 123 12<169.729 213> 129 13<259.114 267.957> 146 13<312.011 340.534> 159 18<241.277 252.474> 165 12<158.119 161 167.538 213 223 247.954 286.341 295 298.733 342> 191 12<157.231 213> 197 12<255.054 288.266 297 337.764> 204.5 2.5<146 146.981> 209 88<-235 -214 713 735> 216 13<125.803 213 223 250> 242 13<168.258 213> 270 12<254.607 342> 277 12<168.232 213> 297 12<287.124 342> 313 89<-235 -214 713 735> 323 12<255.054 311 320 342> 381 21<-214 -123 -101 -5 17 119 140 239 261 367 389 484 506 607 628 713>
LayerCount: 2
Fore
SplineSet
0 601 m 1x301e80
 21 602 l 1
 21 501 l 1
 0 500 l 1
 0 601 l 1x301e80
0 479 m 1
 21 479 l 1
 21 383 l 1
 0 383 l 1
 0 479 l 1
0 362 m 1x311e80
 21 362 l 1
 21 255 l 1
 0 255 l 1
 0 362 l 1x311e80
0 234 m 1x381e80
 21 234 l 1
 21 135 l 1
 0 135 l 1
 0 234 l 1x381e80
0 113 m 1
 21 114 l 1
 21 12 l 1
 0 12 l 1
 0 113 l 1
0 -10 m 1
 21 -10 l 1
 21 -106 l 1
 0 -106 l 1
 0 -10 l 1
0 -128 m 1xb01e80
 21 -128 l 1xb01e80
 21 -214 l 1x701e80
 88 -214 l 1
 88 -235 l 1x701f
 0 -235 l 1xb01f
 0 -128 l 1xb01e80
0 735 m 1x301f
 88 735 l 1
 88 713 l 1x301f
 21 713 l 1
 21 623 l 1
 0 623 l 1x301e80
 -0 660.333333333 0 697.666666667 0 735 c 1x301f
104 735 m 1x301e10
 193 735 l 1
 193 713 l 1
 104 713 l 1
 104 735 l 1x301e10
209 735 m 1x301e0008
 297 735 l 1
 297 713 l 1
 209 713 l 1
 209 735 l 1x301e0008
313 735 m 1x301e000020
 402 735 l 1x301e000020
 402 628 l 1
 381 628 l 1
 381 713 l 1x301e000008
 313 713 l 1
 313 735 l 1x301e000020
402 607 m 1x301e000008
 402 506 l 1
 381 506 l 1
 381 607 l 1
 402 607 l 1x301e000008
402 484 m 1
 402 389 l 1
 381 388 l 1
 381 484 l 1
 402 484 l 1
402 367 m 1
 402 261 l 1
 381 260 l 1
 381 367 l 1
 402 367 l 1
165 350 m 2x30be0aa0
 165.999999989 350.999999989 165.999999989 350.999999989 180 358 c 1
 180 359 l 1
 182.145898011 356.854101989 182.145898011 356.854101989 184 352 c 1
 195 352 l 1
 198.000000076 353.000000025 198.000000076 353.000000025 210 356 c 1
 210 345 l 1
 218 348 226 351 233 353 c 1
 239 353 l 2
 265.411490037 353 271.742515539 311.889649517 230 294 c 0
 225.330208697 292.301894072 209.213190056 286.071063352 209 286 c 2
 209 258 l 1
 200.333333315 253.666666663 200.333333315 253.666666663 197 253 c 1
 197 342 l 1
 183 342 l 1
 183 289 l 1
 179 287 175 286 171 285 c 1
 171 295 l 1
 169 294 167 292 165 291 c 0
 159.018023693 288.009011847 152.909609986 286.969869996 147 285 c 0
 139.866666667 285 121.5 285 114 300 c 1
 114 304 l 1
 124.499999995 307 124.499999995 307 125 307 c 0
 139.611138208 307 146 317.036540872 146 327 c 0
 146 332.97660152 143.732058483 344 127 344 c 1
 127 350 l 1
 131.356525113 350 133.199030442 353 135 353 c 2
 138 353 l 2
 140.081371122 353 159 352.3040263 159 327 c 0
 159 307.666666667 143.534482759 302.511494253 133 299 c 1
 142 296 142 296 143 296 c 0
 154.812430626 293.637513875 167.591626881 301.774880642 171 312 c 1
 171 341 l 2
 170.929289322 341.070710678 165 347.878070303 165 349 c 2
 165 350 l 2x30be0aa0
60 350 m 2
 60.9999999934 350.999999993 60.9999999934 350.999999993 75 358 c 0
 75.2195208028 357.780479197 78.9677509689 352.064498062 79 352 c 2
 92 352 l 1
 95.0000000762 353.000000025 95.0000000762 353.000000025 107 356 c 1
 106 352 106 347 106 341 c 2
 106 258 l 1
 97.3333333148 253.666666663 97.3333333148 253.666666663 94 253 c 1
 94 342 l 1
 78 342 l 1
 78 289 l 1
 74 287 70 286 66 285 c 1
 66 341 l 1x30be60
 61.8449005274 347.232649209 60 347.090878838 60 349 c 2
 60 350 l 2
264 351 m 0
 268.307250536 353.584350322 277.86 357.93 278 358 c 0
 280.000000005 355.999999995 280.000000005 355.999999995 282 352 c 1
 321 352 l 1
 324.000000076 353.000000025 324.000000076 353.000000025 336 356 c 1
 336 353.000000001 335 350.000000003 335 345 c 2
 335 320 l 1
 338 320 l 2
 344.00000001 320 349.999999995 321 355 321 c 2
 361 321 l 1
 361 320 360 316 358 309 c 0
 357 309 354.999999998 310 353 310 c 0
 350.999999998 310 343.999999993 311 335 311 c 1
 335 258 l 1
 326.333333315 253.666666663 326.333333315 253.666666663 323 253 c 1
 323 342 l 1
 309 342 l 1
 309 289 l 1
 300.333333315 284.666666663 300.333333315 284.666666663 297 284 c 1
 297 342 l 1
 282 342 l 1
 282 258 l 1
 273.333333315 253.666666663 273.333333315 253.666666663 270 253 c 1
 270 341 l 1x307e000150
 264 347 264 347 264 349 c 0
 264 349.666666667 264 350.333333333 264 351 c 0
213 298 m 0
 244.35703691 303.226172818 246 326.560682347 246 327 c 0
 246.968995753 329.906987259 250.264047687 343 231 343 c 0
 224.114647695 343 211.514493559 336.514493559 209 334 c 1
 209 297 l 1x301e0020
 210 297 212 298 213 298 c 0
146 275 m 0x311e06
 147 275 147 276 148 276 c 0
 149 276 150 276 150 275 c 2
 150 272 l 2
 149.500000004 270.000000014 149.500000004 270.000000014 142 255 c 1
 142 253 l 2
 142 252 141 251 141 251 c 2
 139.5 249.5 139.5 249.5 139 250 c 0
 136.292006525 258.123980424 129 273.74 129 274 c 2
 129 275 l 2
 129 276 131 276 132 276 c 0
 132.094339811 276 133.514592311 274.242703844 140 271 c 0
 141 271 141 273 142 273 c 0
 144.580783109 273 143.419216891 275 146 275 c 0x311e06
216 241 m 2x371e0084
 215.939172375 241.060827625 211 247.387270629 211 248 c 2
 211 250 l 1
 212 250 l 1
 218 252 224 254 229 255 c 1
 229 223 l 1
 348 223 l 1
 348 223 350 224 352 224 c 0
 354 224 355 223 355 223 c 2
 355 221.995710978 353.003674054 219.012859188 351 212 c 1
 346.99954192 213.000114519 345.000076354 214 343 214 c 0
 337 215 333 215 329 214 c 0
 326.652587854 214 312 209.748891214 312 198 c 2
 312 191 l 2
 312 190.547230743 314.425244244 161.904207374 351 168 c 1
 351 161 l 1
 346.9699008 161 344.363432534 158 342 158 c 0
 337 157 333 157 329 157 c 0
 300.083870765 157 291.149491249 196.149491249 308 213 c 1
 289 213 l 1
 289 176 l 1
 284.561899482 158.247597927 262.33015148 157 262 157 c 0
 244.218109567 157 242 171.50638608 242 177 c 2
 242 213 l 1
 229 213 l 1
 229 129 l 1
 225 127 221 125 216 124 c 1
 216 213 l 1
 203 213 l 1
 203 160 l 1
 199 158 196 157 191 156 c 1
 191 213 l 1
 177 213 l 1
 177 171 l 1
 179 168 180 166 180 166 c 2
 180.999941438 164.000117121 182 162.999980484 182 162 c 2
 181 161 l 1
 181 160 l 1
 177 158 172 157 167 156 c 1
 167 157 166 158 166 159 c 2
 166 161 l 1
 161.717585335 158.858792669 149.404114667 156 143 156 c 0
 123.635992071 156 123 177.212267809 123 180 c 2
 123 213 l 1
 109 213 l 1
 109 176 l 1
 104.603374432 158.413497727 83.3220248438 157 83 157 c 0
 71.6865756192 154.737315124 62 164.635301355 62 177 c 2
 62 213 l 1
 39 213 l 2
 38.7577039597 213 36 213.968377223 36 214 c 0
 36 217.949404762 36 219.285714286 52 233 c 1
 54.0013935618 229.997909658 56.9970739294 227.003901426 60 223 c 1
 165 223 l 1
 165 241 l 1x371e08c680
 159 247 159 247 159 248 c 0x371e01
 160.183760684 250.367521368 160.555555556 251.111111111 175 254 c 0
 176 254 176 255 176 255 c 1
 177 255 l 1
 177 223 l 1
 216 223 l 1
 216 241 l 2x371e0084
402 239 m 1x301e000008
 402 140 l 1
 381 140 l 1
 381 239 l 1
 402 239 l 1x301e000008
86 167 m 0x361e
 91.9892492364 167 97 169.760915139 97 179 c 2
 97 213 l 1
 75 213 l 1
 75 202.333333333 75 191.666666667 75 181 c 0
 75 167.314333178 85.0744477518 167 86 167 c 0x361e
135 213 m 1x361e0880
 135 183 l 2
 135 180.355062793 138.779863617 170.110068191 143 168 c 0
 146 167 149 167 154 167 c 2
 158 167 l 1
 160 168 163 170 165 172 c 1
 165 213 l 1
 135 213 l 1x361e0880
266 167 m 0
 269.691736582 167 277 168.34552206 277 179 c 2
 277 213 l 1
 255 213 l 1
 255 184 l 2x361e000280
 255 179.060606061 255 167 266 167 c 0
189 147 m 2
 189 147 189 147 197 143 c 1x301e0020
 197 143 200 144 204 146 c 0
 204.5 146 204.5 146.25 204.5 146.5 c 0
 204.5 146.75 204.5 147 205 147 c 0
 206 147 207 147 207 146 c 2
 207 143 l 1x301e0010
 200.5 129.999999999 200.5 129.999999999 199 126 c 1
 199 124 l 2
 199 123 198 122 198 122 c 2
 197 121 196 121 196 122 c 0
 195.163118998 124.510643004 193.743119525 127.68585836 186 145 c 1
 186 146 l 2
 186 147 188 147 189 147 c 2
402 119 m 1x301e000008
 402 17 l 1
 381 17 l 1
 381 119 l 1
 402 119 l 1x301e000008
402 -5 m 1
 402 -101 l 1
 381 -101 l 1
 381 -5 l 1
 402 -5 l 1
402 -123 m 1
 402 -235 l 1xb01e000020
 313 -235 l 1
 313 -214 l 1x701e000020
 381 -214 l 1x701e000008
 381 -123 l 1
 402 -123 l 1
104 -214 m 1x701e10
 193 -214 l 1
 193 -235 l 1
 104 -235 l 1
 104 -214 l 1x701e10
209 -214 m 1x701e0008
 297 -214 l 1
 297 -235 l 1
 209 -235 l 1
 209 -214 l 1x701e0008
EndSplineSet
Validated: 524321
EndChar

StartChar: M
Encoding: 77 77 12
Width: 402
Flags: W
HStem: -235 107<0 21 381 402> -235 21<21 88 104 193 209 297 313 381> -106 96<0 21 381 402> 17 102<0 21 381 402> 135 99<0 21 381 402> 157 10<77.3648 95.524 143.141 164.856 257.262 275.236> 213 10<56.0142 62 75 97 109 123 135 165 177 191 203 216 229 242 255 277 289 308 316.76 348 348.001 350.814> 255 107<0 21 381 402> 285 11<141.114 163.315> 310 11<335 359.886> 342 10<78.0239 93.9219 127 142.956 183.008 196.922 215.622 244.809 282 297 309 322.922> 383 96<0 21 381 402> 506 101<0 21 381 402> 623 21G<0 21 381 402> 713 22<21 88 104 193 209 297 313 381>
VStem: 0 88<-235 -214 713 735> 0 21<-214 -128 -106 -10 12 113 135 234 255 362 383 479 501 601 623 713> 66 12<167.368 213 286.341 342> 94 12<167.161 213 256.124 341.837> 104 89<-235 -214 713 735> 123 12<169.729 213> 129 13<259.114 267.957> 146 13<312.011 340.534> 159 18<241.277 252.474> 165 12<158.119 161 167.538 213 223 247.954 286.341 295 298.733 342> 191 12<157.231 213> 197 12<255.054 288.266 297 337.764> 204.5 2.5<146 146.981> 209 88<-235 -214 713 735> 216 13<125.803 213 223 250> 242 13<168.258 213> 270 12<254.607 342> 277 12<168.232 213> 297 12<287.124 342> 313 89<-235 -214 713 735> 323 12<255.054 311 320 342> 381 21<-214 -123 -101 -5 17 119 140 239 261 367 389 484 506 607 628 713>
LayerCount: 2
Fore
SplineSet
0 601 m 1x301e80
 21 602 l 1
 21 501 l 1
 0 500 l 1
 0 601 l 1x301e80
0 479 m 1
 21 479 l 1
 21 383 l 1
 0 383 l 1
 0 479 l 1
0 362 m 1x311e80
 21 362 l 1
 21 255 l 1
 0 255 l 1
 0 362 l 1x311e80
0 234 m 1x381e80
 21 234 l 1
 21 135 l 1
 0 135 l 1
 0 234 l 1x381e80
0 113 m 1
 21 114 l 1
 21 12 l 1
 0 12 l 1
 0 113 l 1
0 -10 m 1
 21 -10 l 1
 21 -106 l 1
 0 -106 l 1
 0 -10 l 1
0 -128 m 1xb01e80
 21 -128 l 1xb01e80
 21 -214 l 1x701e80
 88 -214 l 1
 88 -235 l 1x701f
 0 -235 l 1xb01f
 0 -128 l 1xb01e80
0 735 m 1x301f
 88 735 l 1
 88 713 l 1x301f
 21 713 l 1
 21 623 l 1
 0 623 l 1x301e80
 -0 660.333333333 0 697.666666667 0 735 c 1x301f
104 735 m 1x301e10
 193 735 l 1
 193 713 l 1
 104 713 l 1
 104 735 l 1x301e10
209 735 m 1x301e0008
 297 735 l 1
 297 713 l 1
 209 713 l 1
 209 735 l 1x301e0008
313 735 m 1x301e000020
 402 735 l 1x301e000020
 402 628 l 1
 381 628 l 1
 381 713 l 1x301e000008
 313 713 l 1
 313 735 l 1x301e000020
402 607 m 1x301e000008
 402 506 l 1
 381 506 l 1
 381 607 l 1
 402 607 l 1x301e000008
402 484 m 1
 402 389 l 1
 381 388 l 1
 381 484 l 1
 402 484 l 1
402 367 m 1
 402 261 l 1
 381 260 l 1
 381 367 l 1
 402 367 l 1
165 350 m 2x30be0aa0
 165.999999989 350.999999989 165.999999989 350.999999989 180 358 c 1
 180 359 l 1
 182.145898011 356.854101989 182.145898011 356.854101989 184 352 c 1
 195 352 l 1
 198.000000076 353.000000025 198.000000076 353.000000025 210 356 c 1
 210 345 l 1
 218 348 226 351 233 353 c 1
 239 353 l 2
 265.411490037 353 271.742515539 311.889649517 230 294 c 0
 225.330208697 292.301894072 209.213190056 286.071063352 209 286 c 2
 209 258 l 1
 200.333333315 253.666666663 200.333333315 253.666666663 197 253 c 1
 197 342 l 1
 183 342 l 1
 183 289 l 1
 179 287 175 286 171 285 c 1
 171 295 l 1
 169 294 167 292 165 291 c 0
 159.018023693 288.009011847 152.909609986 286.969869996 147 285 c 0
 139.866666667 285 121.5 285 114 300 c 1
 114 304 l 1
 124.499999995 307 124.499999995 307 125 307 c 0
 139.611138208 307 146 317.036540872 146 327 c 0
 146 332.97660152 143.732058483 344 127 344 c 1
 127 350 l 1
 131.356525113 350 133.199030442 353 135 353 c 2
 138 353 l 2
 140.081371122 353 159 352.3040263 159 327 c 0
 159 307.666666667 143.534482759 302.511494253 133 299 c 1
 142 296 142 296 143 296 c 0
 154.812430626 293.637513875 167.591626881 301.774880642 171 312 c 1
 171 341 l 2
 170.929289322 341.070710678 165 347.878070303 165 349 c 2
 165 350 l 2x30be0aa0
60 350 m 2
 60.9999999934 350.999999993 60.9999999934 350.999999993 75 358 c 0
 75.2195208028 357.780479197 78.9677509689 352.064498062 79 352 c 2
 92 352 l 1
 95.0000000762 353.000000025 95.0000000762 353.000000025 107 356 c 1
 106 352 106 347 106 341 c 2
 106 258 l 1
 97.3333333148 253.666666663 97.3333333148 253.666666663 94 253 c 1
 94 342 l 1
 78 342 l 1
 78 289 l 1
 74 287 70 286 66 285 c 1
 66 341 l 1x30be60
 61.8449005274 347.232649209 60 347.090878838 60 349 c 2
 60 350 l 2
264 351 m 0
 268.307250536 353.584350322 277.86 357.93 278 358 c 0
 280.000000005 355.999999995 280.000000005 355.999999995 282 352 c 1
 321 352 l 1
 324.000000076 353.000000025 324.000000076 353.000000025 336 356 c 1
 336 353.000000001 335 350.000000003 335 345 c 2
 335 320 l 1
 338 320 l 2
 344.00000001 320 349.999999995 321 355 321 c 2
 361 321 l 1
 361 320 360 316 358 309 c 0
 357 309 354.999999998 310 353 310 c 0
 350.999999998 310 343.999999993 311 335 311 c 1
 335 258 l 1
 326.333333315 253.666666663 326.333333315 253.666666663 323 253 c 1
 323 342 l 1
 309 342 l 1
 309 289 l 1
 300.333333315 284.666666663 300.333333315 284.666666663 297 284 c 1
 297 342 l 1
 282 342 l 1
 282 258 l 1
 273.333333315 253.666666663 273.333333315 253.666666663 270 253 c 1
 270 341 l 1x307e000150
 264 347 264 347 264 349 c 0
 264 349.666666667 264 350.333333333 264 351 c 0
213 298 m 0
 244.35703691 303.226172818 246 326.560682347 246 327 c 0
 246.968995753 329.906987259 250.264047687 343 231 343 c 0
 224.114647695 343 211.514493559 336.514493559 209 334 c 1
 209 297 l 1x301e0020
 210 297 212 298 213 298 c 0
146 275 m 0x311e06
 147 275 147 276 148 276 c 0
 149 276 150 276 150 275 c 2
 150 272 l 2
 149.500000004 270.000000014 149.500000004 270.000000014 142 255 c 1
 142 253 l 2
 142 252 141 251 141 251 c 2
 139.5 249.5 139.5 249.5 139 250 c 0
 136.292006525 258.123980424 129 273.74 129 274 c 2
 129 275 l 2
 129 276 131 276 132 276 c 0
 132.094339811 276 133.514592311 274.242703844 140 271 c 0
 141 271 141 273 142 273 c 0
 144.580783109 273 143.419216891 275 146 275 c 0x311e06
216 241 m 2x371e0084
 215.939172375 241.060827625 211 247.387270629 211 248 c 2
 211 250 l 1
 212 250 l 1
 218 252 224 254 229 255 c 1
 229 223 l 1
 348 223 l 1
 348 223 350 224 352 224 c 0
 354 224 355 223 355 223 c 2
 355 221.995710978 353.003674054 219.012859188 351 212 c 1
 346.99954192 213.000114519 345.000076354 214 343 214 c 0
 337 215 333 215 329 214 c 0
 326.652587854 214 312 209.748891214 312 198 c 2
 312 191 l 2
 312 190.547230743 314.425244244 161.904207374 351 168 c 1
 351 161 l 1
 346.9699008 161 344.363432534 158 342 158 c 0
 337 157 333 157 329 157 c 0
 300.083870765 157 291.149491249 196.149491249 308 213 c 1
 289 213 l 1
 289 176 l 1
 284.561899482 158.247597927 262.33015148 157 262 157 c 0
 244.218109567 157 242 171.50638608 242 177 c 2
 242 213 l 1
 229 213 l 1
 229 129 l 1
 225 127 221 125 216 124 c 1
 216 213 l 1
 203 213 l 1
 203 160 l 1
 199 158 196 157 191 156 c 1
 191 213 l 1
 177 213 l 1
 177 171 l 1
 179 168 180 166 180 166 c 2
 180.999941438 164.000117121 182 162.999980484 182 162 c 2
 181 161 l 1
 181 160 l 1
 177 158 172 157 167 156 c 1
 167 157 166 158 166 159 c 2
 166 161 l 1
 161.717585335 158.858792669 149.404114667 156 143 156 c 0
 123.635992071 156 123 177.212267809 123 180 c 2
 123 213 l 1
 109 213 l 1
 109 176 l 1
 104.603374432 158.413497727 83.3220248438 157 83 157 c 0
 71.6865756192 154.737315124 62 164.635301355 62 177 c 2
 62 213 l 1
 39 213 l 2
 38.7577039597 213 36 213.968377223 36 214 c 0
 36 217.949404762 36 219.285714286 52 233 c 1
 54.0013935618 229.997909658 56.9970739294 227.003901426 60 223 c 1
 165 223 l 1
 165 241 l 1x371e08c680
 159 247 159 247 159 248 c 0x371e01
 160.183760684 250.367521368 160.555555556 251.111111111 175 254 c 0
 176 254 176 255 176 255 c 1
 177 255 l 1
 177 223 l 1
 216 223 l 1
 216 241 l 2x371e0084
402 239 m 1x301e000008
 402 140 l 1
 381 140 l 1
 381 239 l 1
 402 239 l 1x301e000008
86 167 m 0x361e
 91.9892492364 167 97 169.760915139 97 179 c 2
 97 213 l 1
 75 213 l 1
 75 202.333333333 75 191.666666667 75 181 c 0
 75 167.314333178 85.0744477518 167 86 167 c 0x361e
135 213 m 1x361e0880
 135 183 l 2
 135 180.355062793 138.779863617 170.110068191 143 168 c 0
 146 167 149 167 154 167 c 2
 158 167 l 1
 160 168 163 170 165 172 c 1
 165 213 l 1
 135 213 l 1x361e0880
266 167 m 0
 269.691736582 167 277 168.34552206 277 179 c 2
 277 213 l 1
 255 213 l 1
 255 184 l 2x361e000280
 255 179.060606061 255 167 266 167 c 0
189 147 m 2
 189 147 189 147 197 143 c 1x301e0020
 197 143 200 144 204 146 c 0
 204.5 146 204.5 146.25 204.5 146.5 c 0
 204.5 146.75 204.5 147 205 147 c 0
 206 147 207 147 207 146 c 2
 207 143 l 1x301e0010
 200.5 129.999999999 200.5 129.999999999 199 126 c 1
 199 124 l 2
 199 123 198 122 198 122 c 2
 197 121 196 121 196 122 c 0
 195.163118998 124.510643004 193.743119525 127.68585836 186 145 c 1
 186 146 l 2
 186 147 188 147 189 147 c 2
402 119 m 1x301e000008
 402 17 l 1
 381 17 l 1
 381 119 l 1
 402 119 l 1x301e000008
402 -5 m 1
 402 -101 l 1
 381 -101 l 1
 381 -5 l 1
 402 -5 l 1
402 -123 m 1
 402 -235 l 1xb01e000020
 313 -235 l 1
 313 -214 l 1x701e000020
 381 -214 l 1x701e000008
 381 -123 l 1
 402 -123 l 1
104 -214 m 1x701e10
 193 -214 l 1
 193 -235 l 1
 104 -235 l 1
 104 -214 l 1x701e10
209 -214 m 1x701e0008
 297 -214 l 1
 297 -235 l 1
 209 -235 l 1
 209 -214 l 1x701e0008
EndSplineSet
Validated: 524321
EndChar

StartChar: N
Encoding: 78 78 13
Width: 402
Flags: W
HStem: -235 107<0 21 381 402> -235 21<21 88 104 193 209 297 313 381> -106 96<0 21 381 402> 17 102<0 21 381 402> 135 99<0 21 381 402> 157 10<77.3648 95.524 143.141 164.856 257.262 275.236> 213 10<56.0142 62 75 97 109 123 135 165 177 191 203 216 229 242 255 277 289 308 316.76 348 348.001 350.814> 255 107<0 21 381 402> 285 11<141.114 163.315> 310 11<335 359.886> 342 10<78.0239 93.9219 127 142.956 183.008 196.922 215.622 244.809 282 297 309 322.922> 383 96<0 21 381 402> 506 101<0 21 381 402> 623 26G<0 21 381 402> 713 22<21 88 104 193 209 297 313 381>
VStem: 0 88<-235 -214 713 735> 0 21<-214 -128 -106 -10 12 113 135 234 255 362 383 479 501 601 623 713> 66 12<167.368 213 286.341 342> 94 12<167.161 213 256.124 341.837> 104 89<-235 -214 713 735> 123 12<169.729 213> 129 13<259.114 267.957> 146 13<312.011 340.534> 165 12<157.804 161 167.538 213 223 247.954> 171 12<286.341 295 303.282 342> 191 12<157.231 213> 197 12<255.054 288.266 297 337.764> 204.5 2.5<146 146.981> 209 88<-235 -214 713 735> 216 13<125.803 213 223 250> 242 13<168.258 213> 270 12<254.607 342> 277 12<168.232 213> 297 12<287.124 342> 313 89<-235 -214 713 735> 323 12<255.054 311 320 342> 381 21<-214 -123 -101 -5 17 119 140 239 261 367 389 484 506 607 628 713>
LayerCount: 2
Fore
SplineSet
209 -214 m 1x701e0008
 297 -214 l 1
 297 -235 l 1
 209 -235 l 1
 209 -214 l 1x701e0008
104 -214 m 1x701e10
 193 -214 l 1
 193 -235 l 1
 104 -235 l 1
 104 -214 l 1x701e10
402 -123 m 1x701e000008
 402 -235 l 1xb01e000020
 313 -235 l 1
 313 -214 l 1x701e000020
 381 -214 l 1
 381 -123 l 1
 402 -123 l 1x701e000008
402 -5 m 1x301e000008
 402 -101 l 1
 381 -101 l 1
 381 -5 l 1
 402 -5 l 1x301e000008
402 119 m 1
 402 17 l 1
 381 17 l 1
 381 119 l 1
 402 119 l 1
189 147 m 2
 189 147 189 147 197 143 c 1x301e0020
 197 143 200 144 204 146 c 0
 204.5 146 204.5 146.25 204.5 146.5 c 0
 204.5 146.75 204.5 147 205 147 c 0
 206 147 207 147 207 146 c 2
 207 143 l 1x301e0010
 200.5 129.999999999 200.5 129.999999999 199 126 c 1
 199 124 l 2
 199 123 198 122 198 122 c 2
 197 121 196 121 196 122 c 0
 195.163118998 124.510643004 193.743119525 127.68585836 186 145 c 1
 186 146 l 2
 186 147 188 147 189 147 c 2
266 167 m 0x361e000280
 269.691736582 167 277 168.34552206 277 179 c 2
 277 213 l 1
 255 213 l 1
 255 184 l 2
 255 179.060606061 255 167 266 167 c 0x361e000280
135 213 m 1x361e09
 135 183 l 2
 135 180.355062793 138.779863617 170.110068191 143 168 c 0
 146 167 149 167 154 167 c 2
 158 167 l 1
 160 168 163 170 165 172 c 1
 165 213 l 1
 135 213 l 1x361e09
86 167 m 0
 91.9892492364 167 97 169.760915139 97 179 c 2
 97 213 l 1
 75 213 l 1
 75 202.333333333 75 191.666666667 75 181 c 0
 75 167.314333178 85.0744477518 167 86 167 c 0
402 239 m 1x301e000008
 402 140 l 1
 381 140 l 1
 381 239 l 1
 402 239 l 1x301e000008
216 241 m 2x371e0b4680
 215.939172375 241.060827625 211 247.387270629 211 248 c 2
 211 250 l 1
 212 250 l 1
 218 252 224 254 229 255 c 1
 229 223 l 1
 348 223 l 1
 348 223 350 224 352 224 c 0
 354 224 355 223 355 223 c 2
 355 221.995710978 353.003674054 219.012859188 351 212 c 1
 346.99954192 213.000114519 345.000076354 214 343 214 c 0
 337 215 333 215 329 214 c 0
 326.652587854 214 312 209.748891214 312 198 c 2
 312 191 l 2
 312 190.547230743 314.425244244 161.904207374 351 168 c 1
 351 161 l 1
 346.9699008 161 344.363432534 158 342 158 c 0
 337 157 333 157 329 157 c 0
 300.083870765 157 291.149491249 196.149491249 308 213 c 1
 289 213 l 1
 289 176 l 1
 284.561899482 158.247597927 262.33015148 157 262 157 c 0
 244.218109567 157 242 171.50638608 242 177 c 2
 242 213 l 1
 229 213 l 1
 229 129 l 1
 225 127 221 125 216 124 c 1
 216 213 l 1
 203 213 l 1
 203 160 l 1
 199 158 196 157 191 156 c 1
 191 213 l 1
 177 213 l 1
 177 171 l 1
 179 168 180 166 180 166 c 2
 180.999941438 164.000117121 182 162.999980484 182 162 c 2
 181 161 l 1
 181 160 l 1
 177 158 172 157 167 156 c 1
 167 157 166 158 166 159 c 2
 166 161 l 1
 161.717585335 158.858792669 149.404114667 156 143 156 c 0
 123.635992071 156 123 177.212267809 123 180 c 2
 123 213 l 1
 109 213 l 1
 109 176 l 1
 104.603374432 158.413497727 83.3220248438 157 83 157 c 0
 71.6865756192 154.737315124 62 164.635301355 62 177 c 2
 62 213 l 1
 39 213 l 2
 38.7577039597 213 36 213.968377223 36 214 c 0
 36 217.949404762 36 219.285714286 52 233 c 1
 54.0013935618 229.997909658 56.9970739294 227.003901426 60 223 c 1
 165 223 l 1
 165 241 l 1
 159 247 159 247 159 248 c 0
 160.183760684 250.367521368 160.555555556 251.111111111 175 254 c 0
 176 254 176 255 176 255 c 1
 177 255 l 1
 177 223 l 1
 216 223 l 1
 216 241 l 2x371e0b4680
146 275 m 0
 147 275 147 276 148 276 c 0
 149 276 150 276 150 275 c 2
 150 272 l 2
 149.500000004 270.000000014 149.500000004 270.000000014 142 255 c 1
 142 253 l 2
 142 252 141 251 141 251 c 2
 139.5 249.5 139.5 249.5 139 250 c 0
 136.292006525 258.123980424 129 273.74 129 274 c 2
 129 275 l 2
 129 276 131 276 132 276 c 0
 132.094339811 276 133.514592311 274.242703844 140 271 c 0
 141 271 141 273 142 273 c 0x311e06
 144.580783109 273 143.419216891 275 146 275 c 0
213 298 m 0
 244.35703691 303.226172818 246 326.560682347 246 327 c 0
 246.968995753 329.906987259 250.264047687 343 231 343 c 0
 224.114647695 343 211.514493559 336.514493559 209 334 c 1
 209 297 l 1x301e0020
 210 297 212 298 213 298 c 0
264 351 m 0
 268.307250536 353.584350322 277.86 357.93 278 358 c 0
 280.000000005 355.999999995 280.000000005 355.999999995 282 352 c 1
 321 352 l 1
 324.000000076 353.000000025 324.000000076 353.000000025 336 356 c 1
 336 353.000000001 335 350.000000003 335 345 c 2
 335 320 l 1
 338 320 l 2
 344.00000001 320 349.999999995 321 355 321 c 2
 361 321 l 1
 361 320 360 316 358 309 c 0
 357 309 354.999999998 310 353 310 c 0
 350.999999998 310 343.999999993 311 335 311 c 1
 335 258 l 1
 326.333333315 253.666666663 326.333333315 253.666666663 323 253 c 1
 323 342 l 1
 309 342 l 1
 309 289 l 1
 300.333333315 284.666666663 300.333333315 284.666666663 297 284 c 1
 297 342 l 1
 282 342 l 1
 282 258 l 1
 273.333333315 253.666666663 273.333333315 253.666666663 270 253 c 1
 270 341 l 1x307e000150
 264 347 264 347 264 349 c 0
 264 349.666666667 264 350.333333333 264 351 c 0
60 350 m 2
 60.9999999934 350.999999993 60.9999999934 350.999999993 75 358 c 0
 75.2195208028 357.780479197 78.9677509689 352.064498062 79 352 c 2
 92 352 l 1
 95.0000000762 353.000000025 95.0000000762 353.000000025 107 356 c 1
 106 352 106 347 106 341 c 2
 106 258 l 1
 97.3333333148 253.666666663 97.3333333148 253.666666663 94 253 c 1
 94 342 l 1
 78 342 l 1
 78 289 l 1
 74 287 70 286 66 285 c 1
 66 341 l 1x30be60
 61.8449005274 347.232649209 60 347.090878838 60 349 c 2
 60 350 l 2
165 350 m 2x30be01
 165.999999989 350.999999989 165.999999989 350.999999989 180 358 c 1
 180 359 l 1
 182.145898011 356.854101989 182.145898011 356.854101989 184 352 c 1
 195 352 l 1
 198.000000076 353.000000025 198.000000076 353.000000025 210 356 c 1
 210 345 l 1
 218 348 226 351 233 353 c 1
 239 353 l 2
 265.411490037 353 271.742515539 311.889649517 230 294 c 0
 225.330208697 292.301894072 209.213190056 286.071063352 209 286 c 2
 209 258 l 1
 200.333333315 253.666666663 200.333333315 253.666666663 197 253 c 1
 197 342 l 1
 183 342 l 1
 183 289 l 1
 179 287 175 286 171 285 c 1
 171 295 l 1x30be00a0
 169 294 167 292 165 291 c 0x30be01
 159.018023693 288.009011847 152.909609986 286.969869996 147 285 c 0
 139.866666667 285 121.5 285 114 300 c 1
 114 304 l 1
 124.499999995 307 124.499999995 307 125 307 c 0
 139.611138208 307 146 317.036540872 146 327 c 0
 146 332.97660152 143.732058483 344 127 344 c 1
 127 350 l 1
 131.356525113 350 133.199030442 353 135 353 c 2
 138 353 l 2
 140.081371122 353 159 352.3040263 159 327 c 0
 159 307.666666667 143.534482759 302.511494253 133 299 c 1
 142 296 142 296 143 296 c 0
 154.812430626 293.637513875 167.591626881 301.774880642 171 312 c 1
 171 341 l 2x30be0a80
 170.929289322 341.070710678 165 347.878070303 165 349 c 2
 165 350 l 2x30be01
402 367 m 1x301e000008
 402 261 l 1
 381 260 l 1
 381 367 l 1
 402 367 l 1x301e000008
402 484 m 1
 402 389 l 1
 381 388 l 1
 381 484 l 1
 402 484 l 1
402 607 m 1
 402 506 l 1
 381 506 l 1
 381 607 l 1
 402 607 l 1
313 735 m 1x301e000020
 402 735 l 1x301e000020
 402 628 l 1
 381 628 l 1
 381 713 l 1x301e000008
 313 713 l 1
 313 735 l 1x301e000020
209 735 m 1x301e0008
 297 735 l 1
 297 713 l 1
 209 713 l 1
 209 735 l 1x301e0008
104 735 m 1x301e10
 193 735 l 1
 193 713 l 1
 104 713 l 1
 104 735 l 1x301e10
0 735 m 1x301f
 88 735 l 1
 88 713 l 1x301f
 21 713 l 1
 21 623 l 1
 0 623 l 1x301e80
 -0 660.333333333 0 697.666666667 0 735 c 1x301f
0 -128 m 1xb01e80
 21 -128 l 1xb01e80
 21 -214 l 1x701e80
 88 -214 l 1
 88 -235 l 1x701f
 0 -235 l 1xb01f
 0 -128 l 1xb01e80
0 -10 m 1
 21 -10 l 1
 21 -106 l 1
 0 -106 l 1
 0 -10 l 1
0 113 m 1
 21 114 l 1
 21 12 l 1
 0 12 l 1
 0 113 l 1
0 234 m 1x381e80
 21 234 l 1
 21 135 l 1
 0 135 l 1
 0 234 l 1x381e80
0 362 m 1x311e80
 21 362 l 1
 21 255 l 1
 0 255 l 1
 0 362 l 1x311e80
0 479 m 1
 21 479 l 1
 21 383 l 1
 0 383 l 1
 0 479 l 1
0 601 m 1
 21 602 l 1
 21 501 l 1
 0 500 l 1
 0 601 l 1
EndSplineSet
Validated: 524321
EndChar

StartChar: O
Encoding: 79 79 14
Width: 402
Flags: W
HStem: -235 107<0 21 381 402> -235 21<21 88 104 193 209 297 313 381> -106 96<0 21 381 402> 17 102<0 21 381 402> 135 99<0 21 381 402> 157 10<77.3648 95.524 143.141 164.856 257.262 275.236> 213 10<56.0142 62 75 97 109 123 135 165 177 191 203 216 229 242 255 277 289 308 316.76 348 348.001 350.814> 255 107<0 21 381 402> 285 11<141.114 163.315> 310 11<335 359.886> 342 10<78.0239 93.9219 127 142.956 183.008 196.922 215.622 244.809 282 297 309 322.922> 383 96<0 21 381 402> 506 101<0 21 381 402> 623 21G<0 21 381 402> 713 22<21 88 104 193 209 297 313 381>
VStem: 0 88<-235 -214 713 735> 0 21<-214 -128 -106 -10 12 113 135 234 255 362 383 479 501 601 623 713> 66 12<167.368 213 286.341 342> 94 12<167.161 213 256.124 341.837> 104 89<-235 -214 713 735> 123 12<169.729 213> 129 13<259.114 267.957> 146 13<312.011 340.534> 159 18<241.277 252.474> 165 12<158.119 161 167.538 213 223 247.954 286.341 295 298.733 342> 191 12<157.231 213> 197 12<255.054 288.266 297 337.764> 204.5 2.5<146 146.981> 209 88<-235 -214 713 735> 216 13<125.803 213 223 250> 242 13<168.258 213> 270 12<254.607 342> 277 12<168.232 213> 297 12<287.124 342> 313 89<-235 -214 713 735> 323 12<255.054 311 320 342> 381 21<-214 -123 -101 -5 17 119 140 239 261 367 389 484 506 607 628 713>
LayerCount: 2
Fore
SplineSet
0 601 m 1x301e80
 21 602 l 1
 21 501 l 1
 0 500 l 1
 0 601 l 1x301e80
0 479 m 1
 21 479 l 1
 21 383 l 1
 0 383 l 1
 0 479 l 1
0 362 m 1x311e80
 21 362 l 1
 21 255 l 1
 0 255 l 1
 0 362 l 1x311e80
0 234 m 1x381e80
 21 234 l 1
 21 135 l 1
 0 135 l 1
 0 234 l 1x381e80
0 113 m 1
 21 114 l 1
 21 12 l 1
 0 12 l 1
 0 113 l 1
0 -10 m 1
 21 -10 l 1
 21 -106 l 1
 0 -106 l 1
 0 -10 l 1
0 -128 m 1xb01e80
 21 -128 l 1xb01e80
 21 -214 l 1x701e80
 88 -214 l 1
 88 -235 l 1x701f
 0 -235 l 1xb01f
 0 -128 l 1xb01e80
0 735 m 1x301f
 88 735 l 1
 88 713 l 1x301f
 21 713 l 1
 21 623 l 1
 0 623 l 1x301e80
 -0 660.333333333 0 697.666666667 0 735 c 1x301f
104 735 m 1x301e10
 193 735 l 1
 193 713 l 1
 104 713 l 1
 104 735 l 1x301e10
209 735 m 1x301e0008
 297 735 l 1
 297 713 l 1
 209 713 l 1
 209 735 l 1x301e0008
313 735 m 1x301e000020
 402 735 l 1x301e000020
 402 628 l 1
 381 628 l 1
 381 713 l 1x301e000008
 313 713 l 1
 313 735 l 1x301e000020
402 607 m 1x301e000008
 402 506 l 1
 381 506 l 1
 381 607 l 1
 402 607 l 1x301e000008
402 484 m 1
 402 389 l 1
 381 388 l 1
 381 484 l 1
 402 484 l 1
402 367 m 1
 402 261 l 1
 381 260 l 1
 381 367 l 1
 402 367 l 1
165 350 m 2x30be0aa0
 165.999999989 350.999999989 165.999999989 350.999999989 180 358 c 1
 180 359 l 1
 182.145898011 356.854101989 182.145898011 356.854101989 184 352 c 1
 195 352 l 1
 198.000000076 353.000000025 198.000000076 353.000000025 210 356 c 1
 210 345 l 1
 218 348 226 351 233 353 c 1
 239 353 l 2
 265.411490037 353 271.742515539 311.889649517 230 294 c 0
 225.330208697 292.301894072 209.213190056 286.071063352 209 286 c 2
 209 258 l 1
 200.333333315 253.666666663 200.333333315 253.666666663 197 253 c 1
 197 342 l 1
 183 342 l 1
 183 289 l 1
 179 287 175 286 171 285 c 1
 171 295 l 1
 169 294 167 292 165 291 c 0
 159.018023693 288.009011847 152.909609986 286.969869996 147 285 c 0
 139.866666667 285 121.5 285 114 300 c 1
 114 304 l 1
 124.499999995 307 124.499999995 307 125 307 c 0
 139.611138208 307 146 317.036540872 146 327 c 0
 146 332.97660152 143.732058483 344 127 344 c 1
 127 350 l 1
 131.356525113 350 133.199030442 353 135 353 c 2
 138 353 l 2
 140.081371122 353 159 352.3040263 159 327 c 0
 159 307.666666667 143.534482759 302.511494253 133 299 c 1
 142 296 142 296 143 296 c 0
 154.812430626 293.637513875 167.591626881 301.774880642 171 312 c 1
 171 341 l 2
 170.929289322 341.070710678 165 347.878070303 165 349 c 2
 165 350 l 2x30be0aa0
60 350 m 2
 60.9999999934 350.999999993 60.9999999934 350.999999993 75 358 c 0
 75.2195208028 357.780479197 78.9677509689 352.064498062 79 352 c 2
 92 352 l 1
 95.0000000762 353.000000025 95.0000000762 353.000000025 107 356 c 1
 106 352 106 347 106 341 c 2
 106 258 l 1
 97.3333333148 253.666666663 97.3333333148 253.666666663 94 253 c 1
 94 342 l 1
 78 342 l 1
 78 289 l 1
 74 287 70 286 66 285 c 1
 66 341 l 1x30be60
 61.8449005274 347.232649209 60 347.090878838 60 349 c 2
 60 350 l 2
264 351 m 0
 268.307250536 353.584350322 277.86 357.93 278 358 c 0
 280.000000005 355.999999995 280.000000005 355.999999995 282 352 c 1
 321 352 l 1
 324.000000076 353.000000025 324.000000076 353.000000025 336 356 c 1
 336 353.000000001 335 350.000000003 335 345 c 2
 335 320 l 1
 338 320 l 2
 344.00000001 320 349.999999995 321 355 321 c 2
 361 321 l 1
 361 320 360 316 358 309 c 0
 357 309 354.999999998 310 353 310 c 0
 350.999999998 310 343.999999993 311 335 311 c 1
 335 258 l 1
 326.333333315 253.666666663 326.333333315 253.666666663 323 253 c 1
 323 342 l 1
 309 342 l 1
 309 289 l 1
 300.333333315 284.666666663 300.333333315 284.666666663 297 284 c 1
 297 342 l 1
 282 342 l 1
 282 258 l 1
 273.333333315 253.666666663 273.333333315 253.666666663 270 253 c 1
 270 341 l 1x307e000150
 264 347 264 347 264 349 c 0
 264 349.666666667 264 350.333333333 264 351 c 0
213 298 m 0
 244.35703691 303.226172818 246 326.560682347 246 327 c 0
 246.968995753 329.906987259 250.264047687 343 231 343 c 0
 224.114647695 343 211.514493559 336.514493559 209 334 c 1
 209 297 l 1x301e0020
 210 297 212 298 213 298 c 0
146 275 m 0x311e06
 147 275 147 276 148 276 c 0
 149 276 150 276 150 275 c 2
 150 272 l 2
 149.500000004 270.000000014 149.500000004 270.000000014 142 255 c 1
 142 253 l 2
 142 252 141 251 141 251 c 2
 139.5 249.5 139.5 249.5 139 250 c 0
 136.292006525 258.123980424 129 273.74 129 274 c 2
 129 275 l 2
 129 276 131 276 132 276 c 0
 132.094339811 276 133.514592311 274.242703844 140 271 c 0
 141 271 141 273 142 273 c 0
 144.580783109 273 143.419216891 275 146 275 c 0x311e06
216 241 m 2x371e0084
 215.939172375 241.060827625 211 247.387270629 211 248 c 2
 211 250 l 1
 212 250 l 1
 218 252 224 254 229 255 c 1
 229 223 l 1
 348 223 l 1
 348 223 350 224 352 224 c 0
 354 224 355 223 355 223 c 2
 355 221.995710978 353.003674054 219.012859188 351 212 c 1
 346.99954192 213.000114519 345.000076354 214 343 214 c 0
 337 215 333 215 329 214 c 0
 326.652587854 214 312 209.748891214 312 198 c 2
 312 191 l 2
 312 190.547230743 314.425244244 161.904207374 351 168 c 1
 351 161 l 1
 346.9699008 161 344.363432534 158 342 158 c 0
 337 157 333 157 329 157 c 0
 300.083870765 157 291.149491249 196.149491249 308 213 c 1
 289 213 l 1
 289 176 l 1
 284.561899482 158.247597927 262.33015148 157 262 157 c 0
 244.218109567 157 242 171.50638608 242 177 c 2
 242 213 l 1
 229 213 l 1
 229 129 l 1
 225 127 221 125 216 124 c 1
 216 213 l 1
 203 213 l 1
 203 160 l 1
 199 158 196 157 191 156 c 1
 191 213 l 1
 177 213 l 1
 177 171 l 1
 179 168 180 166 180 166 c 2
 180.999941438 164.000117121 182 162.999980484 182 162 c 2
 181 161 l 1
 181 160 l 1
 177 158 172 157 167 156 c 1
 167 157 166 158 166 159 c 2
 166 161 l 1
 161.717585335 158.858792669 149.404114667 156 143 156 c 0
 123.635992071 156 123 177.212267809 123 180 c 2
 123 213 l 1
 109 213 l 1
 109 176 l 1
 104.603374432 158.413497727 83.3220248438 157 83 157 c 0
 71.6865756192 154.737315124 62 164.635301355 62 177 c 2
 62 213 l 1
 39 213 l 2
 38.7577039597 213 36 213.968377223 36 214 c 0
 36 217.949404762 36 219.285714286 52 233 c 1
 54.0013935618 229.997909658 56.9970739294 227.003901426 60 223 c 1
 165 223 l 1
 165 241 l 1x371e08c680
 159 247 159 247 159 248 c 0x371e01
 160.183760684 250.367521368 160.555555556 251.111111111 175 254 c 0
 176 254 176 255 176 255 c 1
 177 255 l 1
 177 223 l 1
 216 223 l 1
 216 241 l 2x371e0084
402 239 m 1x301e000008
 402 140 l 1
 381 140 l 1
 381 239 l 1
 402 239 l 1x301e000008
86 167 m 0x361e
 91.9892492364 167 97 169.760915139 97 179 c 2
 97 213 l 1
 75 213 l 1
 75 202.333333333 75 191.666666667 75 181 c 0
 75 167.314333178 85.0744477518 167 86 167 c 0x361e
135 213 m 1x361e0880
 135 183 l 2
 135 180.355062793 138.779863617 170.110068191 143 168 c 0
 146 167 149 167 154 167 c 2
 158 167 l 1
 160 168 163 170 165 172 c 1
 165 213 l 1
 135 213 l 1x361e0880
266 167 m 0
 269.691736582 167 277 168.34552206 277 179 c 2
 277 213 l 1
 255 213 l 1
 255 184 l 2x361e000280
 255 179.060606061 255 167 266 167 c 0
189 147 m 2
 189 147 189 147 197 143 c 1x301e0020
 197 143 200 144 204 146 c 0
 204.5 146 204.5 146.25 204.5 146.5 c 0
 204.5 146.75 204.5 147 205 147 c 0
 206 147 207 147 207 146 c 2
 207 143 l 1x301e0010
 200.5 129.999999999 200.5 129.999999999 199 126 c 1
 199 124 l 2
 199 123 198 122 198 122 c 2
 197 121 196 121 196 122 c 0
 195.163118998 124.510643004 193.743119525 127.68585836 186 145 c 1
 186 146 l 2
 186 147 188 147 189 147 c 2
402 119 m 1x301e000008
 402 17 l 1
 381 17 l 1
 381 119 l 1
 402 119 l 1x301e000008
402 -5 m 1
 402 -101 l 1
 381 -101 l 1
 381 -5 l 1
 402 -5 l 1
402 -123 m 1
 402 -235 l 1xb01e000020
 313 -235 l 1
 313 -214 l 1x701e000020
 381 -214 l 1x701e000008
 381 -123 l 1
 402 -123 l 1
104 -214 m 1x701e10
 193 -214 l 1
 193 -235 l 1
 104 -235 l 1
 104 -214 l 1x701e10
209 -214 m 1x701e0008
 297 -214 l 1
 297 -235 l 1
 209 -235 l 1
 209 -214 l 1x701e0008
EndSplineSet
Validated: 524321
EndChar

StartChar: P
Encoding: 80 80 15
Width: 402
Flags: W
HStem: -235 107<0 21 381 402> -235 21<21 88 104 193 209 297 313 381> -106 96<0 21 381 402> 17 102<0 21 381 402> 135 99<0 21 381 402> 157 10<77.3648 95.524 143.141 164.856 257.262 275.236> 213 10<56.0142 62 75 97 109 123 135 165 177 191 203 216 229 242 255 277 289 308 316.76 348 348.001 350.814> 255 107<0 21 381 402> 285 11<141.114 163.315> 310 11<335 359.886> 342 10<78.0239 93.9219 127 142.956 183.008 196.922 215.622 244.809 282 297 309 322.922> 383 96<0 21 381 402> 506 101<0 21 381 402> 623 21G<0 21 381 402> 713 22<21 88 104 193 209 297 313 381>
VStem: 0 88<-235 -214 713 735> 0 21<-214 -128 -106 -10 12 113 135 234 255 362 383 479 501 601 623 713> 66 12<167.368 213 286.341 342> 94 12<167.161 213 256.124 341.837> 104 89<-235 -214 713 735> 123 12<169.729 213> 129 13<259.114 267.957> 146 13<312.011 340.534> 159 18<241.277 252.474> 165 12<158.119 161 167.538 213 223 247.954 286.341 295 298.733 342> 191 12<157.231 213> 197 12<255.054 288.266 297 337.764> 204.5 2.5<146 146.981> 209 88<-235 -214 713 735> 216 13<125.803 213 223 250> 242 13<168.258 213> 270 12<254.607 342> 277 12<168.232 213> 297 12<287.124 342> 313 89<-235 -214 713 735> 323 12<255.054 311 320 342> 381 21<-214 -123 -101 -5 17 119 140 239 261 367 389 484 506 607 628 713>
LayerCount: 2
Fore
SplineSet
0 601 m 1x301e80
 21 602 l 1
 21 501 l 1
 0 500 l 1
 0 601 l 1x301e80
0 479 m 1
 21 479 l 1
 21 383 l 1
 0 383 l 1
 0 479 l 1
0 362 m 1x311e80
 21 362 l 1
 21 255 l 1
 0 255 l 1
 0 362 l 1x311e80
0 234 m 1x381e80
 21 234 l 1
 21 135 l 1
 0 135 l 1
 0 234 l 1x381e80
0 113 m 1
 21 114 l 1
 21 12 l 1
 0 12 l 1
 0 113 l 1
0 -10 m 1
 21 -10 l 1
 21 -106 l 1
 0 -106 l 1
 0 -10 l 1
0 -128 m 1xb01e80
 21 -128 l 1xb01e80
 21 -214 l 1x701e80
 88 -214 l 1
 88 -235 l 1x701f
 0 -235 l 1xb01f
 0 -128 l 1xb01e80
0 735 m 1x301f
 88 735 l 1
 88 713 l 1x301f
 21 713 l 1
 21 623 l 1
 0 623 l 1x301e80
 -0 660.333333333 0 697.666666667 0 735 c 1x301f
104 735 m 1x301e10
 193 735 l 1
 193 713 l 1
 104 713 l 1
 104 735 l 1x301e10
209 735 m 1x301e0008
 297 735 l 1
 297 713 l 1
 209 713 l 1
 209 735 l 1x301e0008
313 735 m 1x301e000020
 402 735 l 1x301e000020
 402 628 l 1
 381 628 l 1
 381 713 l 1x301e000008
 313 713 l 1
 313 735 l 1x301e000020
402 607 m 1x301e000008
 402 506 l 1
 381 506 l 1
 381 607 l 1
 402 607 l 1x301e000008
402 484 m 1
 402 389 l 1
 381 388 l 1
 381 484 l 1
 402 484 l 1
402 367 m 1
 402 261 l 1
 381 260 l 1
 381 367 l 1
 402 367 l 1
165 350 m 2x30be0aa0
 165.999999989 350.999999989 165.999999989 350.999999989 180 358 c 1
 180 359 l 1
 182.145898011 356.854101989 182.145898011 356.854101989 184 352 c 1
 195 352 l 1
 198.000000076 353.000000025 198.000000076 353.000000025 210 356 c 1
 210 345 l 1
 218 348 226 351 233 353 c 1
 239 353 l 2
 265.411490037 353 271.742515539 311.889649517 230 294 c 0
 225.330208697 292.301894072 209.213190056 286.071063352 209 286 c 2
 209 258 l 1
 200.333333315 253.666666663 200.333333315 253.666666663 197 253 c 1
 197 342 l 1
 183 342 l 1
 183 289 l 1
 179 287 175 286 171 285 c 1
 171 295 l 1
 169 294 167 292 165 291 c 0
 159.018023693 288.009011847 152.909609986 286.969869996 147 285 c 0
 139.866666667 285 121.5 285 114 300 c 1
 114 304 l 1
 124.499999995 307 124.499999995 307 125 307 c 0
 139.611138208 307 146 317.036540872 146 327 c 0
 146 332.97660152 143.732058483 344 127 344 c 1
 127 350 l 1
 131.356525113 350 133.199030442 353 135 353 c 2
 138 353 l 2
 140.081371122 353 159 352.3040263 159 327 c 0
 159 307.666666667 143.534482759 302.511494253 133 299 c 1
 142 296 142 296 143 296 c 0
 154.812430626 293.637513875 167.591626881 301.774880642 171 312 c 1
 171 341 l 2
 170.929289322 341.070710678 165 347.878070303 165 349 c 2
 165 350 l 2x30be0aa0
60 350 m 2
 60.9999999934 350.999999993 60.9999999934 350.999999993 75 358 c 0
 75.2195208028 357.780479197 78.9677509689 352.064498062 79 352 c 2
 92 352 l 1
 95.0000000762 353.000000025 95.0000000762 353.000000025 107 356 c 1
 106 352 106 347 106 341 c 2
 106 258 l 1
 97.3333333148 253.666666663 97.3333333148 253.666666663 94 253 c 1
 94 342 l 1
 78 342 l 1
 78 289 l 1
 74 287 70 286 66 285 c 1
 66 341 l 1x30be60
 61.8449005274 347.232649209 60 347.090878838 60 349 c 2
 60 350 l 2
264 351 m 0
 268.307250536 353.584350322 277.86 357.93 278 358 c 0
 280.000000005 355.999999995 280.000000005 355.999999995 282 352 c 1
 321 352 l 1
 324.000000076 353.000000025 324.000000076 353.000000025 336 356 c 1
 336 353.000000001 335 350.000000003 335 345 c 2
 335 320 l 1
 338 320 l 2
 344.00000001 320 349.999999995 321 355 321 c 2
 361 321 l 1
 361 320 360 316 358 309 c 0
 357 309 354.999999998 310 353 310 c 0
 350.999999998 310 343.999999993 311 335 311 c 1
 335 258 l 1
 326.333333315 253.666666663 326.333333315 253.666666663 323 253 c 1
 323 342 l 1
 309 342 l 1
 309 289 l 1
 300.333333315 284.666666663 300.333333315 284.666666663 297 284 c 1
 297 342 l 1
 282 342 l 1
 282 258 l 1
 273.333333315 253.666666663 273.333333315 253.666666663 270 253 c 1
 270 341 l 1x307e000150
 264 347 264 347 264 349 c 0
 264 349.666666667 264 350.333333333 264 351 c 0
213 298 m 0
 244.35703691 303.226172818 246 326.560682347 246 327 c 0
 246.968995753 329.906987259 250.264047687 343 231 343 c 0
 224.114647695 343 211.514493559 336.514493559 209 334 c 1
 209 297 l 1x301e0020
 210 297 212 298 213 298 c 0
146 275 m 0x311e06
 147 275 147 276 148 276 c 0
 149 276 150 276 150 275 c 2
 150 272 l 2
 149.500000004 270.000000014 149.500000004 270.000000014 142 255 c 1
 142 253 l 2
 142 252 141 251 141 251 c 2
 139.5 249.5 139.5 249.5 139 250 c 0
 136.292006525 258.123980424 129 273.74 129 274 c 2
 129 275 l 2
 129 276 131 276 132 276 c 0
 132.094339811 276 133.514592311 274.242703844 140 271 c 0
 141 271 141 273 142 273 c 0
 144.580783109 273 143.419216891 275 146 275 c 0x311e06
216 241 m 2x371e0084
 215.939172375 241.060827625 211 247.387270629 211 248 c 2
 211 250 l 1
 212 250 l 1
 218 252 224 254 229 255 c 1
 229 223 l 1
 348 223 l 1
 348 223 350 224 352 224 c 0
 354 224 355 223 355 223 c 2
 355 221.995710978 353.003674054 219.012859188 351 212 c 1
 346.99954192 213.000114519 345.000076354 214 343 214 c 0
 337 215 333 215 329 214 c 0
 326.652587854 214 312 209.748891214 312 198 c 2
 312 191 l 2
 312 190.547230743 314.425244244 161.904207374 351 168 c 1
 351 161 l 1
 346.9699008 161 344.363432534 158 342 158 c 0
 337 157 333 157 329 157 c 0
 300.083870765 157 291.149491249 196.149491249 308 213 c 1
 289 213 l 1
 289 176 l 1
 284.561899482 158.247597927 262.33015148 157 262 157 c 0
 244.218109567 157 242 171.50638608 242 177 c 2
 242 213 l 1
 229 213 l 1
 229 129 l 1
 225 127 221 125 216 124 c 1
 216 213 l 1
 203 213 l 1
 203 160 l 1
 199 158 196 157 191 156 c 1
 191 213 l 1
 177 213 l 1
 177 171 l 1
 179 168 180 166 180 166 c 2
 180.999941438 164.000117121 182 162.999980484 182 162 c 2
 181 161 l 1
 181 160 l 1
 177 158 172 157 167 156 c 1
 167 157 166 158 166 159 c 2
 166 161 l 1
 161.717585335 158.858792669 149.404114667 156 143 156 c 0
 123.635992071 156 123 177.212267809 123 180 c 2
 123 213 l 1
 109 213 l 1
 109 176 l 1
 104.603374432 158.413497727 83.3220248438 157 83 157 c 0
 71.6865756192 154.737315124 62 164.635301355 62 177 c 2
 62 213 l 1
 39 213 l 2
 38.7577039597 213 36 213.968377223 36 214 c 0
 36 217.949404762 36 219.285714286 52 233 c 1
 54.0013935618 229.997909658 56.9970739294 227.003901426 60 223 c 1
 165 223 l 1
 165 241 l 1x371e08c680
 159 247 159 247 159 248 c 0x371e01
 160.183760684 250.367521368 160.555555556 251.111111111 175 254 c 0
 176 254 176 255 176 255 c 1
 177 255 l 1
 177 223 l 1
 216 223 l 1
 216 241 l 2x371e0084
402 239 m 1x301e000008
 402 140 l 1
 381 140 l 1
 381 239 l 1
 402 239 l 1x301e000008
86 167 m 0x361e
 91.9892492364 167 97 169.760915139 97 179 c 2
 97 213 l 1
 75 213 l 1
 75 202.333333333 75 191.666666667 75 181 c 0
 75 167.314333178 85.0744477518 167 86 167 c 0x361e
135 213 m 1x361e0880
 135 183 l 2
 135 180.355062793 138.779863617 170.110068191 143 168 c 0
 146 167 149 167 154 167 c 2
 158 167 l 1
 160 168 163 170 165 172 c 1
 165 213 l 1
 135 213 l 1x361e0880
266 167 m 0
 269.691736582 167 277 168.34552206 277 179 c 2
 277 213 l 1
 255 213 l 1
 255 184 l 2x361e000280
 255 179.060606061 255 167 266 167 c 0
189 147 m 2
 189 147 189 147 197 143 c 1x301e0020
 197 143 200 144 204 146 c 0
 204.5 146 204.5 146.25 204.5 146.5 c 0
 204.5 146.75 204.5 147 205 147 c 0
 206 147 207 147 207 146 c 2
 207 143 l 1x301e0010
 200.5 129.999999999 200.5 129.999999999 199 126 c 1
 199 124 l 2
 199 123 198 122 198 122 c 2
 197 121 196 121 196 122 c 0
 195.163118998 124.510643004 193.743119525 127.68585836 186 145 c 1
 186 146 l 2
 186 147 188 147 189 147 c 2
402 119 m 1x301e000008
 402 17 l 1
 381 17 l 1
 381 119 l 1
 402 119 l 1x301e000008
402 -5 m 1
 402 -101 l 1
 381 -101 l 1
 381 -5 l 1
 402 -5 l 1
402 -123 m 1
 402 -235 l 1xb01e000020
 313 -235 l 1
 313 -214 l 1x701e000020
 381 -214 l 1x701e000008
 381 -123 l 1
 402 -123 l 1
104 -214 m 1x701e10
 193 -214 l 1
 193 -235 l 1
 104 -235 l 1
 104 -214 l 1x701e10
209 -214 m 1x701e0008
 297 -214 l 1
 297 -235 l 1
 209 -235 l 1
 209 -214 l 1x701e0008
EndSplineSet
Validated: 524321
EndChar

StartChar: Q
Encoding: 81 81 16
Width: 402
Flags: W
HStem: -235 107<0 21 381 402> -235 21<21 88 104 193 209 297 313 381> -106 96<0 21 381 402> 17 102<0 21 381 402> 135 99<0 21 381 402> 157 10<77.3648 95.524 143.141 164.856 257.262 275.236> 213 10<56.0142 62 75 97 109 123 135 165 177 191 203 216 229 242 255 277 289 308 316.76 348 348.001 350.814> 255 107<0 21 381 402> 285 11<141.114 163.315> 310 11<335 359.886> 342 10<78.0239 93.9219 127 142.956 183.008 196.922 215.622 244.809 282 297 309 322.922> 383 96<0 21 381 402> 506 101<0 21 381 402> 623 21G<0 21 381 402> 713 22<21 88 104 193 209 297 313 381>
VStem: 0 88<-235 -214 713 735> 0 21<-214 -128 -106 -10 12 113 135 234 255 362 383 479 501 601 623 713> 66 12<167.368 213 286.341 342> 94 12<167.161 213 256.124 341.837> 104 89<-235 -214 713 735> 123 12<169.729 213> 129 13<259.114 267.957> 146 13<312.011 340.534> 159 18<241.277 252.474> 165 12<158.119 161 167.538 213 223 247.954 286.341 295 298.733 342> 191 12<157.231 213> 197 12<255.054 288.266 297 337.764> 204.5 2.5<146 146.981> 209 88<-235 -214 713 735> 216 13<125.803 213 223 250> 242 13<168.258 213> 270 12<254.607 342> 277 12<168.232 213> 297 12<287.124 342> 313 89<-235 -214 713 735> 323 12<255.054 311 320 342> 381 21<-214 -123 -101 -5 17 119 140 239 261 367 389 484 506 607 628 713>
LayerCount: 2
Fore
SplineSet
0 601 m 1x301e80
 21 602 l 1
 21 501 l 1
 0 500 l 1
 0 601 l 1x301e80
0 479 m 1
 21 479 l 1
 21 383 l 1
 0 383 l 1
 0 479 l 1
0 362 m 1x311e80
 21 362 l 1
 21 255 l 1
 0 255 l 1
 0 362 l 1x311e80
0 234 m 1x381e80
 21 234 l 1
 21 135 l 1
 0 135 l 1
 0 234 l 1x381e80
0 113 m 1
 21 114 l 1
 21 12 l 1
 0 12 l 1
 0 113 l 1
0 -10 m 1
 21 -10 l 1
 21 -106 l 1
 0 -106 l 1
 0 -10 l 1
0 -128 m 1xb01e80
 21 -128 l 1xb01e80
 21 -214 l 1x701e80
 88 -214 l 1
 88 -235 l 1x701f
 0 -235 l 1xb01f
 0 -128 l 1xb01e80
0 735 m 1x301f
 88 735 l 1
 88 713 l 1x301f
 21 713 l 1
 21 623 l 1
 0 623 l 1x301e80
 -0 660.333333333 0 697.666666667 0 735 c 1x301f
104 735 m 1x301e10
 193 735 l 1
 193 713 l 1
 104 713 l 1
 104 735 l 1x301e10
209 735 m 1x301e0008
 297 735 l 1
 297 713 l 1
 209 713 l 1
 209 735 l 1x301e0008
313 735 m 1x301e000020
 402 735 l 1x301e000020
 402 628 l 1
 381 628 l 1
 381 713 l 1x301e000008
 313 713 l 1
 313 735 l 1x301e000020
402 607 m 1x301e000008
 402 506 l 1
 381 506 l 1
 381 607 l 1
 402 607 l 1x301e000008
402 484 m 1
 402 389 l 1
 381 388 l 1
 381 484 l 1
 402 484 l 1
402 367 m 1
 402 261 l 1
 381 260 l 1
 381 367 l 1
 402 367 l 1
165 350 m 2x30be0aa0
 165.999999989 350.999999989 165.999999989 350.999999989 180 358 c 1
 180 359 l 1
 182.145898011 356.854101989 182.145898011 356.854101989 184 352 c 1
 195 352 l 1
 198.000000076 353.000000025 198.000000076 353.000000025 210 356 c 1
 210 345 l 1
 218 348 226 351 233 353 c 1
 239 353 l 2
 265.411490037 353 271.742515539 311.889649517 230 294 c 0
 225.330208697 292.301894072 209.213190056 286.071063352 209 286 c 2
 209 258 l 1
 200.333333315 253.666666663 200.333333315 253.666666663 197 253 c 1
 197 342 l 1
 183 342 l 1
 183 289 l 1
 179 287 175 286 171 285 c 1
 171 295 l 1
 169 294 167 292 165 291 c 0
 159.018023693 288.009011847 152.909609986 286.969869996 147 285 c 0
 139.866666667 285 121.5 285 114 300 c 1
 114 304 l 1
 124.499999995 307 124.499999995 307 125 307 c 0
 139.611138208 307 146 317.036540872 146 327 c 0
 146 332.97660152 143.732058483 344 127 344 c 1
 127 350 l 1
 131.356525113 350 133.199030442 353 135 353 c 2
 138 353 l 2
 140.081371122 353 159 352.3040263 159 327 c 0
 159 307.666666667 143.534482759 302.511494253 133 299 c 1
 142 296 142 296 143 296 c 0
 154.812430626 293.637513875 167.591626881 301.774880642 171 312 c 1
 171 341 l 2
 170.929289322 341.070710678 165 347.878070303 165 349 c 2
 165 350 l 2x30be0aa0
60 350 m 2
 60.9999999934 350.999999993 60.9999999934 350.999999993 75 358 c 0
 75.2195208028 357.780479197 78.9677509689 352.064498062 79 352 c 2
 92 352 l 1
 95.0000000762 353.000000025 95.0000000762 353.000000025 107 356 c 1
 106 352 106 347 106 341 c 2
 106 258 l 1
 97.3333333148 253.666666663 97.3333333148 253.666666663 94 253 c 1
 94 342 l 1
 78 342 l 1
 78 289 l 1
 74 287 70 286 66 285 c 1
 66 341 l 1x30be60
 61.8449005274 347.232649209 60 347.090878838 60 349 c 2
 60 350 l 2
264 351 m 0
 268.307250536 353.584350322 277.86 357.93 278 358 c 0
 280.000000005 355.999999995 280.000000005 355.999999995 282 352 c 1
 321 352 l 1
 324.000000076 353.000000025 324.000000076 353.000000025 336 356 c 1
 336 353.000000001 335 350.000000003 335 345 c 2
 335 320 l 1
 338 320 l 2
 344.00000001 320 349.999999995 321 355 321 c 2
 361 321 l 1
 361 320 360 316 358 309 c 0
 357 309 354.999999998 310 353 310 c 0
 350.999999998 310 343.999999993 311 335 311 c 1
 335 258 l 1
 326.333333315 253.666666663 326.333333315 253.666666663 323 253 c 1
 323 342 l 1
 309 342 l 1
 309 289 l 1
 300.333333315 284.666666663 300.333333315 284.666666663 297 284 c 1
 297 342 l 1
 282 342 l 1
 282 258 l 1
 273.333333315 253.666666663 273.333333315 253.666666663 270 253 c 1
 270 341 l 1x307e000150
 264 347 264 347 264 349 c 0
 264 349.666666667 264 350.333333333 264 351 c 0
213 298 m 0
 244.35703691 303.226172818 246 326.560682347 246 327 c 0
 246.968995753 329.906987259 250.264047687 343 231 343 c 0
 224.114647695 343 211.514493559 336.514493559 209 334 c 1
 209 297 l 1x301e0020
 210 297 212 298 213 298 c 0
146 275 m 0x311e06
 147 275 147 276 148 276 c 0
 149 276 150 276 150 275 c 2
 150 272 l 2
 149.500000004 270.000000014 149.500000004 270.000000014 142 255 c 1
 142 253 l 2
 142 252 141 251 141 251 c 2
 139.5 249.5 139.5 249.5 139 250 c 0
 136.292006525 258.123980424 129 273.74 129 274 c 2
 129 275 l 2
 129 276 131 276 132 276 c 0
 132.094339811 276 133.514592311 274.242703844 140 271 c 0
 141 271 141 273 142 273 c 0
 144.580783109 273 143.419216891 275 146 275 c 0x311e06
216 241 m 2x371e0084
 215.939172375 241.060827625 211 247.387270629 211 248 c 2
 211 250 l 1
 212 250 l 1
 218 252 224 254 229 255 c 1
 229 223 l 1
 348 223 l 1
 348 223 350 224 352 224 c 0
 354 224 355 223 355 223 c 2
 355 221.995710978 353.003674054 219.012859188 351 212 c 1
 346.99954192 213.000114519 345.000076354 214 343 214 c 0
 337 215 333 215 329 214 c 0
 326.652587854 214 312 209.748891214 312 198 c 2
 312 191 l 2
 312 190.547230743 314.425244244 161.904207374 351 168 c 1
 351 161 l 1
 346.9699008 161 344.363432534 158 342 158 c 0
 337 157 333 157 329 157 c 0
 300.083870765 157 291.149491249 196.149491249 308 213 c 1
 289 213 l 1
 289 176 l 1
 284.561899482 158.247597927 262.33015148 157 262 157 c 0
 244.218109567 157 242 171.50638608 242 177 c 2
 242 213 l 1
 229 213 l 1
 229 129 l 1
 225 127 221 125 216 124 c 1
 216 213 l 1
 203 213 l 1
 203 160 l 1
 199 158 196 157 191 156 c 1
 191 213 l 1
 177 213 l 1
 177 171 l 1
 179 168 180 166 180 166 c 2
 180.999941438 164.000117121 182 162.999980484 182 162 c 2
 181 161 l 1
 181 160 l 1
 177 158 172 157 167 156 c 1
 167 157 166 158 166 159 c 2
 166 161 l 1
 161.717585335 158.858792669 149.404114667 156 143 156 c 0
 123.635992071 156 123 177.212267809 123 180 c 2
 123 213 l 1
 109 213 l 1
 109 176 l 1
 104.603374432 158.413497727 83.3220248438 157 83 157 c 0
 71.6865756192 154.737315124 62 164.635301355 62 177 c 2
 62 213 l 1
 39 213 l 2
 38.7577039597 213 36 213.968377223 36 214 c 0
 36 217.949404762 36 219.285714286 52 233 c 1
 54.0013935618 229.997909658 56.9970739294 227.003901426 60 223 c 1
 165 223 l 1
 165 241 l 1x371e08c680
 159 247 159 247 159 248 c 0x371e01
 160.183760684 250.367521368 160.555555556 251.111111111 175 254 c 0
 176 254 176 255 176 255 c 1
 177 255 l 1
 177 223 l 1
 216 223 l 1
 216 241 l 2x371e0084
402 239 m 1x301e000008
 402 140 l 1
 381 140 l 1
 381 239 l 1
 402 239 l 1x301e000008
86 167 m 0x361e
 91.9892492364 167 97 169.760915139 97 179 c 2
 97 213 l 1
 75 213 l 1
 75 202.333333333 75 191.666666667 75 181 c 0
 75 167.314333178 85.0744477518 167 86 167 c 0x361e
135 213 m 1x361e0880
 135 183 l 2
 135 180.355062793 138.779863617 170.110068191 143 168 c 0
 146 167 149 167 154 167 c 2
 158 167 l 1
 160 168 163 170 165 172 c 1
 165 213 l 1
 135 213 l 1x361e0880
266 167 m 0
 269.691736582 167 277 168.34552206 277 179 c 2
 277 213 l 1
 255 213 l 1
 255 184 l 2x361e000280
 255 179.060606061 255 167 266 167 c 0
189 147 m 2
 189 147 189 147 197 143 c 1x301e0020
 197 143 200 144 204 146 c 0
 204.5 146 204.5 146.25 204.5 146.5 c 0
 204.5 146.75 204.5 147 205 147 c 0
 206 147 207 147 207 146 c 2
 207 143 l 1x301e0010
 200.5 129.999999999 200.5 129.999999999 199 126 c 1
 199 124 l 2
 199 123 198 122 198 122 c 2
 197 121 196 121 196 122 c 0
 195.163118998 124.510643004 193.743119525 127.68585836 186 145 c 1
 186 146 l 2
 186 147 188 147 189 147 c 2
402 119 m 1x301e000008
 402 17 l 1
 381 17 l 1
 381 119 l 1
 402 119 l 1x301e000008
402 -5 m 1
 402 -101 l 1
 381 -101 l 1
 381 -5 l 1
 402 -5 l 1
402 -123 m 1
 402 -235 l 1xb01e000020
 313 -235 l 1
 313 -214 l 1x701e000020
 381 -214 l 1x701e000008
 381 -123 l 1
 402 -123 l 1
104 -214 m 1x701e10
 193 -214 l 1
 193 -235 l 1
 104 -235 l 1
 104 -214 l 1x701e10
209 -214 m 1x701e0008
 297 -214 l 1
 297 -235 l 1
 209 -235 l 1
 209 -214 l 1x701e0008
EndSplineSet
Validated: 524321
EndChar

StartChar: R
Encoding: 82 82 17
Width: 402
Flags: W
HStem: -235 107<0 21 381 402> -235 21<21 88 104 193 209 297 313 381> -106 96<0 21 381 402> 17 102<0 21 381 402> 135 99<0 21 381 402> 157 10<77.3648 95.524 143.141 164.856 257.262 275.236> 213 10<56.0142 62 75 97 109 123 135 165 177 191 203 216 229 242 255 277 289 308 316.76 348 348.001 350.814> 255 107<0 21 381 402> 285 11<141.114 163.315> 310 11<335 359.886> 342 10<78.0239 93.9219 127 142.956 183.008 196.922 215.622 244.809 282 297 309 322.922> 383 96<0 21 381 402> 506 101<0 21 381 402> 623 21G<0 21 381 402> 713 22<21 88 104 193 209 297 313 381>
VStem: 0 88<-235 -214 713 735> 0 21<-214 -128 -106 -10 12 113 135 234 255 362 383 479 501 601 623 713> 66 12<167.368 213 286.341 342> 94 12<167.161 213 256.124 341.837> 104 89<-235 -214 713 735> 123 12<169.729 213> 129 13<259.114 267.957> 146 13<312.011 340.534> 159 18<241.277 252.474> 165 12<158.119 161 167.538 213 223 247.954 286.341 295 298.733 342> 191 12<157.231 213> 197 12<255.054 288.266 297 337.764> 204.5 2.5<146 146.981> 209 88<-235 -214 713 735> 216 13<125.803 213 223 250> 242 13<168.258 213> 270 12<254.607 342> 277 12<168.232 213> 297 12<287.124 342> 313 89<-235 -214 713 735> 323 12<255.054 311 320 342> 381 21<-214 -123 -101 -5 17 119 140 239 261 367 389 484 506 607 628 713>
LayerCount: 2
Fore
SplineSet
0 601 m 1x301e80
 21 602 l 1
 21 501 l 1
 0 500 l 1
 0 601 l 1x301e80
0 479 m 1
 21 479 l 1
 21 383 l 1
 0 383 l 1
 0 479 l 1
0 362 m 1x311e80
 21 362 l 1
 21 255 l 1
 0 255 l 1
 0 362 l 1x311e80
0 234 m 1x381e80
 21 234 l 1
 21 135 l 1
 0 135 l 1
 0 234 l 1x381e80
0 113 m 1
 21 114 l 1
 21 12 l 1
 0 12 l 1
 0 113 l 1
0 -10 m 1
 21 -10 l 1
 21 -106 l 1
 0 -106 l 1
 0 -10 l 1
0 -128 m 1xb01e80
 21 -128 l 1xb01e80
 21 -214 l 1x701e80
 88 -214 l 1
 88 -235 l 1x701f
 0 -235 l 1xb01f
 0 -128 l 1xb01e80
0 735 m 1x301f
 88 735 l 1
 88 713 l 1x301f
 21 713 l 1
 21 623 l 1
 0 623 l 1x301e80
 -0 660.333333333 0 697.666666667 0 735 c 1x301f
104 735 m 1x301e10
 193 735 l 1
 193 713 l 1
 104 713 l 1
 104 735 l 1x301e10
209 735 m 1x301e0008
 297 735 l 1
 297 713 l 1
 209 713 l 1
 209 735 l 1x301e0008
313 735 m 1x301e000020
 402 735 l 1x301e000020
 402 628 l 1
 381 628 l 1
 381 713 l 1x301e000008
 313 713 l 1
 313 735 l 1x301e000020
402 607 m 1x301e000008
 402 506 l 1
 381 506 l 1
 381 607 l 1
 402 607 l 1x301e000008
402 484 m 1
 402 389 l 1
 381 388 l 1
 381 484 l 1
 402 484 l 1
402 367 m 1
 402 261 l 1
 381 260 l 1
 381 367 l 1
 402 367 l 1
165 350 m 2x30be0aa0
 165.999999989 350.999999989 165.999999989 350.999999989 180 358 c 1
 180 359 l 1
 182.145898011 356.854101989 182.145898011 356.854101989 184 352 c 1
 195 352 l 1
 198.000000076 353.000000025 198.000000076 353.000000025 210 356 c 1
 210 345 l 1
 218 348 226 351 233 353 c 1
 239 353 l 2
 265.411490037 353 271.742515539 311.889649517 230 294 c 0
 225.330208697 292.301894072 209.213190056 286.071063352 209 286 c 2
 209 258 l 1
 200.333333315 253.666666663 200.333333315 253.666666663 197 253 c 1
 197 342 l 1
 183 342 l 1
 183 289 l 1
 179 287 175 286 171 285 c 1
 171 295 l 1
 169 294 167 292 165 291 c 0
 159.018023693 288.009011847 152.909609986 286.969869996 147 285 c 0
 139.866666667 285 121.5 285 114 300 c 1
 114 304 l 1
 124.499999995 307 124.499999995 307 125 307 c 0
 139.611138208 307 146 317.036540872 146 327 c 0
 146 332.97660152 143.732058483 344 127 344 c 1
 127 350 l 1
 131.356525113 350 133.199030442 353 135 353 c 2
 138 353 l 2
 140.081371122 353 159 352.3040263 159 327 c 0
 159 307.666666667 143.534482759 302.511494253 133 299 c 1
 142 296 142 296 143 296 c 0
 154.812430626 293.637513875 167.591626881 301.774880642 171 312 c 1
 171 341 l 2
 170.929289322 341.070710678 165 347.878070303 165 349 c 2
 165 350 l 2x30be0aa0
60 350 m 2
 60.9999999934 350.999999993 60.9999999934 350.999999993 75 358 c 0
 75.2195208028 357.780479197 78.9677509689 352.064498062 79 352 c 2
 92 352 l 1
 95.0000000762 353.000000025 95.0000000762 353.000000025 107 356 c 1
 106 352 106 347 106 341 c 2
 106 258 l 1
 97.3333333148 253.666666663 97.3333333148 253.666666663 94 253 c 1
 94 342 l 1
 78 342 l 1
 78 289 l 1
 74 287 70 286 66 285 c 1
 66 341 l 1x30be60
 61.8449005274 347.232649209 60 347.090878838 60 349 c 2
 60 350 l 2
264 351 m 0
 268.307250536 353.584350322 277.86 357.93 278 358 c 0
 280.000000005 355.999999995 280.000000005 355.999999995 282 352 c 1
 321 352 l 1
 324.000000076 353.000000025 324.000000076 353.000000025 336 356 c 1
 336 353.000000001 335 350.000000003 335 345 c 2
 335 320 l 1
 338 320 l 2
 344.00000001 320 349.999999995 321 355 321 c 2
 361 321 l 1
 361 320 360 316 358 309 c 0
 357 309 354.999999998 310 353 310 c 0
 350.999999998 310 343.999999993 311 335 311 c 1
 335 258 l 1
 326.333333315 253.666666663 326.333333315 253.666666663 323 253 c 1
 323 342 l 1
 309 342 l 1
 309 289 l 1
 300.333333315 284.666666663 300.333333315 284.666666663 297 284 c 1
 297 342 l 1
 282 342 l 1
 282 258 l 1
 273.333333315 253.666666663 273.333333315 253.666666663 270 253 c 1
 270 341 l 1x307e000150
 264 347 264 347 264 349 c 0
 264 349.666666667 264 350.333333333 264 351 c 0
213 298 m 0
 244.35703691 303.226172818 246 326.560682347 246 327 c 0
 246.968995753 329.906987259 250.264047687 343 231 343 c 0
 224.114647695 343 211.514493559 336.514493559 209 334 c 1
 209 297 l 1x301e0020
 210 297 212 298 213 298 c 0
146 275 m 0x311e06
 147 275 147 276 148 276 c 0
 149 276 150 276 150 275 c 2
 150 272 l 2
 149.500000004 270.000000014 149.500000004 270.000000014 142 255 c 1
 142 253 l 2
 142 252 141 251 141 251 c 2
 139.5 249.5 139.5 249.5 139 250 c 0
 136.292006525 258.123980424 129 273.74 129 274 c 2
 129 275 l 2
 129 276 131 276 132 276 c 0
 132.094339811 276 133.514592311 274.242703844 140 271 c 0
 141 271 141 273 142 273 c 0
 144.580783109 273 143.419216891 275 146 275 c 0x311e06
216 241 m 2x371e0084
 215.939172375 241.060827625 211 247.387270629 211 248 c 2
 211 250 l 1
 212 250 l 1
 218 252 224 254 229 255 c 1
 229 223 l 1
 348 223 l 1
 348 223 350 224 352 224 c 0
 354 224 355 223 355 223 c 2
 355 221.995710978 353.003674054 219.012859188 351 212 c 1
 346.99954192 213.000114519 345.000076354 214 343 214 c 0
 337 215 333 215 329 214 c 0
 326.652587854 214 312 209.748891214 312 198 c 2
 312 191 l 2
 312 190.547230743 314.425244244 161.904207374 351 168 c 1
 351 161 l 1
 346.9699008 161 344.363432534 158 342 158 c 0
 337 157 333 157 329 157 c 0
 300.083870765 157 291.149491249 196.149491249 308 213 c 1
 289 213 l 1
 289 176 l 1
 284.561899482 158.247597927 262.33015148 157 262 157 c 0
 244.218109567 157 242 171.50638608 242 177 c 2
 242 213 l 1
 229 213 l 1
 229 129 l 1
 225 127 221 125 216 124 c 1
 216 213 l 1
 203 213 l 1
 203 160 l 1
 199 158 196 157 191 156 c 1
 191 213 l 1
 177 213 l 1
 177 171 l 1
 179 168 180 166 180 166 c 2
 180.999941438 164.000117121 182 162.999980484 182 162 c 2
 181 161 l 1
 181 160 l 1
 177 158 172 157 167 156 c 1
 167 157 166 158 166 159 c 2
 166 161 l 1
 161.717585335 158.858792669 149.404114667 156 143 156 c 0
 123.635992071 156 123 177.212267809 123 180 c 2
 123 213 l 1
 109 213 l 1
 109 176 l 1
 104.603374432 158.413497727 83.3220248438 157 83 157 c 0
 71.6865756192 154.737315124 62 164.635301355 62 177 c 2
 62 213 l 1
 39 213 l 2
 38.7577039597 213 36 213.968377223 36 214 c 0
 36 217.949404762 36 219.285714286 52 233 c 1
 54.0013935618 229.997909658 56.9970739294 227.003901426 60 223 c 1
 165 223 l 1
 165 241 l 1x371e08c680
 159 247 159 247 159 248 c 0x371e01
 160.183760684 250.367521368 160.555555556 251.111111111 175 254 c 0
 176 254 176 255 176 255 c 1
 177 255 l 1
 177 223 l 1
 216 223 l 1
 216 241 l 2x371e0084
402 239 m 1x301e000008
 402 140 l 1
 381 140 l 1
 381 239 l 1
 402 239 l 1x301e000008
86 167 m 0x361e
 91.9892492364 167 97 169.760915139 97 179 c 2
 97 213 l 1
 75 213 l 1
 75 202.333333333 75 191.666666667 75 181 c 0
 75 167.314333178 85.0744477518 167 86 167 c 0x361e
135 213 m 1x361e0880
 135 183 l 2
 135 180.355062793 138.779863617 170.110068191 143 168 c 0
 146 167 149 167 154 167 c 2
 158 167 l 1
 160 168 163 170 165 172 c 1
 165 213 l 1
 135 213 l 1x361e0880
266 167 m 0
 269.691736582 167 277 168.34552206 277 179 c 2
 277 213 l 1
 255 213 l 1
 255 184 l 2x361e000280
 255 179.060606061 255 167 266 167 c 0
189 147 m 2
 189 147 189 147 197 143 c 1x301e0020
 197 143 200 144 204 146 c 0
 204.5 146 204.5 146.25 204.5 146.5 c 0
 204.5 146.75 204.5 147 205 147 c 0
 206 147 207 147 207 146 c 2
 207 143 l 1x301e0010
 200.5 129.999999999 200.5 129.999999999 199 126 c 1
 199 124 l 2
 199 123 198 122 198 122 c 2
 197 121 196 121 196 122 c 0
 195.163118998 124.510643004 193.743119525 127.68585836 186 145 c 1
 186 146 l 2
 186 147 188 147 189 147 c 2
402 119 m 1x301e000008
 402 17 l 1
 381 17 l 1
 381 119 l 1
 402 119 l 1x301e000008
402 -5 m 1
 402 -101 l 1
 381 -101 l 1
 381 -5 l 1
 402 -5 l 1
402 -123 m 1
 402 -235 l 1xb01e000020
 313 -235 l 1
 313 -214 l 1x701e000020
 381 -214 l 1x701e000008
 381 -123 l 1
 402 -123 l 1
104 -214 m 1x701e10
 193 -214 l 1
 193 -235 l 1
 104 -235 l 1
 104 -214 l 1x701e10
209 -214 m 1x701e0008
 297 -214 l 1
 297 -235 l 1
 209 -235 l 1
 209 -214 l 1x701e0008
EndSplineSet
Validated: 524321
EndChar

StartChar: S
Encoding: 83 83 18
Width: 402
Flags: W
HStem: -235 107<0 21 381 402> -235 21<21 88 104 193 209 297 313 381> -106 96<0 21 381 402> 17 102<0 21 381 402> 135 99<0 21 381 402> 157 10<77.3648 95.524 143.141 164.856 257.262 275.236> 213 10<56.0142 62 75 97 109 123 135 165 177 191 203 216 229 242 255 277 289 308 316.76 348 348.001 350.814> 255 107<0 21 381 402> 285 11<141.114 163.315> 310 11<335 359.886> 342 10<78.0239 93.9219 127 142.956 183.008 196.922 215.622 244.809 282 297 309 322.922> 383 96<0 21 381 402> 506 101<0 21 381 402> 623 21G<0 21 381 402> 713 22<21 88 104 193 209 297 313 381>
VStem: 0 88<-235 -214 713 735> 0 21<-214 -128 -106 -10 12 113 135 234 255 362 383 479 501 601 623 713> 66 12<167.368 213 286.341 342> 94 12<167.161 213 256.124 341.837> 104 89<-235 -214 713 735> 123 12<169.729 213> 129 13<259.114 267.957> 146 13<312.011 340.534> 159 18<241.277 252.474> 165 12<158.119 161 167.538 213 223 247.954 286.341 295 298.733 342> 191 12<157.231 213> 197 12<255.054 288.266 297 337.764> 204.5 2.5<146 146.981> 209 88<-235 -214 713 735> 216 13<125.803 213 223 250> 242 13<168.258 213> 270 12<254.607 342> 277 12<168.232 213> 297 12<287.124 342> 313 89<-235 -214 713 735> 323 12<255.054 311 320 342> 381 21<-214 -123 -101 -5 17 119 140 239 261 367 389 484 506 607 628 713>
LayerCount: 2
Fore
SplineSet
0 601 m 1x301e80
 21 602 l 1
 21 501 l 1
 0 500 l 1
 0 601 l 1x301e80
0 479 m 1
 21 479 l 1
 21 383 l 1
 0 383 l 1
 0 479 l 1
0 362 m 1x311e80
 21 362 l 1
 21 255 l 1
 0 255 l 1
 0 362 l 1x311e80
0 234 m 1x381e80
 21 234 l 1
 21 135 l 1
 0 135 l 1
 0 234 l 1x381e80
0 113 m 1
 21 114 l 1
 21 12 l 1
 0 12 l 1
 0 113 l 1
0 -10 m 1
 21 -10 l 1
 21 -106 l 1
 0 -106 l 1
 0 -10 l 1
0 -128 m 1xb01e80
 21 -128 l 1xb01e80
 21 -214 l 1x701e80
 88 -214 l 1
 88 -235 l 1x701f
 0 -235 l 1xb01f
 0 -128 l 1xb01e80
0 735 m 1x301f
 88 735 l 1
 88 713 l 1x301f
 21 713 l 1
 21 623 l 1
 0 623 l 1x301e80
 -0 660.333333333 0 697.666666667 0 735 c 1x301f
104 735 m 1x301e10
 193 735 l 1
 193 713 l 1
 104 713 l 1
 104 735 l 1x301e10
209 735 m 1x301e0008
 297 735 l 1
 297 713 l 1
 209 713 l 1
 209 735 l 1x301e0008
313 735 m 1x301e000020
 402 735 l 1x301e000020
 402 628 l 1
 381 628 l 1
 381 713 l 1x301e000008
 313 713 l 1
 313 735 l 1x301e000020
402 607 m 1x301e000008
 402 506 l 1
 381 506 l 1
 381 607 l 1
 402 607 l 1x301e000008
402 484 m 1
 402 389 l 1
 381 388 l 1
 381 484 l 1
 402 484 l 1
402 367 m 1
 402 261 l 1
 381 260 l 1
 381 367 l 1
 402 367 l 1
165 350 m 2x30be0aa0
 165.999999989 350.999999989 165.999999989 350.999999989 180 358 c 1
 180 359 l 1
 182.145898011 356.854101989 182.145898011 356.854101989 184 352 c 1
 195 352 l 1
 198.000000076 353.000000025 198.000000076 353.000000025 210 356 c 1
 210 345 l 1
 218 348 226 351 233 353 c 1
 239 353 l 2
 265.411490037 353 271.742515539 311.889649517 230 294 c 0
 225.330208697 292.301894072 209.213190056 286.071063352 209 286 c 2
 209 258 l 1
 200.333333315 253.666666663 200.333333315 253.666666663 197 253 c 1
 197 342 l 1
 183 342 l 1
 183 289 l 1
 179 287 175 286 171 285 c 1
 171 295 l 1
 169 294 167 292 165 291 c 0
 159.018023693 288.009011847 152.909609986 286.969869996 147 285 c 0
 139.866666667 285 121.5 285 114 300 c 1
 114 304 l 1
 124.499999995 307 124.499999995 307 125 307 c 0
 139.611138208 307 146 317.036540872 146 327 c 0
 146 332.97660152 143.732058483 344 127 344 c 1
 127 350 l 1
 131.356525113 350 133.199030442 353 135 353 c 2
 138 353 l 2
 140.081371122 353 159 352.3040263 159 327 c 0
 159 307.666666667 143.534482759 302.511494253 133 299 c 1
 142 296 142 296 143 296 c 0
 154.812430626 293.637513875 167.591626881 301.774880642 171 312 c 1
 171 341 l 2
 170.929289322 341.070710678 165 347.878070303 165 349 c 2
 165 350 l 2x30be0aa0
60 350 m 2
 60.9999999934 350.999999993 60.9999999934 350.999999993 75 358 c 0
 75.2195208028 357.780479197 78.9677509689 352.064498062 79 352 c 2
 92 352 l 1
 95.0000000762 353.000000025 95.0000000762 353.000000025 107 356 c 1
 106 352 106 347 106 341 c 2
 106 258 l 1
 97.3333333148 253.666666663 97.3333333148 253.666666663 94 253 c 1
 94 342 l 1
 78 342 l 1
 78 289 l 1
 74 287 70 286 66 285 c 1
 66 341 l 1x30be60
 61.8449005274 347.232649209 60 347.090878838 60 349 c 2
 60 350 l 2
264 351 m 0
 268.307250536 353.584350322 277.86 357.93 278 358 c 0
 280.000000005 355.999999995 280.000000005 355.999999995 282 352 c 1
 321 352 l 1
 324.000000076 353.000000025 324.000000076 353.000000025 336 356 c 1
 336 353.000000001 335 350.000000003 335 345 c 2
 335 320 l 1
 338 320 l 2
 344.00000001 320 349.999999995 321 355 321 c 2
 361 321 l 1
 361 320 360 316 358 309 c 0
 357 309 354.999999998 310 353 310 c 0
 350.999999998 310 343.999999993 311 335 311 c 1
 335 258 l 1
 326.333333315 253.666666663 326.333333315 253.666666663 323 253 c 1
 323 342 l 1
 309 342 l 1
 309 289 l 1
 300.333333315 284.666666663 300.333333315 284.666666663 297 284 c 1
 297 342 l 1
 282 342 l 1
 282 258 l 1
 273.333333315 253.666666663 273.333333315 253.666666663 270 253 c 1
 270 341 l 1x307e000150
 264 347 264 347 264 349 c 0
 264 349.666666667 264 350.333333333 264 351 c 0
213 298 m 0
 244.35703691 303.226172818 246 326.560682347 246 327 c 0
 246.968995753 329.906987259 250.264047687 343 231 343 c 0
 224.114647695 343 211.514493559 336.514493559 209 334 c 1
 209 297 l 1x301e0020
 210 297 212 298 213 298 c 0
146 275 m 0x311e06
 147 275 147 276 148 276 c 0
 149 276 150 276 150 275 c 2
 150 272 l 2
 149.500000004 270.000000014 149.500000004 270.000000014 142 255 c 1
 142 253 l 2
 142 252 141 251 141 251 c 2
 139.5 249.5 139.5 249.5 139 250 c 0
 136.292006525 258.123980424 129 273.74 129 274 c 2
 129 275 l 2
 129 276 131 276 132 276 c 0
 132.094339811 276 133.514592311 274.242703844 140 271 c 0
 141 271 141 273 142 273 c 0
 144.580783109 273 143.419216891 275 146 275 c 0x311e06
216 241 m 2x371e0084
 215.939172375 241.060827625 211 247.387270629 211 248 c 2
 211 250 l 1
 212 250 l 1
 218 252 224 254 229 255 c 1
 229 223 l 1
 348 223 l 1
 348 223 350 224 352 224 c 0
 354 224 355 223 355 223 c 2
 355 221.995710978 353.003674054 219.012859188 351 212 c 1
 346.99954192 213.000114519 345.000076354 214 343 214 c 0
 337 215 333 215 329 214 c 0
 326.652587854 214 312 209.748891214 312 198 c 2
 312 191 l 2
 312 190.547230743 314.425244244 161.904207374 351 168 c 1
 351 161 l 1
 346.9699008 161 344.363432534 158 342 158 c 0
 337 157 333 157 329 157 c 0
 300.083870765 157 291.149491249 196.149491249 308 213 c 1
 289 213 l 1
 289 176 l 1
 284.561899482 158.247597927 262.33015148 157 262 157 c 0
 244.218109567 157 242 171.50638608 242 177 c 2
 242 213 l 1
 229 213 l 1
 229 129 l 1
 225 127 221 125 216 124 c 1
 216 213 l 1
 203 213 l 1
 203 160 l 1
 199 158 196 157 191 156 c 1
 191 213 l 1
 177 213 l 1
 177 171 l 1
 179 168 180 166 180 166 c 2
 180.999941438 164.000117121 182 162.999980484 182 162 c 2
 181 161 l 1
 181 160 l 1
 177 158 172 157 167 156 c 1
 167 157 166 158 166 159 c 2
 166 161 l 1
 161.717585335 158.858792669 149.404114667 156 143 156 c 0
 123.635992071 156 123 177.212267809 123 180 c 2
 123 213 l 1
 109 213 l 1
 109 176 l 1
 104.603374432 158.413497727 83.3220248438 157 83 157 c 0
 71.6865756192 154.737315124 62 164.635301355 62 177 c 2
 62 213 l 1
 39 213 l 2
 38.7577039597 213 36 213.968377223 36 214 c 0
 36 217.949404762 36 219.285714286 52 233 c 1
 54.0013935618 229.997909658 56.9970739294 227.003901426 60 223 c 1
 165 223 l 1
 165 241 l 1x371e08c680
 159 247 159 247 159 248 c 0x371e01
 160.183760684 250.367521368 160.555555556 251.111111111 175 254 c 0
 176 254 176 255 176 255 c 1
 177 255 l 1
 177 223 l 1
 216 223 l 1
 216 241 l 2x371e0084
402 239 m 1x301e000008
 402 140 l 1
 381 140 l 1
 381 239 l 1
 402 239 l 1x301e000008
86 167 m 0x361e
 91.9892492364 167 97 169.760915139 97 179 c 2
 97 213 l 1
 75 213 l 1
 75 202.333333333 75 191.666666667 75 181 c 0
 75 167.314333178 85.0744477518 167 86 167 c 0x361e
135 213 m 1x361e0880
 135 183 l 2
 135 180.355062793 138.779863617 170.110068191 143 168 c 0
 146 167 149 167 154 167 c 2
 158 167 l 1
 160 168 163 170 165 172 c 1
 165 213 l 1
 135 213 l 1x361e0880
266 167 m 0
 269.691736582 167 277 168.34552206 277 179 c 2
 277 213 l 1
 255 213 l 1
 255 184 l 2x361e000280
 255 179.060606061 255 167 266 167 c 0
189 147 m 2
 189 147 189 147 197 143 c 1x301e0020
 197 143 200 144 204 146 c 0
 204.5 146 204.5 146.25 204.5 146.5 c 0
 204.5 146.75 204.5 147 205 147 c 0
 206 147 207 147 207 146 c 2
 207 143 l 1x301e0010
 200.5 129.999999999 200.5 129.999999999 199 126 c 1
 199 124 l 2
 199 123 198 122 198 122 c 2
 197 121 196 121 196 122 c 0
 195.163118998 124.510643004 193.743119525 127.68585836 186 145 c 1
 186 146 l 2
 186 147 188 147 189 147 c 2
402 119 m 1x301e000008
 402 17 l 1
 381 17 l 1
 381 119 l 1
 402 119 l 1x301e000008
402 -5 m 1
 402 -101 l 1
 381 -101 l 1
 381 -5 l 1
 402 -5 l 1
402 -123 m 1
 402 -235 l 1xb01e000020
 313 -235 l 1
 313 -214 l 1x701e000020
 381 -214 l 1x701e000008
 381 -123 l 1
 402 -123 l 1
104 -214 m 1x701e10
 193 -214 l 1
 193 -235 l 1
 104 -235 l 1
 104 -214 l 1x701e10
209 -214 m 1x701e0008
 297 -214 l 1
 297 -235 l 1
 209 -235 l 1
 209 -214 l 1x701e0008
EndSplineSet
Validated: 524321
EndChar

StartChar: T
Encoding: 84 84 19
Width: 402
Flags: W
HStem: -235 107<0 21 381 402> -235 21<21 88 104 193 209 297 313 381> -106 96<0 21 381 402> 17 102<0 21 381 402> 135 99<0 21 381 402> 157 10<77.3648 95.524 143.141 164.856 257.262 275.236> 213 10<56.0142 62 75 97 109 123 135 165 177 191 203 216 229 242 255 277 289 308 316.76 348 348.001 350.814> 255 107<0 21 381 402> 285 11<141.114 163.315> 310 11<335 359.886> 342 10<78.0239 93.9219 127 142.956 183.008 196.922 215.622 244.809 282 297 309 322.922> 383 96<0 21 381 402> 506 101<0 21 381 402> 623 21G<0 21 381 402> 713 22<21 88 104 193 209 297 313 381>
VStem: 0 88<-235 -214 713 735> 0 21<-214 -128 -106 -10 12 113 135 234 255 362 383 479 501 601 623 713> 66 12<167.368 213 286.341 342> 94 12<167.161 213 256.124 341.837> 104 89<-235 -214 713 735> 123 12<169.729 213> 129 13<259.114 267.957> 146 13<312.011 340.534> 159 18<241.277 252.474> 165 12<158.119 161 167.538 213 223 247.954 286.341 295 298.733 342> 191 12<157.231 213> 197 12<255.054 288.266 297 337.764> 204.5 2.5<146 146.981> 209 88<-235 -214 713 735> 216 13<125.803 213 223 250> 242 13<168.258 213> 270 12<254.607 342> 277 12<168.232 213> 297 12<287.124 342> 313 89<-235 -214 713 735> 323 12<255.054 311 320 342> 381 21<-214 -123 -101 -5 17 119 140 239 261 367 389 484 506 607 628 713>
LayerCount: 2
Fore
SplineSet
0 601 m 1x301e80
 21 602 l 1
 21 501 l 1
 0 500 l 1
 0 601 l 1x301e80
0 479 m 1
 21 479 l 1
 21 383 l 1
 0 383 l 1
 0 479 l 1
0 362 m 1x311e80
 21 362 l 1
 21 255 l 1
 0 255 l 1
 0 362 l 1x311e80
0 234 m 1x381e80
 21 234 l 1
 21 135 l 1
 0 135 l 1
 0 234 l 1x381e80
0 113 m 1
 21 114 l 1
 21 12 l 1
 0 12 l 1
 0 113 l 1
0 -10 m 1
 21 -10 l 1
 21 -106 l 1
 0 -106 l 1
 0 -10 l 1
0 -128 m 1xb01e80
 21 -128 l 1xb01e80
 21 -214 l 1x701e80
 88 -214 l 1
 88 -235 l 1x701f
 0 -235 l 1xb01f
 0 -128 l 1xb01e80
0 735 m 1x301f
 88 735 l 1
 88 713 l 1x301f
 21 713 l 1
 21 623 l 1
 0 623 l 1x301e80
 -0 660.333333333 0 697.666666667 0 735 c 1x301f
104 735 m 1x301e10
 193 735 l 1
 193 713 l 1
 104 713 l 1
 104 735 l 1x301e10
209 735 m 1x301e0008
 297 735 l 1
 297 713 l 1
 209 713 l 1
 209 735 l 1x301e0008
313 735 m 1x301e000020
 402 735 l 1x301e000020
 402 628 l 1
 381 628 l 1
 381 713 l 1x301e000008
 313 713 l 1
 313 735 l 1x301e000020
402 607 m 1x301e000008
 402 506 l 1
 381 506 l 1
 381 607 l 1
 402 607 l 1x301e000008
402 484 m 1
 402 389 l 1
 381 388 l 1
 381 484 l 1
 402 484 l 1
402 367 m 1
 402 261 l 1
 381 260 l 1
 381 367 l 1
 402 367 l 1
165 350 m 2x30be0aa0
 165.999999989 350.999999989 165.999999989 350.999999989 180 358 c 1
 180 359 l 1
 182.145898011 356.854101989 182.145898011 356.854101989 184 352 c 1
 195 352 l 1
 198.000000076 353.000000025 198.000000076 353.000000025 210 356 c 1
 210 345 l 1
 218 348 226 351 233 353 c 1
 239 353 l 2
 265.411490037 353 271.742515539 311.889649517 230 294 c 0
 225.330208697 292.301894072 209.213190056 286.071063352 209 286 c 2
 209 258 l 1
 200.333333315 253.666666663 200.333333315 253.666666663 197 253 c 1
 197 342 l 1
 183 342 l 1
 183 289 l 1
 179 287 175 286 171 285 c 1
 171 295 l 1
 169 294 167 292 165 291 c 0
 159.018023693 288.009011847 152.909609986 286.969869996 147 285 c 0
 139.866666667 285 121.5 285 114 300 c 1
 114 304 l 1
 124.499999995 307 124.499999995 307 125 307 c 0
 139.611138208 307 146 317.036540872 146 327 c 0
 146 332.97660152 143.732058483 344 127 344 c 1
 127 350 l 1
 131.356525113 350 133.199030442 353 135 353 c 2
 138 353 l 2
 140.081371122 353 159 352.3040263 159 327 c 0
 159 307.666666667 143.534482759 302.511494253 133 299 c 1
 142 296 142 296 143 296 c 0
 154.812430626 293.637513875 167.591626881 301.774880642 171 312 c 1
 171 341 l 2
 170.929289322 341.070710678 165 347.878070303 165 349 c 2
 165 350 l 2x30be0aa0
60 350 m 2
 60.9999999934 350.999999993 60.9999999934 350.999999993 75 358 c 0
 75.2195208028 357.780479197 78.9677509689 352.064498062 79 352 c 2
 92 352 l 1
 95.0000000762 353.000000025 95.0000000762 353.000000025 107 356 c 1
 106 352 106 347 106 341 c 2
 106 258 l 1
 97.3333333148 253.666666663 97.3333333148 253.666666663 94 253 c 1
 94 342 l 1
 78 342 l 1
 78 289 l 1
 74 287 70 286 66 285 c 1
 66 341 l 1x30be60
 61.8449005274 347.232649209 60 347.090878838 60 349 c 2
 60 350 l 2
264 351 m 0
 268.307250536 353.584350322 277.86 357.93 278 358 c 0
 280.000000005 355.999999995 280.000000005 355.999999995 282 352 c 1
 321 352 l 1
 324.000000076 353.000000025 324.000000076 353.000000025 336 356 c 1
 336 353.000000001 335 350.000000003 335 345 c 2
 335 320 l 1
 338 320 l 2
 344.00000001 320 349.999999995 321 355 321 c 2
 361 321 l 1
 361 320 360 316 358 309 c 0
 357 309 354.999999998 310 353 310 c 0
 350.999999998 310 343.999999993 311 335 311 c 1
 335 258 l 1
 326.333333315 253.666666663 326.333333315 253.666666663 323 253 c 1
 323 342 l 1
 309 342 l 1
 309 289 l 1
 300.333333315 284.666666663 300.333333315 284.666666663 297 284 c 1
 297 342 l 1
 282 342 l 1
 282 258 l 1
 273.333333315 253.666666663 273.333333315 253.666666663 270 253 c 1
 270 341 l 1x307e000150
 264 347 264 347 264 349 c 0
 264 349.666666667 264 350.333333333 264 351 c 0
213 298 m 0
 244.35703691 303.226172818 246 326.560682347 246 327 c 0
 246.968995753 329.906987259 250.264047687 343 231 343 c 0
 224.114647695 343 211.514493559 336.514493559 209 334 c 1
 209 297 l 1x301e0020
 210 297 212 298 213 298 c 0
146 275 m 0x311e06
 147 275 147 276 148 276 c 0
 149 276 150 276 150 275 c 2
 150 272 l 2
 149.500000004 270.000000014 149.500000004 270.000000014 142 255 c 1
 142 253 l 2
 142 252 141 251 141 251 c 2
 139.5 249.5 139.5 249.5 139 250 c 0
 136.292006525 258.123980424 129 273.74 129 274 c 2
 129 275 l 2
 129 276 131 276 132 276 c 0
 132.094339811 276 133.514592311 274.242703844 140 271 c 0
 141 271 141 273 142 273 c 0
 144.580783109 273 143.419216891 275 146 275 c 0x311e06
216 241 m 2x371e0084
 215.939172375 241.060827625 211 247.387270629 211 248 c 2
 211 250 l 1
 212 250 l 1
 218 252 224 254 229 255 c 1
 229 223 l 1
 348 223 l 1
 348 223 350 224 352 224 c 0
 354 224 355 223 355 223 c 2
 355 221.995710978 353.003674054 219.012859188 351 212 c 1
 346.99954192 213.000114519 345.000076354 214 343 214 c 0
 337 215 333 215 329 214 c 0
 326.652587854 214 312 209.748891214 312 198 c 2
 312 191 l 2
 312 190.547230743 314.425244244 161.904207374 351 168 c 1
 351 161 l 1
 346.9699008 161 344.363432534 158 342 158 c 0
 337 157 333 157 329 157 c 0
 300.083870765 157 291.149491249 196.149491249 308 213 c 1
 289 213 l 1
 289 176 l 1
 284.561899482 158.247597927 262.33015148 157 262 157 c 0
 244.218109567 157 242 171.50638608 242 177 c 2
 242 213 l 1
 229 213 l 1
 229 129 l 1
 225 127 221 125 216 124 c 1
 216 213 l 1
 203 213 l 1
 203 160 l 1
 199 158 196 157 191 156 c 1
 191 213 l 1
 177 213 l 1
 177 171 l 1
 179 168 180 166 180 166 c 2
 180.999941438 164.000117121 182 162.999980484 182 162 c 2
 181 161 l 1
 181 160 l 1
 177 158 172 157 167 156 c 1
 167 157 166 158 166 159 c 2
 166 161 l 1
 161.717585335 158.858792669 149.404114667 156 143 156 c 0
 123.635992071 156 123 177.212267809 123 180 c 2
 123 213 l 1
 109 213 l 1
 109 176 l 1
 104.603374432 158.413497727 83.3220248438 157 83 157 c 0
 71.6865756192 154.737315124 62 164.635301355 62 177 c 2
 62 213 l 1
 39 213 l 2
 38.7577039597 213 36 213.968377223 36 214 c 0
 36 217.949404762 36 219.285714286 52 233 c 1
 54.0013935618 229.997909658 56.9970739294 227.003901426 60 223 c 1
 165 223 l 1
 165 241 l 1x371e08c680
 159 247 159 247 159 248 c 0x371e01
 160.183760684 250.367521368 160.555555556 251.111111111 175 254 c 0
 176 254 176 255 176 255 c 1
 177 255 l 1
 177 223 l 1
 216 223 l 1
 216 241 l 2x371e0084
402 239 m 1x301e000008
 402 140 l 1
 381 140 l 1
 381 239 l 1
 402 239 l 1x301e000008
86 167 m 0x361e
 91.9892492364 167 97 169.760915139 97 179 c 2
 97 213 l 1
 75 213 l 1
 75 202.333333333 75 191.666666667 75 181 c 0
 75 167.314333178 85.0744477518 167 86 167 c 0x361e
135 213 m 1x361e0880
 135 183 l 2
 135 180.355062793 138.779863617 170.110068191 143 168 c 0
 146 167 149 167 154 167 c 2
 158 167 l 1
 160 168 163 170 165 172 c 1
 165 213 l 1
 135 213 l 1x361e0880
266 167 m 0
 269.691736582 167 277 168.34552206 277 179 c 2
 277 213 l 1
 255 213 l 1
 255 184 l 2x361e000280
 255 179.060606061 255 167 266 167 c 0
189 147 m 2
 189 147 189 147 197 143 c 1x301e0020
 197 143 200 144 204 146 c 0
 204.5 146 204.5 146.25 204.5 146.5 c 0
 204.5 146.75 204.5 147 205 147 c 0
 206 147 207 147 207 146 c 2
 207 143 l 1x301e0010
 200.5 129.999999999 200.5 129.999999999 199 126 c 1
 199 124 l 2
 199 123 198 122 198 122 c 2
 197 121 196 121 196 122 c 0
 195.163118998 124.510643004 193.743119525 127.68585836 186 145 c 1
 186 146 l 2
 186 147 188 147 189 147 c 2
402 119 m 1x301e000008
 402 17 l 1
 381 17 l 1
 381 119 l 1
 402 119 l 1x301e000008
402 -5 m 1
 402 -101 l 1
 381 -101 l 1
 381 -5 l 1
 402 -5 l 1
402 -123 m 1
 402 -235 l 1xb01e000020
 313 -235 l 1
 313 -214 l 1x701e000020
 381 -214 l 1x701e000008
 381 -123 l 1
 402 -123 l 1
104 -214 m 1x701e10
 193 -214 l 1
 193 -235 l 1
 104 -235 l 1
 104 -214 l 1x701e10
209 -214 m 1x701e0008
 297 -214 l 1
 297 -235 l 1
 209 -235 l 1
 209 -214 l 1x701e0008
EndSplineSet
Validated: 524321
EndChar

StartChar: U
Encoding: 85 85 20
Width: 402
Flags: W
HStem: -235 107<0 21 381 402> -235 21<21 88 104 193 209 297 313 381> -106 96<0 21 381 402> 17 102<0 21 381 402> 135 99<0 21 381 402> 157 10<77.3648 95.524 143.141 164.856 257.262 275.236> 213 10<56.0142 62 75 97 109 123 135 165 177 191 203 216 229 242 255 277 289 308 316.76 348 348.001 350.814> 255 107<0 21 381 402> 285 11<141.114 163.315> 310 11<335 359.886> 342 10<78.0239 93.9219 127 142.956 183.008 196.922 215.622 244.809 282 297 309 322.922> 383 96<0 21 381 402> 506 101<0 21 381 402> 623 21G<0 21 381 402> 713 22<21 88 104 193 209 297 313 381>
VStem: 0 88<-235 -214 713 735> 0 21<-214 -128 -106 -10 12 113 135 234 255 362 383 479 501 601 623 713> 66 12<167.368 213 286.341 342> 94 12<167.161 213 256.124 341.837> 104 89<-235 -214 713 735> 123 12<169.729 213> 129 13<259.114 267.957> 146 13<312.011 340.534> 159 18<241.277 252.474> 165 12<158.119 161 167.538 213 223 247.954 286.341 295 298.733 342> 191 12<157.231 213> 197 12<255.054 288.266 297 337.764> 204.5 2.5<146 146.981> 209 88<-235 -214 713 735> 216 13<125.803 213 223 250> 242 13<168.258 213> 270 12<254.607 342> 277 12<168.232 213> 297 12<287.124 342> 313 89<-235 -214 713 735> 323 12<255.054 311 320 342> 381 21<-214 -123 -101 -5 17 119 140 239 261 367 389 484 506 607 628 713>
LayerCount: 2
Fore
SplineSet
0 601 m 1x301e80
 21 602 l 1
 21 501 l 1
 0 500 l 1
 0 601 l 1x301e80
0 479 m 1
 21 479 l 1
 21 383 l 1
 0 383 l 1
 0 479 l 1
0 362 m 1x311e80
 21 362 l 1
 21 255 l 1
 0 255 l 1
 0 362 l 1x311e80
0 234 m 1x381e80
 21 234 l 1
 21 135 l 1
 0 135 l 1
 0 234 l 1x381e80
0 113 m 1
 21 114 l 1
 21 12 l 1
 0 12 l 1
 0 113 l 1
0 -10 m 1
 21 -10 l 1
 21 -106 l 1
 0 -106 l 1
 0 -10 l 1
0 -128 m 1xb01e80
 21 -128 l 1xb01e80
 21 -214 l 1x701e80
 88 -214 l 1
 88 -235 l 1x701f
 0 -235 l 1xb01f
 0 -128 l 1xb01e80
0 735 m 1x301f
 88 735 l 1
 88 713 l 1x301f
 21 713 l 1
 21 623 l 1
 0 623 l 1x301e80
 -0 660.333333333 0 697.666666667 0 735 c 1x301f
104 735 m 1x301e10
 193 735 l 1
 193 713 l 1
 104 713 l 1
 104 735 l 1x301e10
209 735 m 1x301e0008
 297 735 l 1
 297 713 l 1
 209 713 l 1
 209 735 l 1x301e0008
313 735 m 1x301e000020
 402 735 l 1x301e000020
 402 628 l 1
 381 628 l 1
 381 713 l 1x301e000008
 313 713 l 1
 313 735 l 1x301e000020
402 607 m 1x301e000008
 402 506 l 1
 381 506 l 1
 381 607 l 1
 402 607 l 1x301e000008
402 484 m 1
 402 389 l 1
 381 388 l 1
 381 484 l 1
 402 484 l 1
402 367 m 1
 402 261 l 1
 381 260 l 1
 381 367 l 1
 402 367 l 1
165 350 m 2x30be0aa0
 165.999999989 350.999999989 165.999999989 350.999999989 180 358 c 1
 180 359 l 1
 182.145898011 356.854101989 182.145898011 356.854101989 184 352 c 1
 195 352 l 1
 198.000000076 353.000000025 198.000000076 353.000000025 210 356 c 1
 210 345 l 1
 218 348 226 351 233 353 c 1
 239 353 l 2
 265.411490037 353 271.742515539 311.889649517 230 294 c 0
 225.330208697 292.301894072 209.213190056 286.071063352 209 286 c 2
 209 258 l 1
 200.333333315 253.666666663 200.333333315 253.666666663 197 253 c 1
 197 342 l 1
 183 342 l 1
 183 289 l 1
 179 287 175 286 171 285 c 1
 171 295 l 1
 169 294 167 292 165 291 c 0
 159.018023693 288.009011847 152.909609986 286.969869996 147 285 c 0
 139.866666667 285 121.5 285 114 300 c 1
 114 304 l 1
 124.499999995 307 124.499999995 307 125 307 c 0
 139.611138208 307 146 317.036540872 146 327 c 0
 146 332.97660152 143.732058483 344 127 344 c 1
 127 350 l 1
 131.356525113 350 133.199030442 353 135 353 c 2
 138 353 l 2
 140.081371122 353 159 352.3040263 159 327 c 0
 159 307.666666667 143.534482759 302.511494253 133 299 c 1
 142 296 142 296 143 296 c 0
 154.812430626 293.637513875 167.591626881 301.774880642 171 312 c 1
 171 341 l 2
 170.929289322 341.070710678 165 347.878070303 165 349 c 2
 165 350 l 2x30be0aa0
60 350 m 2
 60.9999999934 350.999999993 60.9999999934 350.999999993 75 358 c 0
 75.2195208028 357.780479197 78.9677509689 352.064498062 79 352 c 2
 92 352 l 1
 95.0000000762 353.000000025 95.0000000762 353.000000025 107 356 c 1
 106 352 106 347 106 341 c 2
 106 258 l 1
 97.3333333148 253.666666663 97.3333333148 253.666666663 94 253 c 1
 94 342 l 1
 78 342 l 1
 78 289 l 1
 74 287 70 286 66 285 c 1
 66 341 l 1x30be60
 61.8449005274 347.232649209 60 347.090878838 60 349 c 2
 60 350 l 2
264 351 m 0
 268.307250536 353.584350322 277.86 357.93 278 358 c 0
 280.000000005 355.999999995 280.000000005 355.999999995 282 352 c 1
 321 352 l 1
 324.000000076 353.000000025 324.000000076 353.000000025 336 356 c 1
 336 353.000000001 335 350.000000003 335 345 c 2
 335 320 l 1
 338 320 l 2
 344.00000001 320 349.999999995 321 355 321 c 2
 361 321 l 1
 361 320 360 316 358 309 c 0
 357 309 354.999999998 310 353 310 c 0
 350.999999998 310 343.999999993 311 335 311 c 1
 335 258 l 1
 326.333333315 253.666666663 326.333333315 253.666666663 323 253 c 1
 323 342 l 1
 309 342 l 1
 309 289 l 1
 300.333333315 284.666666663 300.333333315 284.666666663 297 284 c 1
 297 342 l 1
 282 342 l 1
 282 258 l 1
 273.333333315 253.666666663 273.333333315 253.666666663 270 253 c 1
 270 341 l 1x307e000150
 264 347 264 347 264 349 c 0
 264 349.666666667 264 350.333333333 264 351 c 0
213 298 m 0
 244.35703691 303.226172818 246 326.560682347 246 327 c 0
 246.968995753 329.906987259 250.264047687 343 231 343 c 0
 224.114647695 343 211.514493559 336.514493559 209 334 c 1
 209 297 l 1x301e0020
 210 297 212 298 213 298 c 0
146 275 m 0x311e06
 147 275 147 276 148 276 c 0
 149 276 150 276 150 275 c 2
 150 272 l 2
 149.500000004 270.000000014 149.500000004 270.000000014 142 255 c 1
 142 253 l 2
 142 252 141 251 141 251 c 2
 139.5 249.5 139.5 249.5 139 250 c 0
 136.292006525 258.123980424 129 273.74 129 274 c 2
 129 275 l 2
 129 276 131 276 132 276 c 0
 132.094339811 276 133.514592311 274.242703844 140 271 c 0
 141 271 141 273 142 273 c 0
 144.580783109 273 143.419216891 275 146 275 c 0x311e06
216 241 m 2x371e0084
 215.939172375 241.060827625 211 247.387270629 211 248 c 2
 211 250 l 1
 212 250 l 1
 218 252 224 254 229 255 c 1
 229 223 l 1
 348 223 l 1
 348 223 350 224 352 224 c 0
 354 224 355 223 355 223 c 2
 355 221.995710978 353.003674054 219.012859188 351 212 c 1
 346.99954192 213.000114519 345.000076354 214 343 214 c 0
 337 215 333 215 329 214 c 0
 326.652587854 214 312 209.748891214 312 198 c 2
 312 191 l 2
 312 190.547230743 314.425244244 161.904207374 351 168 c 1
 351 161 l 1
 346.9699008 161 344.363432534 158 342 158 c 0
 337 157 333 157 329 157 c 0
 300.083870765 157 291.149491249 196.149491249 308 213 c 1
 289 213 l 1
 289 176 l 1
 284.561899482 158.247597927 262.33015148 157 262 157 c 0
 244.218109567 157 242 171.50638608 242 177 c 2
 242 213 l 1
 229 213 l 1
 229 129 l 1
 225 127 221 125 216 124 c 1
 216 213 l 1
 203 213 l 1
 203 160 l 1
 199 158 196 157 191 156 c 1
 191 213 l 1
 177 213 l 1
 177 171 l 1
 179 168 180 166 180 166 c 2
 180.999941438 164.000117121 182 162.999980484 182 162 c 2
 181 161 l 1
 181 160 l 1
 177 158 172 157 167 156 c 1
 167 157 166 158 166 159 c 2
 166 161 l 1
 161.717585335 158.858792669 149.404114667 156 143 156 c 0
 123.635992071 156 123 177.212267809 123 180 c 2
 123 213 l 1
 109 213 l 1
 109 176 l 1
 104.603374432 158.413497727 83.3220248438 157 83 157 c 0
 71.6865756192 154.737315124 62 164.635301355 62 177 c 2
 62 213 l 1
 39 213 l 2
 38.7577039597 213 36 213.968377223 36 214 c 0
 36 217.949404762 36 219.285714286 52 233 c 1
 54.0013935618 229.997909658 56.9970739294 227.003901426 60 223 c 1
 165 223 l 1
 165 241 l 1x371e08c680
 159 247 159 247 159 248 c 0x371e01
 160.183760684 250.367521368 160.555555556 251.111111111 175 254 c 0
 176 254 176 255 176 255 c 1
 177 255 l 1
 177 223 l 1
 216 223 l 1
 216 241 l 2x371e0084
402 239 m 1x301e000008
 402 140 l 1
 381 140 l 1
 381 239 l 1
 402 239 l 1x301e000008
86 167 m 0x361e
 91.9892492364 167 97 169.760915139 97 179 c 2
 97 213 l 1
 75 213 l 1
 75 202.333333333 75 191.666666667 75 181 c 0
 75 167.314333178 85.0744477518 167 86 167 c 0x361e
135 213 m 1x361e0880
 135 183 l 2
 135 180.355062793 138.779863617 170.110068191 143 168 c 0
 146 167 149 167 154 167 c 2
 158 167 l 1
 160 168 163 170 165 172 c 1
 165 213 l 1
 135 213 l 1x361e0880
266 167 m 0
 269.691736582 167 277 168.34552206 277 179 c 2
 277 213 l 1
 255 213 l 1
 255 184 l 2x361e000280
 255 179.060606061 255 167 266 167 c 0
189 147 m 2
 189 147 189 147 197 143 c 1x301e0020
 197 143 200 144 204 146 c 0
 204.5 146 204.5 146.25 204.5 146.5 c 0
 204.5 146.75 204.5 147 205 147 c 0
 206 147 207 147 207 146 c 2
 207 143 l 1x301e0010
 200.5 129.999999999 200.5 129.999999999 199 126 c 1
 199 124 l 2
 199 123 198 122 198 122 c 2
 197 121 196 121 196 122 c 0
 195.163118998 124.510643004 193.743119525 127.68585836 186 145 c 1
 186 146 l 2
 186 147 188 147 189 147 c 2
402 119 m 1x301e000008
 402 17 l 1
 381 17 l 1
 381 119 l 1
 402 119 l 1x301e000008
402 -5 m 1
 402 -101 l 1
 381 -101 l 1
 381 -5 l 1
 402 -5 l 1
402 -123 m 1
 402 -235 l 1xb01e000020
 313 -235 l 1
 313 -214 l 1x701e000020
 381 -214 l 1x701e000008
 381 -123 l 1
 402 -123 l 1
104 -214 m 1x701e10
 193 -214 l 1
 193 -235 l 1
 104 -235 l 1
 104 -214 l 1x701e10
209 -214 m 1x701e0008
 297 -214 l 1
 297 -235 l 1
 209 -235 l 1
 209 -214 l 1x701e0008
EndSplineSet
Validated: 524321
EndChar

